<svg width="1441" height="1424" viewBox="0 0 1441 1424" fill="none" xmlns="http://www.w3.org/2000/svg">
<path d="M888.178 1007.76C888.178 1012.88 884.85 1015.44 878.194 1015.44C871.538 1015.44 867.229 1013.22 865.266 1008.78C859.89 1013.22 853.959 1015.44 847.474 1015.44C840.989 1015.44 835.869 1013.86 832.114 1010.7C828.445 1007.46 826.61 1003.07 826.61 997.52C826.61 991.888 828.786 987.28 833.138 983.696C837.49 980.112 844.359 978.32 853.746 978.32C857.415 978.32 860.914 978.576 864.242 979.088V973.456C864.242 967.568 863.261 963.387 861.298 960.912C859.421 958.437 856.818 957.2 853.49 957.2C850.162 957.2 847.474 958.267 845.426 960.4C843.463 962.533 842.482 965.435 842.482 969.104C839.069 969.445 836.21 968.933 833.906 967.568C831.687 966.117 830.578 963.941 830.578 961.04C830.578 956.944 832.711 953.573 836.978 950.928C841.245 948.283 846.749 946.96 853.49 946.96C871.069 946.96 879.858 955.493 879.858 972.56V1006.74L888.178 1007.76ZM864.242 988.688C861.17 987.579 857.927 987.024 854.514 987.024C851.186 987.024 848.413 987.835 846.194 989.456C843.975 990.992 842.866 993.211 842.866 996.112C842.866 1002.09 845.938 1005.07 852.082 1005.07C856.434 1005.07 860.487 1003.83 864.242 1001.36V988.688Z" fill="url(#paint0_linear_4_7)"/>
<path d="M804.279 948.88H822.711C822.711 954.341 821.175 957.2 818.103 957.456L816.183 957.712L793.143 1013.52H784.567L761.911 957.968H761.783L755.895 957.2C755.81 954.981 756.194 953.061 757.047 951.44C757.9 949.733 759.351 948.88 761.399 948.88H786.743C786.572 952.037 786.188 954 785.591 954.768C784.311 956.389 782.818 957.285 781.111 957.456L779.063 957.712L791.479 989.968L804.023 957.84L798.519 957.2C798.263 956.688 798.306 955.536 798.647 953.744C799.415 950.501 801.292 948.88 804.279 948.88Z" fill="url(#paint1_linear_4_7)"/>
<path d="M731.448 963.64C729.059 959.117 725.645 956.856 721.208 956.856C716.771 956.856 713.315 959.075 710.84 963.512C708.451 967.949 707.256 974.008 707.256 981.688C707.256 989.283 708.451 995.213 710.84 999.48C713.315 1003.66 716.771 1005.75 721.208 1005.75C725.645 1005.75 729.059 1003.7 731.448 999.608C733.923 995.427 735.16 989.539 735.16 981.944C735.16 974.264 733.923 968.163 731.448 963.64ZM691 982.328C691 971.405 693.688 962.787 699.064 956.472C704.525 950.157 712.077 947 721.72 947C731.363 947 738.701 950.029 743.736 956.088C748.856 962.147 751.416 970.552 751.416 981.304C751.416 991.971 748.685 1000.33 743.224 1006.39C737.763 1012.45 730.125 1015.48 720.312 1015.48C710.584 1015.48 703.245 1012.66 698.296 1007.03C693.432 1001.4 691 993.165 691 982.328Z" fill="url(#paint2_linear_4_7)"/>
<path d="M685.221 1007.38C685.221 1012.84 681.594 1015.57 674.341 1015.57C667.173 1015.57 662.906 1013.22 661.541 1008.53C656.08 1013.14 649.85 1015.44 642.853 1015.44C635.941 1015.44 629.968 1012.97 624.933 1008.02C619.898 1002.98 617.296 995.003 617.125 984.08C616.954 973.157 619.557 964.24 624.933 957.328C630.394 950.416 638.373 946.96 648.869 946.96C653.562 946.96 657.616 947.685 661.029 949.136V933.264L656.037 932.752C652.538 932.411 650.96 929.765 651.301 924.816L676.645 922V1006.61L685.221 1007.38ZM647.845 957.328C638.202 957.328 633.381 965.307 633.381 981.264C633.381 988.603 634.618 994.277 637.093 998.288C639.653 1002.3 643.194 1004.3 647.717 1004.3C652.325 1004.3 656.762 1002.38 661.029 998.544V962.448C656.933 959.035 652.538 957.328 647.845 957.328Z" fill="url(#paint3_linear_4_7)"/>
<path d="M611.303 1007.76C611.303 1012.88 607.975 1015.44 601.319 1015.44C594.663 1015.44 590.354 1013.22 588.391 1008.78C583.015 1013.22 577.084 1015.44 570.599 1015.44C564.114 1015.44 558.994 1013.86 555.239 1010.7C551.57 1007.46 549.735 1003.07 549.735 997.52C549.735 991.888 551.911 987.28 556.263 983.696C560.615 980.112 567.484 978.32 576.871 978.32C580.54 978.32 584.039 978.576 587.367 979.088V973.456C587.367 967.568 586.386 963.387 584.423 960.912C582.546 958.437 579.943 957.2 576.615 957.2C573.287 957.2 570.599 958.267 568.551 960.4C566.588 962.533 565.607 965.435 565.607 969.104C562.194 969.445 559.335 968.933 557.031 967.568C554.812 966.117 553.703 963.941 553.703 961.04C553.703 956.944 555.836 953.573 560.103 950.928C564.37 948.283 569.874 946.96 576.615 946.96C594.194 946.96 602.983 955.493 602.983 972.56V1006.74L611.303 1007.76ZM587.367 988.688C584.295 987.579 581.052 987.024 577.639 987.024C574.311 987.024 571.538 987.835 569.319 989.456C567.1 990.992 565.991 993.211 565.991 996.112C565.991 1002.09 569.063 1005.07 575.207 1005.07C579.559 1005.07 583.612 1003.83 587.367 1001.36V988.688Z" fill="url(#paint4_linear_4_7)"/>
<path d="M521.872 946.96C528.016 946.96 533.008 948.283 536.848 950.928C540.773 953.488 542.736 956.773 542.736 960.784C542.736 964.795 541.541 967.611 539.152 969.232C536.763 970.853 534.245 971.493 531.6 971.152C531.515 967.483 530.533 964.283 528.656 961.552C526.779 958.821 523.749 957.456 519.568 957.456C515.472 957.456 512.229 959.461 509.84 963.472C507.451 967.397 506.256 972.944 506.256 980.112C506.256 995.984 512.357 1003.92 524.56 1003.92C530.277 1003.92 535.739 1001.62 540.944 997.008C541.797 997.52 542.48 998.373 542.992 999.568C543.504 1000.76 543.76 1001.79 543.76 1002.64C543.76 1005.37 541.243 1008.19 536.208 1011.09C531.259 1013.99 525.541 1015.44 519.056 1015.44C510.011 1015.44 502.885 1012.54 497.68 1006.74C492.56 1000.85 490 992.613 490 982.032C490 971.451 492.901 962.96 498.704 956.56C504.507 950.16 512.229 946.96 521.872 946.96Z" fill="url(#paint5_linear_4_7)"/>
<path d="M774.11 790.53C771.591 790.53 769.174 791.531 767.393 793.312L754.251 806.455C752.282 808.424 749.611 809.53 746.826 809.53H723.799C722.041 809.53 720.317 810.018 718.819 810.939L713.472 814.23C707.846 817.692 707.063 825.56 711.895 830.063L743.712 859.71C745.019 860.928 746.628 861.778 748.376 862.147C776.536 868.096 795.811 867.748 810.532 858.771C824.742 850.106 834.823 833.332 844.48 806.034C845.642 802.748 844.23 799.235 842.239 796.374C840.133 793.349 837.101 790.53 833.415 790.53H774.11Z" fill="url(#paint6_linear_4_7)"/>
<path d="M671.879 834.192C669.007 835.603 668.484 839.477 670.879 841.6L704.8 871.656L704.857 871.716C704.874 871.737 704.89 871.76 704.903 871.784L730.762 917.603C732.26 920.257 735.215 921.741 738.238 921.357L758.097 918.835C760.988 918.468 762.773 915.491 761.734 912.768L746.613 873.123C745.922 871.311 744.719 869.74 743.151 868.599L740.174 866.435C740.163 866.426 740.152 866.418 740.142 866.409C740.135 866.403 740.129 866.397 740.123 866.392L696.039 824.267C695.545 823.794 694.887 823.53 694.203 823.53C693.796 823.53 693.395 823.623 693.031 823.803L671.879 834.192Z" fill="url(#paint7_linear_4_7)"/>
<path fill-rule="evenodd" clip-rule="evenodd" d="M710.862 516.009C710.862 524.569 703.923 531.509 695.362 531.509C694.304 531.509 693.27 531.403 692.271 531.2C688.514 530.439 684.426 529.953 681.088 531.837L677.665 533.769C676.223 534.58 674.609 535.039 672.956 535.108L643.826 536.33C640.85 536.455 638.104 537.969 636.41 540.419L599.549 593.727C598.451 595.314 597.862 597.199 597.862 599.13V607.751C597.862 610.052 598.698 612.276 600.214 614.008L616.731 632.882C618.407 634.796 619.33 637.253 619.33 639.797L619.806 675.817C619.899 682.867 627.065 687.61 633.591 684.94L685.217 663.821C685.738 663.607 686.284 663.45 686.832 663.578C688.149 663.884 690.55 664.899 692.945 666.104C697.245 668.266 696.813 674 692 674L675.5 679.5L595.635 704.734C594.888 704.917 594.127 705.21 593.449 705.572C565.635 720.467 551.743 739.836 548.366 758.993C544.989 778.154 552.113 797.202 566.532 811.5C593.87 838.607 647.479 848.634 705.1 809.515C710.008 806.183 710.574 799.256 706.503 794.941L692.427 780.02C690.632 778.117 688.132 777.039 685.517 777.039H652.2C649.554 777.039 647.027 778.142 645.229 780.083L640.74 784.983C638.097 787.868 637.83 792.127 637.83 796.039C637.83 803.771 631.562 810.039 623.83 810.039C616.098 810.039 609.83 803.771 609.83 796.039C609.83 788.307 616.098 782.039 623.83 782.039C628.923 782.039 634.87 781.836 638.159 777.947L640.454 775.233L640.455 775.232C642.45 772.889 645.373 771.539 648.45 771.539H686.675C688.502 771.539 690.297 772.016 691.884 772.923L691.953 772.962C692.738 773.41 693.461 773.958 694.105 774.592L720.263 800.312C722.039 802.06 724.431 803.039 726.923 803.039H746.264C748.741 803.039 751.12 802.071 752.894 800.343L766.569 787.019C768.53 785.108 771.159 784.039 773.896 784.039H779.144C781.688 784.039 784.127 783.018 785.912 781.205L814.962 751.202C814.967 751.197 814.971 751.191 814.977 751.186L816.977 749.186L817.053 749.123C817.134 749.069 817.231 749.039 817.33 749.039H827.266C831.903 749.039 835.711 745.437 839.168 742.346C841.467 740.289 844.503 739.039 847.83 739.039C855.01 739.039 860.83 744.859 860.83 752.039C860.83 759.219 855.01 765.039 847.83 765.039C844.573 765.039 841.596 763.841 839.315 761.862C835.925 758.92 832.203 755.539 827.715 755.539H823.569C820.98 755.539 818.492 756.543 816.628 758.341L791.678 782.399C791.678 782.399 791.678 782.399 791.677 782.399C791.677 782.399 791.677 782.399 791.676 782.399L791.632 782.443C791.592 782.483 791.62 782.551 791.676 782.551L833.225 782.932C837.907 782.974 841.774 779.446 844.955 776.01C847.786 772.953 851.835 771.039 856.33 771.039C856.668 771.039 857.003 771.05 857.336 771.071C858.247 771.129 859.167 771.095 860.047 770.852C860.783 770.649 861.482 770.315 862.098 769.864C881.198 755.884 891.018 740.823 894.98 726.197C899.017 711.298 896.991 696.797 892.423 684.273C887.854 671.747 880.749 661.221 874.666 654.299C871.622 650.835 868.848 648.291 866.792 646.851C865.755 646.124 864.943 645.708 864.392 645.572C864.115 645.504 863.966 645.522 863.901 645.546C863.871 645.557 863.839 645.572 863.813 645.668C863.297 647.607 862.083 650.152 860.58 652.853C859.072 655.563 857.252 658.465 855.498 661.127C853.744 663.789 852.053 666.216 850.801 667.978C850.175 668.858 849.657 669.573 849.297 670.067C849.213 670.183 849.137 670.286 849.07 670.377C849.067 670.381 849.064 670.385 849.062 670.389L848.994 670.48L850.588 671.994C853.596 674.849 858.183 675.039 862.33 675.039C869.786 675.039 875.83 681.083 875.83 688.539C875.83 695.995 869.786 702.039 862.33 702.039C854.874 702.039 848.83 695.995 848.83 688.539C848.83 687.841 848.883 687.156 848.985 686.486C849.525 682.949 848.918 678.777 845.868 676.906L840.858 673.833C840.158 673.404 840.031 672.439 840.596 671.843L841.003 671.414C841.27 671.132 841.199 670.582 841.416 670.26L842.439 668.741C858.774 642.908 864.4 624.05 860.164 607.786C855.924 591.506 841.765 577.658 818.055 561.956C817.964 561.896 817.894 561.807 817.858 561.704C810.945 541.917 803.296 529.549 791.521 522.592C779.733 515.626 763.706 514.022 739.872 516.037C739.737 516.048 739.603 516.004 739.501 515.915C721.677 500.31 707.354 492.32 692.962 491.567C678.574 490.815 663.991 497.291 645.629 510.94C645.487 511.046 645.3 511.069 645.138 511.001C622.413 501.526 605.92 498.597 592.027 502.858C578.139 507.119 566.722 518.606 554.253 538.307C554.157 538.459 553.986 538.547 553.806 538.538C526.399 537.2 508.153 539.902 495.457 549.405C482.767 558.904 475.508 575.286 470.321 601.636C470.285 601.818 470.15 601.966 469.972 602.019C457.029 605.833 448.318 610.199 441.746 616.793C435.323 623.238 430.899 631.856 426.608 644.307C426.415 644.87 426.273 645.452 426.187 646.041C424.631 656.73 424.294 665.099 426 673.39C427.7 681.651 431.439 689.873 438.096 700.255L438.749 701.267L438.797 701.359C438.809 701.392 438.819 701.426 438.824 701.46C442.394 723.703 447.585 737.578 456.843 745.718C465.447 753.283 477.664 755.978 495.68 755.659C498.16 755.615 500.477 754.438 502.033 752.507L505.778 747.857C508.796 744.111 506.13 738.539 501.319 738.539C498.631 738.539 496.045 737.507 494.094 735.657L484.046 726.184C480.586 722.923 475.195 723.001 470.44 723.039C470.404 723.039 470.367 723.039 470.33 723.039C462.874 723.039 456.83 716.995 456.83 709.539C456.83 702.083 462.874 696.039 470.33 696.039C477.786 696.039 483.83 702.083 483.83 709.539C483.83 713.674 484.02 718.247 486.864 721.249L494.732 729.556L494.733 729.557C496.528 731.46 499.029 732.539 501.646 732.539H547.321C549.651 732.539 551.822 731.358 553.088 729.402C554.883 726.626 554.447 722.966 552.05 720.69L499.748 671.024C498.058 669.42 495.837 668.492 493.508 668.418L471.458 667.715C467.686 667.594 464.334 669.926 461.18 671.996C459.212 673.288 456.859 674.039 454.33 674.039C447.427 674.039 441.83 668.443 441.83 661.539C441.83 654.636 447.427 649.039 454.33 649.039C457.841 649.039 461.014 650.487 463.285 652.818C466.897 656.527 470.781 661.226 475.952 661.482L493.715 662.36C496.183 662.482 498.53 663.47 500.342 665.151L554.286 715.212C557.594 718.282 562.548 718.756 566.377 716.369L583.716 705.564C588.803 702.394 589.718 695.364 585.613 690.996L549.68 652.769C547.849 650.821 546.83 648.25 546.83 645.577V644.602C546.83 639.965 543.229 636.157 540.137 632.701C538.08 630.402 536.83 627.367 536.83 624.039C536.83 616.859 542.65 611.039 549.83 611.039C557.01 611.039 562.83 616.859 562.83 624.039C562.83 627.551 561.437 630.738 559.174 633.077C555.805 636.559 551.83 640.461 551.83 645.305C551.83 647.876 552.872 650.338 554.719 652.127L596.112 692.24C598.508 694.562 601.948 695.457 605.172 694.598L605.296 694.574C610.046 693.663 613.463 689.483 613.411 684.647L612.96 642.101C612.9 639.903 612.08 637.794 610.639 636.133L592.899 615.687C591.243 613.777 590.33 611.334 590.33 608.806V584.151C590.33 579.13 586.252 575.114 582.405 571.887C579.017 569.044 576.862 564.778 576.862 560.009C576.862 551.448 583.802 544.509 592.362 544.509C600.923 544.509 607.862 551.448 607.862 560.009C607.862 566.398 603.996 571.883 598.475 574.255C597.284 574.766 596.398 575.873 596.391 577.17C596.374 579.958 599.933 581.142 601.591 578.899L633.621 535.542C635.487 533.016 638.386 531.458 641.521 531.295L672.48 529.687C674.234 529.595 675.928 529.02 677.374 528.024C677.375 528.024 677.375 528.023 677.376 528.023C677.377 528.023 677.377 528.023 677.378 528.023L678.586 527.195C680.72 525.734 681.201 522.831 680.478 520.347C680.077 518.97 679.862 517.515 679.862 516.009C679.862 507.448 686.802 500.509 695.362 500.509C703.923 500.509 710.862 507.448 710.862 516.009Z" fill="url(#paint8_linear_4_7)"/>
<path d="M862.468 787.53C862.468 783.388 859.11 780.03 854.968 780.03C850.826 780.03 847.468 783.388 847.468 787.53C847.468 791.672 850.826 795.03 854.968 795.03C859.11 795.03 862.468 791.672 862.468 787.53Z" fill="url(#paint9_linear_4_7)"/>
<path d="M854.468 753.53C854.468 749.416 850.915 746.03 846.468 746.03C842.021 746.03 838.468 749.416 838.468 753.53C838.468 757.644 842.021 761.03 846.468 761.03C850.915 761.03 854.468 757.644 854.468 753.53Z" fill="url(#paint10_linear_4_7)"/>
<path d="M509.276 754.671C506.147 759 506.877 765.174 511.393 768.027C514.212 769.808 516.733 770.995 519.411 771.774C521.977 772.521 524.698 772.897 527.979 773.051C533.67 773.319 537.931 768.281 538.298 762.596C538.44 760.385 538.714 758.267 539.14 756.148C539.258 755.561 539.388 754.974 539.529 754.386C541.256 747.221 536.621 739.53 529.25 739.53H525.333C522.124 739.53 519.11 741.07 517.23 743.671L509.276 754.671Z" fill="url(#paint11_linear_4_7)"/>
<path d="M477.468 710.53C477.468 705.836 473.662 702.03 468.968 702.03C464.274 702.03 460.468 705.836 460.468 710.53C460.468 715.225 464.274 719.03 468.968 719.03C473.662 719.03 477.468 715.225 477.468 710.53Z" fill="url(#paint12_linear_4_7)"/>
<path fill-rule="evenodd" clip-rule="evenodd" d="M695.468 822.53C695.596 822.53 695.721 822.58 695.814 822.669L740.79 865.646L746.262 869.626L746.317 869.673C746.369 869.723 746.41 869.785 746.436 869.853L762.669 912.411C763.939 915.74 761.757 919.378 758.223 919.827L738.364 922.349C734.938 922.784 731.588 921.103 729.891 918.095L704.895 873.805C704.35 872.84 703.648 871.971 702.818 871.236L670.216 842.348C667.288 839.754 667.928 835.019 671.439 833.295L693.248 822.581L693.355 822.543C693.392 822.534 693.43 822.53 693.468 822.53H695.468ZM671.879 834.192C669.007 835.603 668.484 839.477 670.879 841.6L704.8 871.656L704.857 871.716C704.874 871.737 704.89 871.76 704.903 871.784L730.762 917.603C732.26 920.257 735.215 921.741 738.238 921.357L758.097 918.835C760.988 918.468 762.773 915.491 761.734 912.768L746.613 873.123C745.922 871.311 744.719 869.74 743.151 868.599L740.174 866.435C740.163 866.426 740.152 866.418 740.142 866.409C740.135 866.403 740.129 866.397 740.123 866.392L696.039 824.267C695.545 823.794 694.887 823.53 694.203 823.53C693.796 823.53 693.395 823.623 693.031 823.803L671.879 834.192ZM869.468 787.53C869.468 779.522 862.976 773.03 854.968 773.03C846.96 773.03 840.468 779.522 840.468 787.53C840.468 795.538 846.96 802.03 854.968 802.03C862.976 802.03 869.468 795.538 869.468 787.53ZM774.11 790.53C771.591 790.53 769.174 791.531 767.393 793.312L754.251 806.455C752.282 808.424 749.611 809.53 746.826 809.53H723.799C722.041 809.53 720.317 810.018 718.819 810.939L713.472 814.23C707.846 817.692 707.063 825.56 711.895 830.063L743.712 859.71C745.019 860.928 746.628 861.778 748.376 862.147C776.536 868.096 795.811 867.748 810.532 858.771C824.742 850.106 834.823 833.332 844.48 806.034C845.642 802.748 844.23 799.235 842.239 796.374C840.133 793.349 837.101 790.53 833.415 790.53H774.11ZM635.468 797.03C635.468 789.851 629.648 784.03 622.468 784.03C615.288 784.03 609.468 789.851 609.468 797.03C609.468 804.21 615.288 810.03 622.468 810.03C629.648 810.03 635.468 804.21 635.468 797.03ZM629.468 797.03C629.468 793.164 626.334 790.03 622.468 790.03C618.602 790.03 615.468 793.164 615.468 797.03C615.468 800.896 618.602 804.03 622.468 804.03C626.334 804.03 629.468 800.896 629.468 797.03ZM862.468 787.53C862.468 783.388 859.11 780.03 854.968 780.03C850.826 780.03 847.468 783.388 847.468 787.53C847.468 791.672 850.826 795.03 854.968 795.03C859.11 795.03 862.468 791.672 862.468 787.53ZM545.968 738.53C546.14 738.53 546.3 738.619 546.392 738.766C546.483 738.912 546.493 739.095 546.417 739.25C543.149 745.946 541.166 751.148 540.12 756.346C539.075 761.541 538.962 766.759 539.467 773.493C539.477 773.629 539.43 773.764 539.339 773.865C539.247 773.967 539.118 774.027 538.981 774.03C529.958 774.277 524.264 774.228 519.132 772.734C513.987 771.237 509.448 768.303 502.688 762.891C502.479 762.724 502.439 762.423 502.595 762.207L519.563 738.737C519.657 738.607 519.807 738.53 519.968 738.53H545.968ZM509.276 754.671C506.147 759 506.877 765.174 511.393 768.027C514.212 769.808 516.733 770.995 519.411 771.774C521.977 772.521 524.698 772.897 527.979 773.051C533.67 773.319 537.931 768.281 538.298 762.596C538.44 760.385 538.714 758.267 539.14 756.148C539.258 755.561 539.388 754.974 539.529 754.386C541.256 747.221 536.621 739.53 529.25 739.53H525.333C522.124 739.53 519.11 741.07 517.23 743.671L509.276 754.671ZM854.468 753.53C854.468 749.416 850.915 746.03 846.468 746.03C842.021 746.03 838.468 749.416 838.468 753.53C838.468 757.644 842.021 761.03 846.468 761.03C850.915 761.03 854.468 757.644 854.468 753.53ZM477.468 710.53C477.468 705.836 473.662 702.03 468.968 702.03C464.274 702.03 460.468 705.836 460.468 710.53C460.468 715.225 464.274 719.03 468.968 719.03C473.662 719.03 477.468 715.225 477.468 710.53ZM873.468 689.53C873.468 682.627 867.871 677.03 860.968 677.03C854.064 677.03 848.468 682.627 848.468 689.53C848.468 696.434 854.064 702.03 860.968 702.03C867.871 702.03 873.468 696.434 873.468 689.53ZM560.468 625.03C560.468 618.403 555.095 613.03 548.468 613.03C541.841 613.03 536.468 618.403 536.468 625.03C536.468 631.658 541.841 637.03 548.468 637.03C555.095 637.03 560.468 631.658 560.468 625.03ZM555.468 625.03C555.468 621.164 552.334 618.03 548.468 618.03C544.602 618.03 541.468 621.164 541.468 625.03C541.468 628.896 544.602 632.03 548.468 632.03C552.334 632.03 555.468 628.896 555.468 625.03ZM598.5 561C598.5 556.858 595.142 553.5 591 553.5C586.858 553.5 583.5 556.858 583.5 561C583.5 565.142 586.858 568.5 591 568.5C595.142 568.5 598.5 565.142 598.5 561ZM702.5 517C702.5 512.306 698.694 508.5 694 508.5C689.306 508.5 685.5 512.306 685.5 517C685.5 521.694 689.306 525.5 694 525.5C698.694 525.5 702.5 521.694 702.5 517ZM630.468 797.03C630.468 801.449 626.886 805.03 622.468 805.03C618.05 805.03 614.468 801.448 614.468 797.03C614.468 792.612 618.05 789.03 622.468 789.03C626.886 789.03 630.468 792.612 630.468 797.03ZM863.468 787.53C863.468 792.225 859.662 796.03 854.968 796.03C850.274 796.03 846.468 792.225 846.468 787.53C846.468 782.836 850.274 779.03 854.968 779.03C859.662 779.03 863.468 782.836 863.468 787.53ZM858.468 753.03C858.468 746.403 853.095 741.03 846.468 741.03C839.841 741.03 834.468 746.403 834.468 753.03C834.468 759.658 839.841 765.03 846.468 765.03C853.095 765.03 858.468 759.658 858.468 753.03ZM855.468 753.53C855.468 758.253 851.409 762.03 846.468 762.03C841.526 762.03 837.468 758.253 837.468 753.53C837.468 748.808 841.526 745.03 846.468 745.03C851.409 745.03 855.468 748.808 855.468 753.53ZM481.468 710.53C481.468 703.627 475.871 698.03 468.968 698.03C462.064 698.03 456.468 703.627 456.468 710.53C456.468 717.434 462.064 723.03 468.968 723.03C475.871 723.03 481.468 717.434 481.468 710.53ZM478.468 710.53C478.468 715.777 474.215 720.03 468.968 720.03C463.721 720.03 459.468 715.777 459.468 710.53C459.468 705.284 463.721 701.03 468.968 701.03C474.215 701.03 478.468 705.284 478.468 710.53ZM441.468 662.53C441.468 668.881 446.617 674.03 452.968 674.03C459.319 674.03 464.468 668.882 464.468 662.53C464.468 656.179 459.319 651.03 452.968 651.03C446.617 651.03 441.468 656.179 441.468 662.53ZM556.468 625.03C556.468 629.449 552.886 633.03 548.468 633.03C544.05 633.03 540.468 629.448 540.468 625.03C540.468 620.612 544.05 617.03 548.468 617.03C552.886 617.03 556.468 620.612 556.468 625.03ZM595.5 600.121C595.5 597.987 596.15 595.903 597.363 594.148L634.225 540.841C636.097 538.133 639.132 536.46 642.422 536.322L671.552 535.101C672.954 535.042 674.325 534.673 675.565 534.022L675.813 533.889L682.285 530.236C683.253 529.689 683.366 528.33 682.611 527.513C682.043 526.898 681.108 526.739 680.416 527.212L676.58 529.839C676.579 529.84 676.579 529.84 676.579 529.839C676.578 529.839 676.578 529.839 676.578 529.839C674.979 530.939 673.108 531.576 671.17 531.677L640.212 533.284C637.375 533.432 634.752 534.842 633.064 537.127L594.87 588.827C594.742 589.001 594.516 589.073 594.311 589.005C594.105 588.937 593.967 588.744 593.968 588.527L594.022 579.261C594.031 577.681 592.58 576.5 591 576.5C590.441 576.5 589.968 576.939 589.968 577.498V609.797C589.968 612.084 590.793 614.295 592.292 616.022L610.032 636.469C611.625 638.304 612.531 640.635 612.597 643.064L613.968 693.517C613.974 693.748 613.821 693.954 613.597 694.014L604.067 696.555C600.504 697.505 596.703 696.516 594.055 693.949L552.661 653.836C550.62 651.858 549.468 649.138 549.468 646.296V638.993C549.468 638.453 549.008 638.03 548.468 638.03C547.412 638.03 546.468 638.829 546.468 639.885V646.568C546.468 648.986 547.39 651.313 549.046 653.075L584.98 691.302C589.517 696.129 588.505 703.9 582.883 707.404L558.732 722.455C558.541 722.574 558.293 722.55 558.128 722.396L498.299 666.876C496.66 665.355 494.537 664.46 492.304 664.351L467.343 663.116C466.305 663.064 465.435 663.906 465.236 664.926C464.984 666.223 465.861 667.569 467.182 667.611L492.177 668.41C494.751 668.492 497.206 669.516 499.074 671.29L555.813 725.168C555.987 725.334 556.018 725.6 555.888 725.802L550.388 734.302C550.296 734.444 550.137 734.53 549.968 734.53H500.283C497.391 734.53 494.627 733.337 492.644 731.233L481.582 719.555C480.857 718.79 479.611 718.9 478.898 719.675C478.227 720.404 478.181 721.557 478.902 722.237L493.417 735.921L493.418 735.922C495.183 737.596 497.524 738.53 499.957 738.53H512.968C513.16 738.53 513.336 738.641 513.419 738.814C513.502 738.988 513.478 739.194 513.357 739.344L498.857 757.344C498.767 757.456 498.632 757.524 498.488 757.53C478.135 758.347 464.374 755.859 454.82 747.46C445.595 739.349 440.4 725.814 436.836 704.8C436.603 703.426 436.094 702.111 435.349 700.933C428.992 690.891 425.345 682.777 423.658 674.582C421.868 665.884 422.295 657.137 423.974 645.956L423.994 645.87C428.398 632.887 432.939 623.838 439.676 617.078C445.318 611.416 452.47 607.392 462.285 603.98C465.794 602.761 468.471 599.844 469.282 596.22C474.395 573.38 481.543 558.542 493.495 549.596C505.504 540.606 522.264 537.639 546.388 538.297C549.98 538.395 553.375 536.628 555.385 533.649C566.643 516.967 577.404 506.872 590.372 502.894C603.435 498.887 618.627 501.119 638.63 508.845C641.911 510.113 645.619 509.657 648.503 507.643C664.724 496.315 678.219 490.859 691.651 491.561C705.451 492.282 719.074 499.498 735.419 513.254C737.492 514.998 740.162 515.877 742.865 515.693C764.342 514.235 779.359 516.041 790.668 522.723C802.065 529.457 809.606 541.089 816.245 559.041C817.001 561.086 818.375 562.856 820.179 564.081C842.164 579.007 855.609 592.552 859.77 608.525C864.116 625.213 858.289 644.383 841.923 670.268C841.921 670.271 841.919 670.274 841.917 670.276L841.915 670.279C841.451 670.966 841.533 671.884 842.11 672.478L846.5 677L849.669 679.643C850.316 680.183 851.269 680.102 851.893 679.535C852.628 678.867 852.731 677.692 852.01 677.008L846.624 671.894C846.441 671.72 846.416 671.437 846.565 671.234C846.566 671.233 846.567 671.232 846.568 671.231C846.569 671.23 846.57 671.229 846.571 671.228L846.572 671.226L846.576 671.22L846.604 671.183L846.63 671.148L846.712 671.036C846.807 670.907 846.947 670.715 847.126 670.47C847.484 669.978 847.999 669.267 848.623 668.39C849.871 666.635 851.555 664.218 853.301 661.568C855.047 658.918 856.852 656.038 858.344 653.357C859.841 650.667 861.002 648.213 861.485 646.401C861.585 646.029 861.821 645.738 862.189 645.601C862.523 645.476 862.902 645.502 863.269 645.592C864.004 645.773 864.941 646.278 866.004 647.022C868.149 648.525 870.981 651.132 874.055 654.63C880.206 661.629 887.382 672.261 892 684.922C896.619 697.586 898.687 712.303 894.583 727.45C890.478 742.603 880.211 758.132 860.26 772.437C860.177 772.496 860.081 772.525 859.986 772.528C859.971 772.529 859.957 772.53 859.943 772.534C859.791 772.576 859.788 772.795 859.937 772.845C866.06 774.916 870.468 780.708 870.468 787.53C870.468 796.091 863.528 803.03 854.968 803.03C850.801 803.03 846.043 804.679 844.624 808.596C835.188 834.641 825.172 851.015 811.053 859.625C795.494 869.113 775.088 869.096 745.36 862.519C745.273 862.499 745.192 862.457 745.127 862.396L701.127 821.396C701.013 821.29 700.955 821.136 700.971 820.98C700.986 820.825 701.073 820.686 701.206 820.604L718.296 810.088C719.951 809.07 721.856 808.53 723.799 808.53H746.826C749.346 808.53 751.762 807.529 753.543 805.748L766.686 792.605C768.655 790.636 771.326 789.53 774.11 789.53H837.591C838.655 789.53 839.468 788.594 839.468 787.53C839.468 786.191 838.466 784.983 837.128 784.971L788.964 784.53C788.763 784.528 788.581 784.406 788.505 784.22C788.429 784.033 788.472 783.819 788.614 783.677L789.621 782.67L817.621 755.67L817.696 755.61C817.777 755.558 817.871 755.53 817.968 755.53H831.194C832.497 755.53 833.468 754.334 833.468 753.03C833.468 751.975 832.669 751.03 831.613 751.03H818.274C816.93 751.03 815.641 751.564 814.69 752.514L814.37 752.834C814.368 752.837 814.365 752.839 814.363 752.843C814.362 752.844 814.361 752.846 814.359 752.848L785.266 782.895L785.263 782.898C783.289 784.902 780.594 786.03 777.781 786.03H772.534C770.057 786.03 767.678 786.998 765.904 788.727L752.23 802.051C750.269 803.961 747.639 805.03 744.901 805.03H725.561C722.807 805.03 720.163 803.948 718.199 802.017L692.042 776.296C691.459 775.723 690.805 775.227 690.095 774.821L690.025 774.782C688.59 773.962 686.966 773.53 685.313 773.53H647.088C644.304 773.53 641.66 774.752 639.855 776.872C639.855 776.872 639.854 776.872 639.854 776.872C639.854 776.871 639.853 776.871 639.853 776.872L632.891 785.105C632.232 785.885 632.327 787.04 633.001 787.809C633.828 788.752 635.332 788.91 636.179 787.986L643.131 780.399L643.133 780.397C645.12 778.251 647.913 777.03 650.838 777.03H684.154C687.045 777.03 689.808 778.222 691.792 780.325L713.832 803.688C713.929 803.79 713.972 803.924 713.966 804.055C713.977 804.216 713.91 804.379 713.773 804.484C652.32 851.698 593.716 842.204 564.466 813.201C549.849 798.708 542.578 779.34 546.02 759.811C549.462 740.277 563.604 720.681 591.614 705.682C592.366 705.279 593.206 704.958 594.034 704.755C611.811 701.778 665.97 684.414 688.867 679.412C691.301 678.88 692.788 676.363 692 674C695 672.5 698 671.79 698 671C698 670.078 691.642 664.347 686.348 662.543C684.547 661.93 682.648 662.542 681.043 663.563L672.5 669L617.985 693.833C617.714 693.956 617.388 694.107 617.155 693.921C617.037 693.826 616.968 693.682 616.968 693.53V640.788C616.968 638.487 616.133 636.264 614.617 634.532L598.099 615.657C596.424 613.743 595.5 611.286 595.5 608.742V600.121ZM605.5 561C605.5 552.992 599.008 546.5 591 546.5C582.992 546.5 576.5 552.992 576.5 561C576.5 569.008 582.992 575.5 591 575.5C599.008 575.5 605.5 569.008 605.5 561ZM599.5 561C599.5 565.694 595.694 569.5 591 569.5C586.306 569.5 582.5 565.694 582.5 561C582.5 556.306 586.306 552.5 591 552.5C595.694 552.5 599.5 556.306 599.5 561ZM708.5 517C708.5 508.992 702.008 502.5 694 502.5C685.992 502.5 679.5 508.992 679.5 517C679.5 525.008 685.992 531.5 694 531.5C702.008 531.5 708.5 525.008 708.5 517ZM703.5 517C703.5 522.247 699.247 526.5 694 526.5C688.753 526.5 684.5 522.247 684.5 517C684.5 511.753 688.753 507.5 694 507.5C699.247 507.5 703.5 511.753 703.5 517ZM710.862 516.009C710.862 524.569 703.923 531.509 695.362 531.509C694.304 531.509 693.27 531.403 692.271 531.2C688.514 530.439 684.426 529.953 681.088 531.837L677.665 533.769C676.223 534.58 674.609 535.039 672.956 535.108L643.826 536.33C640.85 536.455 638.104 537.969 636.41 540.419L599.549 593.727C598.451 595.314 597.862 597.199 597.862 599.13V607.751C597.862 610.052 598.698 612.276 600.214 614.008L616.731 632.882C618.407 634.796 619.33 637.253 619.33 639.797L619.806 675.817C619.899 682.867 627.065 687.61 633.591 684.94L685.217 663.821C685.738 663.607 686.284 663.45 686.832 663.578C688.149 663.884 690.55 664.899 692.945 666.104C697.245 668.266 696.813 674 692 674L675.5 679.5L595.635 704.734C594.888 704.917 594.127 705.21 593.449 705.572C565.635 720.467 551.743 739.836 548.366 758.993C544.989 778.154 552.113 797.202 566.532 811.5C593.87 838.607 647.479 848.634 705.1 809.515C710.008 806.183 710.574 799.256 706.503 794.941L692.427 780.02C690.632 778.117 688.132 777.039 685.517 777.039H652.2C649.554 777.039 647.027 778.142 645.229 780.083L640.74 784.983C638.097 787.868 637.83 792.127 637.83 796.039C637.83 803.771 631.562 810.039 623.83 810.039C616.098 810.039 609.83 803.771 609.83 796.039C609.83 788.307 616.098 782.039 623.83 782.039C628.923 782.039 634.87 781.836 638.159 777.947L640.454 775.233L640.455 775.232C642.45 772.889 645.373 771.539 648.45 771.539H686.675C688.502 771.539 690.297 772.016 691.884 772.923L691.953 772.962C692.738 773.41 693.461 773.958 694.105 774.592L720.263 800.312C722.039 802.06 724.431 803.039 726.923 803.039H746.264C748.741 803.039 751.12 802.071 752.894 800.343L766.569 787.019C768.53 785.108 771.159 784.039 773.896 784.039H779.144C781.688 784.039 784.127 783.018 785.912 781.205L814.962 751.202C814.967 751.197 814.971 751.191 814.977 751.186L816.977 749.186L817.053 749.123C817.134 749.069 817.231 749.039 817.33 749.039H827.266C831.903 749.039 835.711 745.437 839.168 742.346C841.467 740.289 844.503 739.039 847.83 739.039C855.01 739.039 860.83 744.859 860.83 752.039C860.83 759.219 855.01 765.039 847.83 765.039C844.573 765.039 841.596 763.841 839.315 761.862C835.925 758.92 832.203 755.539 827.715 755.539H823.569C820.98 755.539 818.492 756.543 816.628 758.341L791.678 782.399C791.678 782.399 791.678 782.399 791.677 782.399C791.677 782.399 791.677 782.399 791.676 782.399L791.632 782.443C791.592 782.483 791.62 782.551 791.676 782.551L833.225 782.932C837.907 782.974 841.774 779.446 844.955 776.01C847.786 772.953 851.835 771.039 856.33 771.039C856.668 771.039 857.003 771.05 857.336 771.071C858.247 771.129 859.167 771.095 860.047 770.852C860.783 770.649 861.482 770.315 862.098 769.864C881.198 755.884 891.018 740.823 894.98 726.197C899.017 711.298 896.991 696.797 892.423 684.273C887.854 671.747 880.749 661.221 874.666 654.299C871.622 650.835 868.848 648.291 866.792 646.851C865.755 646.124 864.943 645.708 864.392 645.572C864.115 645.504 863.966 645.522 863.901 645.546C863.871 645.557 863.839 645.572 863.813 645.668C863.297 647.607 862.083 650.152 860.58 652.853C859.072 655.563 857.252 658.465 855.498 661.127C853.744 663.789 852.053 666.216 850.801 667.978C850.175 668.858 849.657 669.573 849.297 670.067C849.213 670.183 849.137 670.286 849.07 670.377L849.062 670.389L848.994 670.48L850.588 671.994C853.596 674.849 858.183 675.039 862.33 675.039C869.786 675.039 875.83 681.083 875.83 688.539C875.83 695.995 869.786 702.039 862.33 702.039C854.874 702.039 848.83 695.995 848.83 688.539C848.83 687.841 848.883 687.156 848.985 686.486C849.525 682.949 848.918 678.777 845.868 676.906L840.858 673.833C840.158 673.404 840.031 672.439 840.596 671.843L841.003 671.414C841.27 671.132 841.199 670.582 841.416 670.26L842.439 668.741C858.774 642.908 864.4 624.05 860.164 607.786C855.924 591.506 841.765 577.658 818.055 561.956C817.964 561.896 817.894 561.807 817.858 561.704C810.945 541.917 803.296 529.549 791.521 522.592C779.733 515.626 763.706 514.022 739.872 516.037C739.737 516.048 739.603 516.004 739.501 515.915C721.677 500.31 707.354 492.32 692.962 491.567C678.574 490.815 663.991 497.291 645.629 510.94C645.487 511.046 645.3 511.069 645.138 511.001C622.413 501.526 605.92 498.597 592.027 502.858C578.139 507.119 566.722 518.606 554.253 538.307C554.157 538.459 553.986 538.547 553.806 538.538C526.399 537.2 508.153 539.902 495.457 549.405C482.767 558.904 475.508 575.286 470.321 601.636C470.285 601.818 470.15 601.966 469.972 602.019C457.029 605.833 448.318 610.199 441.746 616.793C435.323 623.238 430.899 631.856 426.608 644.307C426.415 644.87 426.273 645.452 426.187 646.041C424.631 656.73 424.294 665.099 426 673.39C427.7 681.651 431.439 689.873 438.096 700.255L438.749 701.267L438.797 701.359C438.809 701.392 438.819 701.426 438.824 701.46C442.394 723.703 447.585 737.578 456.843 745.718C465.447 753.283 477.664 755.978 495.68 755.659C498.16 755.615 500.477 754.438 502.033 752.507L505.778 747.857C508.796 744.111 506.13 738.539 501.319 738.539C498.631 738.539 496.045 737.507 494.094 735.657L484.046 726.184C480.586 722.923 475.195 723.001 470.44 723.039C470.404 723.039 470.367 723.039 470.33 723.039C462.874 723.039 456.83 716.995 456.83 709.539C456.83 702.083 462.874 696.039 470.33 696.039C477.786 696.039 483.83 702.083 483.83 709.539C483.83 713.674 484.02 718.247 486.864 721.249L494.732 729.556L494.733 729.557C496.528 731.46 499.029 732.539 501.646 732.539H547.321C549.651 732.539 551.822 731.358 553.088 729.402C554.883 726.626 554.447 722.966 552.05 720.69L499.748 671.024C498.058 669.42 495.837 668.492 493.508 668.418L471.458 667.715C467.686 667.594 464.334 669.926 461.18 671.996C459.212 673.288 456.859 674.039 454.33 674.039C447.427 674.039 441.83 668.443 441.83 661.539C441.83 654.636 447.427 649.039 454.33 649.039C457.841 649.039 461.014 650.487 463.285 652.818C466.897 656.527 470.781 661.226 475.952 661.482L493.715 662.36C496.183 662.482 498.53 663.47 500.342 665.151L554.286 715.212C557.594 718.282 562.548 718.756 566.377 716.369L583.716 705.564C588.803 702.394 589.718 695.364 585.613 690.996L549.68 652.769C547.849 650.821 546.83 648.25 546.83 645.577V644.602C546.83 639.965 543.229 636.157 540.137 632.701C538.08 630.402 536.83 627.367 536.83 624.039C536.83 616.859 542.65 611.039 549.83 611.039C557.01 611.039 562.83 616.859 562.83 624.039C562.83 627.551 561.437 630.738 559.174 633.077C555.805 636.559 551.83 640.461 551.83 645.305C551.83 647.876 552.872 650.338 554.719 652.127L596.112 692.24C598.508 694.562 601.948 695.457 605.172 694.598L605.296 694.574C610.046 693.663 613.463 689.483 613.411 684.647L612.96 642.101C612.9 639.903 612.08 637.794 610.639 636.133L592.899 615.687C591.243 613.777 590.33 611.334 590.33 608.806V584.151C590.33 579.13 586.252 575.114 582.405 571.887C579.017 569.044 576.862 564.778 576.862 560.009C576.862 551.448 583.802 544.509 592.362 544.509C600.923 544.509 607.862 551.448 607.862 560.009C607.862 566.398 603.996 571.883 598.475 574.255C597.284 574.766 596.398 575.873 596.391 577.17C596.374 579.958 599.933 581.142 601.591 578.899L633.621 535.542C635.487 533.016 638.386 531.458 641.521 531.295L672.48 529.687C674.234 529.595 675.928 529.02 677.374 528.024C677.375 528.024 677.375 528.023 677.376 528.023C677.377 528.023 677.377 528.023 677.378 528.023L678.586 527.195C680.72 525.734 681.201 522.831 680.478 520.347C680.077 518.97 679.862 517.515 679.862 516.009C679.862 507.448 686.802 500.509 695.362 500.509C703.923 500.509 710.862 507.448 710.862 516.009Z" fill="url(#paint13_linear_4_7)"/>
<path d="M460.468 662.53C460.468 658.388 457.11 655.03 452.968 655.03C448.826 655.03 445.468 658.388 445.468 662.53C445.468 666.672 448.826 670.03 452.968 670.03C457.11 670.03 460.468 666.672 460.468 662.53Z" fill="url(#paint14_linear_4_7)"/>
<path d="M555.468 625.03C555.468 621.164 552.334 618.03 548.468 618.03C544.602 618.03 541.468 621.164 541.468 625.03C541.468 628.896 544.602 632.03 548.468 632.03C552.334 632.03 555.468 628.896 555.468 625.03Z" fill="url(#paint15_linear_4_7)"/>
<path d="M598.5 561C598.5 556.858 595.142 553.5 591 553.5C586.858 553.5 583.5 556.858 583.5 561C583.5 565.142 586.858 568.5 591 568.5C595.142 568.5 598.5 565.142 598.5 561Z" fill="url(#paint16_linear_4_7)"/>
<path d="M702.5 517C702.5 512.306 698.694 508.5 694 508.5C689.306 508.5 685.5 512.306 685.5 517C685.5 521.694 689.306 525.5 694 525.5C698.694 525.5 702.5 521.694 702.5 517Z" fill="url(#paint17_linear_4_7)"/>
<path d="M868.468 689.53C868.468 685.388 865.11 682.03 860.968 682.03C856.826 682.03 853.468 685.388 853.468 689.53C853.468 693.672 856.826 697.03 860.968 697.03C865.11 697.03 868.468 693.672 868.468 689.53Z" fill="url(#paint18_linear_4_7)"/>
<path d="M629.468 797.03C629.468 793.164 626.334 790.03 622.468 790.03C618.602 790.03 615.468 793.164 615.468 797.03C615.468 800.896 618.602 804.03 622.468 804.03C626.334 804.03 629.468 800.896 629.468 797.03Z" fill="url(#paint19_linear_4_7)"/>
<path d="M696.705 648.352L695.843 642.92L692.408 643.465L691.428 646.801L696.705 648.352ZM727.401 643.481L728.263 648.913L731.227 648.443L732.436 645.695L727.401 643.481ZM838.5 498L843.94 497.188L842.308 486.253L834.571 494.151L838.5 498ZM810.571 518.651C808.445 520.821 808.481 524.303 810.651 526.429C812.821 528.555 816.303 528.519 818.429 526.349L814.5 522.5L810.571 518.651ZM838.06 532.312C838.509 535.316 841.308 537.388 844.312 536.94C847.316 536.491 849.388 533.692 848.94 530.688L843.5 531.5L838.06 532.312ZM690.967 667.877L694.168 672.349L695.709 671.246L696.244 669.427L690.967 667.877ZM745.727 601.809L744.035 596.576L741.686 597.335L740.692 599.595L745.727 601.809ZM789.251 587.738L790.943 592.971L792.775 592.379L793.838 590.773L789.251 587.738ZM808.952 557.972L804.535 554.694L804.447 554.813L804.366 554.936L808.952 557.972ZM826 535L830.417 538.278L830.933 537.582L831.211 536.76L826 535ZM838.5 498L834.571 494.151L810.571 518.651L814.5 522.5L818.429 526.349L842.429 501.849L838.5 498ZM838.5 498L833.06 498.812L838.06 532.312L843.5 531.5L848.94 530.688L843.94 497.188L838.5 498ZM688 670L691.201 674.473L694.168 672.349L690.967 667.877L687.766 663.404L684.799 665.527L688 670ZM690.967 667.877L696.244 669.427L701.982 649.903L696.705 648.352L691.428 646.801L685.69 666.326L690.967 667.877ZM696.705 648.352L697.567 653.784L728.263 648.913L727.401 643.481L726.539 638.049L695.843 642.92L696.705 648.352ZM727.401 643.481L732.436 645.695L750.762 604.023L745.727 601.809L740.692 599.595L722.366 641.267L727.401 643.481ZM745.727 601.809L747.419 607.042L790.943 592.971L789.251 587.738L787.56 582.505L744.035 596.576L745.727 601.809ZM789.251 587.738L793.838 590.773L813.538 561.008L808.952 557.972L804.366 554.936L784.665 584.702L789.251 587.738ZM808.952 557.972L813.369 561.25L830.417 538.278L826 535L821.583 531.722L804.535 554.694L808.952 557.972ZM826 535L831.211 536.76L843.711 499.76L838.5 498L833.289 496.24L820.789 533.24L826 535Z" fill="url(#paint20_linear_4_7)"/>
<rect x="650" y="501" width="76" height="63" rx="16" fill="url(#paint21_linear_4_7)"/>
<ellipse cx="661" cy="583.5" rx="56" ry="55.5" fill="url(#paint22_linear_4_7)"/>
<ellipse cx="602.5" cy="589.5" rx="7.5" ry="17.5" fill="url(#paint23_linear_4_7)"/>
<rect x="589.237" y="576.2" width="5.40113" height="36.7117" rx="2.70057" transform="rotate(-1.98953 589.237 576.2)" fill="#F5F5F5"/>
<path d="M594.999 593.022C594.48 575.183 595.596 584.392 595.817 593.001L596.267 608.021C596.267 608.021 595.844 615.078 595.449 608.042C595.053 601.006 595.517 610.861 594.999 593.022Z" fill="url(#paint24_linear_4_7)"/>
<defs>
<linearGradient id="paint0_linear_4_7" x1="713.02" y1="887.52" x2="713.02" y2="1104.52" gradientUnits="userSpaceOnUse">
<stop offset="0.288732" stop-color="#B74DCD"/>
<stop offset="0.369087" stop-color="#A546B9"/>
<stop offset="0.458785" stop-color="#743082"/>
<stop offset="0.56904" stop-color="#2F1535"/>
</linearGradient>
<linearGradient id="paint1_linear_4_7" x1="713.02" y1="887.52" x2="713.02" y2="1104.52" gradientUnits="userSpaceOnUse">
<stop offset="0.298962" stop-color="#B74DCD"/>
<stop offset="0.400585" stop-color="#943FA6"/>
<stop offset="0.49468" stop-color="#7A3589"/>
<stop offset="0.564626" stop-color="#2C1431"/>
</linearGradient>
<linearGradient id="paint2_linear_4_7" x1="713.02" y1="887.56" x2="713.02" y2="1104.56" gradientUnits="userSpaceOnUse">
<stop offset="0.293927" stop-color="#B74DCC"/>
<stop offset="0.354212" stop-color="#A044B3"/>
<stop offset="0.417008" stop-color="#9241A2"/>
<stop offset="0.477293" stop-color="#873E96"/>
<stop offset="0.538362" stop-color="#622170"/>
<stop offset="0.538462" stop-color="#61216F"/>
<stop offset="0.572743" stop-color="#34163A"/>
<stop offset="0.610477" stop-color="#3E297F"/>
<stop offset="0.658146" stop-color="#4E2C83"/>
<stop offset="0.697115" stop-color="#5B2F86"/>
<stop offset="0.756109" stop-color="#5B2F86"/>
</linearGradient>
<linearGradient id="paint3_linear_4_7" x1="713.02" y1="887.52" x2="713.02" y2="1104.52" gradientUnits="userSpaceOnUse">
<stop offset="0.177751" stop-color="#B54CCB"/>
<stop offset="0.274531" stop-color="#903EA0"/>
<stop offset="0.274631" stop-color="#9640A7"/>
<stop offset="0.364202" stop-color="#893F98"/>
<stop offset="0.490385" stop-color="#763284"/>
<stop offset="0.582884" stop-color="#34163A"/>
</linearGradient>
<linearGradient id="paint4_linear_4_7" x1="713.02" y1="887.52" x2="713.02" y2="1104.52" gradientUnits="userSpaceOnUse">
<stop offset="0.28373" stop-color="#B74DCD"/>
<stop offset="0.336059" stop-color="#A847BD"/>
<stop offset="0.417171" stop-color="#9240A3"/>
<stop offset="0.482583" stop-color="#732F81"/>
<stop offset="0.561078" stop-color="#3D1844"/>
</linearGradient>
<linearGradient id="paint5_linear_4_7" x1="713.02" y1="887.52" x2="713.02" y2="1104.52" gradientUnits="userSpaceOnUse">
<stop offset="0.303873" stop-color="#B74DCC"/>
<stop offset="0.400263" stop-color="#8F3D9F"/>
<stop offset="0.496652" stop-color="#853F94"/>
<stop offset="0.577182" stop-color="#331639"/>
</linearGradient>
<linearGradient id="paint6_linear_4_7" x1="659.644" y1="491.5" x2="659.644" y2="922.417" gradientUnits="userSpaceOnUse">
<stop stop-color="#B84DCE"/>
<stop offset="0.149038" stop-color="#AD49C2"/>
<stop offset="0.302885" stop-color="#8C3C9D"/>
<stop offset="0.394231" stop-color="#9540A7"/>
<stop offset="0.543269" stop-color="#843E92"/>
<stop offset="0.682692" stop-color="#672374"/>
<stop offset="0.8125" stop-color="#4E1D58"/>
<stop offset="1" stop-color="#2B1430"/>
</linearGradient>
<linearGradient id="paint7_linear_4_7" x1="659.644" y1="491.5" x2="659.644" y2="922.417" gradientUnits="userSpaceOnUse">
<stop stop-color="#B84DCE"/>
<stop offset="0.149038" stop-color="#AD49C2"/>
<stop offset="0.302885" stop-color="#8C3C9D"/>
<stop offset="0.394231" stop-color="#9540A7"/>
<stop offset="0.543269" stop-color="#843E92"/>
<stop offset="0.682692" stop-color="#672374"/>
<stop offset="0.8125" stop-color="#4E1D58"/>
<stop offset="1" stop-color="#2B1430"/>
</linearGradient>
<linearGradient id="paint8_linear_4_7" x1="659.644" y1="491.5" x2="659.644" y2="922.417" gradientUnits="userSpaceOnUse">
<stop stop-color="#B84DCE"/>
<stop offset="0.149038" stop-color="#AD49C2"/>
<stop offset="0.302885" stop-color="#8C3C9D"/>
<stop offset="0.394231" stop-color="#9540A7"/>
<stop offset="0.543269" stop-color="#843E92"/>
<stop offset="0.682692" stop-color="#672374"/>
<stop offset="0.8125" stop-color="#4E1D58"/>
<stop offset="1" stop-color="#2B1430"/>
</linearGradient>
<linearGradient id="paint9_linear_4_7" x1="659.644" y1="491.5" x2="659.644" y2="922.417" gradientUnits="userSpaceOnUse">
<stop stop-color="#B84DCE"/>
<stop offset="0.149038" stop-color="#AD49C2"/>
<stop offset="0.302885" stop-color="#8C3C9D"/>
<stop offset="0.394231" stop-color="#9540A7"/>
<stop offset="0.543269" stop-color="#843E92"/>
<stop offset="0.682692" stop-color="#672374"/>
<stop offset="0.8125" stop-color="#4E1D58"/>
<stop offset="1" stop-color="#2B1430"/>
</linearGradient>
<linearGradient id="paint10_linear_4_7" x1="659.644" y1="491.5" x2="659.644" y2="922.417" gradientUnits="userSpaceOnUse">
<stop stop-color="#B84DCE"/>
<stop offset="0.149038" stop-color="#AD49C2"/>
<stop offset="0.302885" stop-color="#8C3C9D"/>
<stop offset="0.394231" stop-color="#9540A7"/>
<stop offset="0.543269" stop-color="#843E92"/>
<stop offset="0.682692" stop-color="#672374"/>
<stop offset="0.8125" stop-color="#4E1D58"/>
<stop offset="1" stop-color="#2B1430"/>
</linearGradient>
<linearGradient id="paint11_linear_4_7" x1="659.644" y1="491.5" x2="659.644" y2="922.417" gradientUnits="userSpaceOnUse">
<stop stop-color="#B84DCE"/>
<stop offset="0.149038" stop-color="#AD49C2"/>
<stop offset="0.302885" stop-color="#8C3C9D"/>
<stop offset="0.394231" stop-color="#9540A7"/>
<stop offset="0.543269" stop-color="#843E92"/>
<stop offset="0.682692" stop-color="#672374"/>
<stop offset="0.8125" stop-color="#4E1D58"/>
<stop offset="1" stop-color="#2B1430"/>
</linearGradient>
<linearGradient id="paint12_linear_4_7" x1="659.644" y1="491.5" x2="659.644" y2="922.417" gradientUnits="userSpaceOnUse">
<stop stop-color="#B84DCE"/>
<stop offset="0.149038" stop-color="#AD49C2"/>
<stop offset="0.302885" stop-color="#8C3C9D"/>
<stop offset="0.394231" stop-color="#9540A7"/>
<stop offset="0.543269" stop-color="#843E92"/>
<stop offset="0.682692" stop-color="#672374"/>
<stop offset="0.8125" stop-color="#4E1D58"/>
<stop offset="1" stop-color="#2B1430"/>
</linearGradient>
<linearGradient id="paint13_linear_4_7" x1="659.644" y1="491.5" x2="659.644" y2="922.417" gradientUnits="userSpaceOnUse">
<stop stop-color="#B84DCE"/>
<stop offset="0.149038" stop-color="#AD49C2"/>
<stop offset="0.302885" stop-color="#8C3C9D"/>
<stop offset="0.394231" stop-color="#9540A7"/>
<stop offset="0.543269" stop-color="#843E92"/>
<stop offset="0.682692" stop-color="#672374"/>
<stop offset="0.8125" stop-color="#4E1D58"/>
<stop offset="1" stop-color="#2B1430"/>
</linearGradient>
<linearGradient id="paint14_linear_4_7" x1="659.644" y1="491.5" x2="659.644" y2="922.417" gradientUnits="userSpaceOnUse">
<stop stop-color="#B84DCE"/>
<stop offset="0.149038" stop-color="#AD49C2"/>
<stop offset="0.302885" stop-color="#8C3C9D"/>
<stop offset="0.394231" stop-color="#9540A7"/>
<stop offset="0.543269" stop-color="#843E92"/>
<stop offset="0.682692" stop-color="#672374"/>
<stop offset="0.8125" stop-color="#4E1D58"/>
<stop offset="1" stop-color="#2B1430"/>
</linearGradient>
<linearGradient id="paint15_linear_4_7" x1="659.644" y1="491.5" x2="659.644" y2="922.417" gradientUnits="userSpaceOnUse">
<stop stop-color="#B84DCE"/>
<stop offset="0.149038" stop-color="#AD49C2"/>
<stop offset="0.302885" stop-color="#8C3C9D"/>
<stop offset="0.394231" stop-color="#9540A7"/>
<stop offset="0.543269" stop-color="#843E92"/>
<stop offset="0.682692" stop-color="#672374"/>
<stop offset="0.8125" stop-color="#4E1D58"/>
<stop offset="1" stop-color="#2B1430"/>
</linearGradient>
<linearGradient id="paint16_linear_4_7" x1="659.644" y1="491.5" x2="659.644" y2="922.417" gradientUnits="userSpaceOnUse">
<stop stop-color="#B84DCE"/>
<stop offset="0.149038" stop-color="#AD49C2"/>
<stop offset="0.302885" stop-color="#8C3C9D"/>
<stop offset="0.394231" stop-color="#9540A7"/>
<stop offset="0.543269" stop-color="#843E92"/>
<stop offset="0.682692" stop-color="#672374"/>
<stop offset="0.8125" stop-color="#4E1D58"/>
<stop offset="1" stop-color="#2B1430"/>
</linearGradient>
<linearGradient id="paint17_linear_4_7" x1="659.644" y1="491.5" x2="659.644" y2="922.417" gradientUnits="userSpaceOnUse">
<stop stop-color="#B84DCE"/>
<stop offset="0.149038" stop-color="#AD49C2"/>
<stop offset="0.302885" stop-color="#8C3C9D"/>
<stop offset="0.394231" stop-color="#9540A7"/>
<stop offset="0.543269" stop-color="#843E92"/>
<stop offset="0.682692" stop-color="#672374"/>
<stop offset="0.8125" stop-color="#4E1D58"/>
<stop offset="1" stop-color="#2B1430"/>
</linearGradient>
<linearGradient id="paint18_linear_4_7" x1="659.644" y1="491.5" x2="659.644" y2="922.417" gradientUnits="userSpaceOnUse">
<stop stop-color="#B84DCE"/>
<stop offset="0.149038" stop-color="#AD49C2"/>
<stop offset="0.302885" stop-color="#8C3C9D"/>
<stop offset="0.394231" stop-color="#9540A7"/>
<stop offset="0.543269" stop-color="#843E92"/>
<stop offset="0.682692" stop-color="#672374"/>
<stop offset="0.8125" stop-color="#4E1D58"/>
<stop offset="1" stop-color="#2B1430"/>
</linearGradient>
<linearGradient id="paint19_linear_4_7" x1="659.644" y1="491.5" x2="659.644" y2="922.417" gradientUnits="userSpaceOnUse">
<stop stop-color="#B84DCE"/>
<stop offset="0.149038" stop-color="#AD49C2"/>
<stop offset="0.302885" stop-color="#8C3C9D"/>
<stop offset="0.394231" stop-color="#9540A7"/>
<stop offset="0.543269" stop-color="#843E92"/>
<stop offset="0.682692" stop-color="#672374"/>
<stop offset="0.8125" stop-color="#4E1D58"/>
<stop offset="1" stop-color="#2B1430"/>
</linearGradient>
<linearGradient id="paint20_linear_4_7" x1="659.11" y1="684.914" x2="819.216" y2="526.523" gradientUnits="userSpaceOnUse">
<stop offset="0.197115" stop-color="#F5F5F5"/>
<stop offset="0.3125" stop-color="#EBEBEB" stop-opacity="0.6"/>
<stop offset="0.442308" stop-color="#E0DFDF" stop-opacity="0.5"/>
<stop offset="0.543269" stop-color="#D1CFCF" stop-opacity="0.4"/>
<stop offset="0.692308" stop-color="#CAC8C8" stop-opacity="0.3"/>
<stop offset="0.846154" stop-color="#B74DCC"/>
</linearGradient>
<linearGradient id="paint21_linear_4_7" x1="687.971" y1="501" x2="687.971" y2="564" gradientUnits="userSpaceOnUse">
<stop stop-color="#B84DCE"/>
<stop offset="1" stop-color="#AC48C0"/>
</linearGradient>
<linearGradient id="paint22_linear_4_7" x1="660.957" y1="528" x2="660.957" y2="639" gradientUnits="userSpaceOnUse">
<stop stop-color="#B24BC7"/>
<stop offset="0.248116" stop-color="#AE48C2"/>
<stop offset="0.331731" stop-color="#A947BD"/>
<stop offset="0.664765" stop-color="#9741A9"/>
<stop offset="0.82866" stop-color="#8F3D9F"/>
<stop offset="1" stop-color="#8F3D9F"/>
</linearGradient>
<linearGradient id="paint23_linear_4_7" x1="602.494" y1="572" x2="602.494" y2="607" gradientUnits="userSpaceOnUse">
<stop stop-color="#A445B7"/>
<stop offset="0.183142" stop-color="#A344B6"/>
<stop offset="0.341346" stop-color="#A044B3"/>
<stop offset="0.50347" stop-color="#9D43B0"/>
<stop offset="0.658055" stop-color="#9B42AD"/>
<stop offset="0.805469" stop-color="#9841AA"/>
<stop offset="0.898699" stop-color="#9540A7"/>
<stop offset="1" stop-color="#943FA5"/>
</linearGradient>
<linearGradient id="paint24_linear_4_7" x1="595.491" y1="593.01" x2="595.91" y2="608.031" gradientUnits="userSpaceOnUse">
<stop stop-color="#B84DCE"/>
<stop offset="0.149038" stop-color="#AD49C2"/>
<stop offset="0.302885" stop-color="#8C3C9D"/>
</linearGradient>
</defs>
</svg>
