<svg xmlns="http://www.w3.org/2000/svg" viewBox="400 450 520 520" fill="none">
  <rect x="400" y="450" width="520" height="520" fill="#FFF"/>
  <path d="M774.11 790.53C771.591 790.53 769.174 791.531 767.392 793.312L754.251 806.455C752.282 808.424 749.611 809.53 746.826 809.53H723.799C722.041 809.53 720.316 810.018 718.819 810.939L713.472 814.23C707.846 817.692 707.063 825.56 711.895 830.063L743.711 859.71C745.018 860.928 746.628 861.778 748.376 862.147C776.536 868.096 795.811 867.748 810.532 858.771C824.742 850.106 834.823 833.332 844.479 806.034C845.642 802.748 844.23 799.235 842.238 796.374C840.133 793.349 837.101 790.53 833.415 790.53H774.11Z" fill="url(#paint25_linear_4_7)"/>
  <path d="M671.879 834.192C669.006 835.603 668.484 839.477 670.879 841.6L704.8 871.656L704.856 871.716C704.874 871.737 704.889 871.76 704.903 871.784L730.762 917.603C732.259 920.257 735.215 921.741 738.238 921.357L758.096 918.835C760.988 918.468 762.773 915.491 761.734 912.768L746.613 873.123C745.921 871.311 744.719 869.74 743.15 868.599L740.174 866.435C740.162 866.426 740.152 866.418 740.141 866.409C740.135 866.403 740.129 866.397 740.123 866.392L696.039 824.267C695.544 823.794 694.887 823.53 694.202 823.53C693.796 823.53 693.395 823.623 693.03 823.803L671.879 834.192Z" fill="url(#paint26_linear_4_7)"/>
  <path fill-rule="evenodd" clip-rule="evenodd" d="M710.862 516.009C710.862 524.569 703.922 531.509 695.362 531.509C694.303 531.509 693.27 531.403 692.271 531.2C688.514 530.439 684.425 529.953 681.087 531.837L677.665 533.769C676.223 534.58 674.609 535.039 672.956 535.108L643.826 536.33C640.85 536.455 638.104 537.969 636.41 540.419L599.549 593.727C598.451 595.314 597.862 597.199 597.862 599.13V607.751C597.862 610.052 598.698 612.276 600.214 614.008L616.731 632.882C618.406 634.796 619.33 637.253 619.33 639.797L620.928 687.368C620.969 688.58 621.918 689.566 623.128 689.652C625.714 689.837 643.273 686.432 645.617 685.325C660.474 678.309 687.107 665.993 701.187 659.965C706.264 657.791 710.072 661.024 708.081 666.176C707.15 668.587 705.848 670.5 704 670.5L702.255 669.337C699.583 667.555 696.218 667.166 693.209 668.289L595.635 704.734C594.888 704.917 594.126 705.21 593.449 705.572C565.635 720.467 551.742 739.836 548.366 758.993C544.989 778.154 552.113 797.202 566.532 811.5C593.869 838.607 647.479 848.634 705.099 809.515C710.007 806.183 710.574 799.256 706.503 794.941L692.427 780.02C690.632 778.117 688.132 777.039 685.516 777.039H652.2C649.554 777.039 647.027 778.142 645.229 780.083L640.74 784.984C638.097 787.868 637.83 792.127 637.83 796.039C637.83 803.771 631.562 810.039 623.83 810.039C616.098 810.039 609.83 803.771 609.83 796.039C609.83 788.307 616.098 782.039 623.83 782.039C628.923 782.039 634.869 781.836 638.159 777.947L640.454 775.233L640.455 775.232C642.45 772.889 645.373 771.539 648.45 771.539H686.675C688.502 771.539 690.297 772.016 691.884 772.923L691.953 772.962C692.737 773.41 693.461 773.958 694.105 774.592L720.262 800.312C722.039 802.06 724.431 803.039 726.923 803.039H746.263C748.74 803.039 751.119 802.071 752.893 800.343L766.569 787.019C768.53 785.108 771.159 784.039 773.896 784.039H779.143C781.688 784.039 784.126 783.018 785.912 781.205L814.962 751.202C814.967 751.197 814.971 751.191 814.976 751.186L816.976 749.186L817.052 749.123C817.134 749.069 817.23 749.039 817.33 749.039H827.266C831.903 749.039 835.711 745.437 839.168 742.346C841.467 740.289 844.502 739.039 847.83 739.039C855.01 739.039 860.83 744.859 860.83 752.039C860.83 759.219 855.01 765.039 847.83 765.039C844.573 765.039 841.596 763.841 839.315 761.862C835.925 758.92 832.203 755.539 827.715 755.539H823.569C820.98 755.539 818.491 756.543 816.628 758.341L791.678 782.399C791.678 782.399 791.677 782.399 791.677 782.399C791.677 782.399 791.676 782.399 791.676 782.399L791.632 782.443C791.592 782.483 791.62 782.551 791.676 782.551L833.224 782.932C837.906 782.974 841.774 779.446 844.955 776.01C847.786 772.953 851.834 771.039 856.33 771.039C856.668 771.039 857.003 771.05 857.336 771.071C858.246 771.129 859.167 771.095 860.046 770.852C860.782 770.649 861.481 770.315 862.097 769.864C881.198 755.884 891.018 740.823 894.98 726.197C899.017 711.298 896.991 696.797 892.423 684.273C887.854 671.747 880.749 661.221 874.666 654.299C871.622 650.835 868.848 648.291 866.792 646.851C865.755 646.124 864.942 645.708 864.391 645.572C864.115 645.504 863.965 645.522 863.901 645.546C863.871 645.557 863.839 645.572 863.813 645.668C863.296 647.607 862.083 650.152 860.58 652.853C859.071 655.563 857.251 658.465 855.498 661.127C853.744 663.789 852.053 666.216 850.801 667.978C850.174 668.858 849.657 669.573 849.297 670.067C849.212 670.183 849.137 670.286 849.07 670.377C849.067 670.381 849.064 670.385 849.061 670.389L848.994 670.48L850.588 671.994C853.595 674.849 858.183 675.039 862.33 675.039C869.786 675.039 875.83 681.083 875.83 688.539C875.83 695.995 869.786 702.039 862.33 702.039C854.874 702.039 848.83 695.995 848.83 688.539C848.83 687.841 848.883 687.156 848.985 686.486C849.525 682.949 848.917 678.777 845.867 676.906L840.858 673.833C840.158 673.404 840.031 672.439 840.596 671.843L841.003 671.414C841.27 671.132 841.198 670.582 841.416 670.26L842.439 668.741C858.774 642.908 864.4 624.05 860.164 607.786C855.924 591.506 841.764 577.658 818.054 561.956C817.963 561.896 817.894 561.807 817.858 561.704C810.944 541.917 803.296 529.549 791.521 522.592C779.733 515.626 763.706 514.022 739.872 516.037C739.737 516.048 739.603 516.004 739.501 515.915C721.677 500.31 707.354 492.32 692.962 491.567C678.574 490.815 663.991 497.291 645.629 510.94C645.487 511.046 645.3 511.069 645.137 511.001C622.413 501.526 605.919 498.597 592.027 502.858C578.139 507.119 566.721 518.606 554.253 538.307C554.156 538.459 553.985 538.547 553.805 538.538C526.399 537.2 508.153 539.902 495.457 549.405C482.767 558.904 475.508 575.286 470.321 601.636C470.285 601.818 470.15 601.966 469.971 602.019C457.029 605.833 448.318 610.199 441.746 616.793C435.323 623.238 430.899 631.856 426.608 644.307C426.414 644.87 426.273 645.452 426.187 646.041C424.631 656.73 424.293 665.099 426 673.39C427.7 681.651 431.439 689.873 438.095 700.255L438.749 701.267L438.797 701.359C438.809 701.392 438.818 701.426 438.824 701.46C442.393 723.703 447.584 737.578 456.843 745.718C465.447 753.283 477.663 755.978 495.68 755.659C498.16 755.615 500.477 754.438 502.033 752.507L505.778 747.857C508.796 744.111 506.13 738.539 501.319 738.539C498.63 738.539 496.044 737.507 494.094 735.657L484.045 726.184C480.586 722.923 475.194 723.001 470.44 723.039C470.403 723.039 470.367 723.039 470.33 723.039C462.874 723.039 456.83 716.995 456.83 709.539C456.83 702.083 462.874 696.039 470.33 696.039C477.786 696.039 483.83 702.083 483.83 709.539C483.83 713.674 484.02 718.247 486.864 721.249L494.732 729.556L494.733 729.557C496.528 731.46 499.029 732.539 501.645 732.539H547.321C549.651 732.539 551.822 731.358 553.087 729.402C554.883 726.626 554.447 722.966 552.05 720.69L499.748 671.024C498.058 669.42 495.837 668.492 493.508 668.418L471.457 667.715C467.686 667.594 464.333 669.926 461.179 671.996C459.212 673.288 456.859 674.039 454.33 674.039C447.426 674.039 441.83 668.443 441.83 661.539C441.83 654.636 447.426 649.039 454.33 649.039C457.841 649.039 461.014 650.487 463.285 652.818C466.897 656.526 470.781 661.226 475.951 661.482L493.715 662.36C496.183 662.482 498.53 663.47 500.342 665.151L554.286 715.212C557.594 718.282 562.547 718.756 566.377 716.369L583.716 705.564C588.802 702.394 589.718 695.364 585.613 690.996L549.679 652.769C547.849 650.821 546.83 648.25 546.83 645.577V644.602C546.83 639.965 543.228 636.157 540.137 632.701C538.08 630.402 536.83 627.367 536.83 624.039C536.83 616.859 542.65 611.039 549.83 611.039C557.01 611.039 562.83 616.859 562.83 624.039C562.83 627.551 561.437 630.738 559.174 633.077C555.805 636.559 551.83 640.461 551.83 645.305C551.83 647.876 552.872 650.338 554.719 652.127L596.112 692.24C598.508 694.562 601.948 695.457 605.172 694.598L605.296 694.574C610.045 693.663 613.462 689.483 613.411 684.647L612.96 642.101C612.9 639.903 612.079 637.794 610.638 636.133L592.899 615.687C591.242 613.777 590.33 611.334 590.33 608.806V584.151C590.33 579.13 586.251 575.114 582.405 571.887C579.016 569.044 576.862 564.778 576.862 560.009C576.862 551.448 583.802 544.509 592.362 544.509C600.922 544.509 607.862 551.448 607.862 560.009C607.862 566.398 603.996 571.883 598.475 574.255C597.284 574.766 596.398 575.873 596.39 577.17C596.374 579.958 599.933 581.142 601.59 578.899L633.621 535.542C635.487 533.016 638.385 531.458 641.521 531.295L672.48 529.687C674.234 529.595 675.928 529.02 677.374 528.024C677.374 528.024 677.375 528.023 677.376 528.023C677.376 528.023 677.377 528.023 677.378 528.023L678.586 527.195C680.72 525.734 681.201 522.831 680.478 520.347C680.077 518.97 679.862 517.515 679.862 516.009C679.862 507.448 686.802 500.509 695.362 500.509C703.922 500.509 710.862 507.448 710.862 516.009Z" fill="url(#paint27_linear_4_7)"/>
  <path d="M862.468 787.53C862.468 783.388 859.11 780.03 854.968 780.03C850.826 780.03 847.468 783.388 847.468 787.53C847.468 791.672 850.826 795.03 854.968 795.03C859.11 795.03 862.468 791.672 862.468 787.53Z" fill="url(#paint28_linear_4_7)"/>
  <path d="M854.468 753.53C854.468 749.416 850.915 746.03 846.468 746.03C842.02 746.03 838.468 749.416 838.468 753.53C838.468 757.644 842.02 761.03 846.468 761.03C850.915 761.03 854.468 757.644 854.468 753.53Z" fill="url(#paint29_linear_4_7)"/>
  <path d="M509.276 754.671C506.147 759 506.877 765.174 511.393 768.027C514.212 769.808 516.733 770.995 519.411 771.774C521.976 772.521 524.697 772.897 527.979 773.051C533.67 773.319 537.931 768.281 538.297 762.596C538.44 760.385 538.713 758.267 539.139 756.148C539.258 755.561 539.387 754.974 539.529 754.386C541.256 747.221 536.62 739.53 529.25 739.53H525.333C522.124 739.53 519.11 741.07 517.23 743.671L509.276 754.671Z" fill="url(#paint30_linear_4_7)"/>
  <path d="M477.468 710.53C477.468 705.836 473.662 702.03 468.968 702.03C464.273 702.03 460.468 705.836 460.468 710.53C460.468 715.225 464.273 719.03 468.968 719.03C473.662 719.03 477.468 715.225 477.468 710.53Z" fill="url(#paint31_linear_4_7)"/>
  <path fill-rule="evenodd" clip-rule="evenodd" d="M695.468 822.53C695.596 822.53 695.72 822.58 695.813 822.669L740.79 865.646L746.262 869.626L746.317 869.673C746.369 869.723 746.409 869.785 746.435 869.853L762.669 912.411C763.938 915.74 761.757 919.378 758.222 919.827L738.364 922.349C734.938 922.784 731.588 921.103 729.89 918.095L704.894 873.805C704.349 872.84 703.647 871.971 702.818 871.236L670.216 842.348C667.288 839.754 667.928 835.019 671.438 833.295L693.248 822.581L693.354 822.543C693.391 822.534 693.429 822.53 693.468 822.53H695.468ZM671.879 834.192C669.006 835.603 668.484 839.477 670.879 841.6L704.8 871.656L704.856 871.716C704.874 871.737 704.889 871.76 704.903 871.784L730.762 917.603C732.259 920.257 735.215 921.741 738.238 921.357L758.096 918.835C760.988 918.468 762.773 915.491 761.734 912.768L746.613 873.123C745.921 871.311 744.719 869.74 743.15 868.599L740.174 866.435C740.162 866.426 740.152 866.418 740.141 866.409C740.135 866.403 740.129 866.397 740.123 866.392L696.039 824.267C695.544 823.794 694.887 823.53 694.202 823.53C693.796 823.53 693.395 823.623 693.03 823.803L671.879 834.192ZM869.468 787.53C869.468 779.522 862.976 773.03 854.968 773.03C846.96 773.03 840.468 779.522 840.468 787.53C840.468 795.538 846.96 802.03 854.968 802.03C862.976 802.03 869.468 795.538 869.468 787.53ZM774.11 790.53C771.591 790.53 769.174 791.531 767.392 793.312L754.251 806.455C752.282 808.424 749.611 809.53 746.826 809.53H723.799C722.041 809.53 720.316 810.018 718.819 810.939L713.472 814.23C707.846 817.692 707.063 825.56 711.895 830.063L743.711 859.71C745.018 860.928 746.628 861.778 748.376 862.147C776.536 868.096 795.811 867.748 810.532 858.771C824.742 850.106 834.823 833.332 844.479 806.034C845.642 802.748 844.23 799.235 842.238 796.374C840.133 793.349 837.101 790.53 833.415 790.53H774.11ZM635.468 797.03C635.468 789.851 629.647 784.03 622.468 784.03C615.288 784.03 609.468 789.851 609.468 797.03C609.468 804.21 615.288 810.03 622.468 810.03C629.647 810.03 635.468 804.21 635.468 797.03ZM629.468 797.03C629.468 793.164 626.334 790.03 622.468 790.03C618.602 790.03 615.468 793.164 615.468 797.03C615.468 800.896 618.602 804.03 622.468 804.03C626.334 804.03 629.468 800.896 629.468 797.03ZM862.468 787.53C862.468 783.388 859.11 780.03 854.968 780.03C850.826 780.03 847.468 783.388 847.468 787.53C847.468 791.672 850.826 795.03 854.968 795.03C859.11 795.03 862.468 791.672 862.468 787.53ZM545.968 738.53C546.14 738.53 546.3 738.619 546.391 738.766C546.483 738.912 546.492 739.095 546.417 739.25C543.148 745.946 541.165 751.148 540.12 756.346C539.075 761.541 538.962 766.759 539.467 773.493C539.477 773.629 539.43 773.764 539.339 773.865C539.247 773.967 539.118 774.027 538.981 774.03C529.958 774.277 524.264 774.228 519.132 772.734C513.987 771.237 509.447 768.303 502.687 762.891C502.479 762.724 502.438 762.423 502.595 762.207L519.562 738.737C519.656 738.607 519.807 738.53 519.968 738.53H545.968ZM509.276 754.671C506.147 759 506.877 765.174 511.393 768.027C514.212 769.808 516.733 770.995 519.411 771.774C521.976 772.521 524.697 772.897 527.979 773.051C533.67 773.319 537.931 768.281 538.297 762.596C538.44 760.385 538.713 758.267 539.139 756.148C539.258 755.561 539.387 754.974 539.529 754.386C541.256 747.221 536.62 739.53 529.25 739.53H525.333C522.124 739.53 519.11 741.07 517.23 743.671L509.276 754.671ZM854.468 753.53C854.468 749.416 850.915 746.03 846.468 746.03C842.02 746.03 838.468 749.416 838.468 753.53C838.468 757.644 842.02 761.03 846.468 761.03C850.915 761.03 854.468 757.644 854.468 753.53ZM477.468 710.53C477.468 705.836 473.662 702.03 468.968 702.03C464.273 702.03 460.468 705.836 460.468 710.53C460.468 715.225 464.273 719.03 468.968 719.03C473.662 719.03 477.468 715.225 477.468 710.53ZM873.468 689.53C873.468 682.627 867.871 677.03 860.968 677.03C854.064 677.03 848.468 682.627 848.468 689.53C848.468 696.434 854.064 702.03 860.968 702.03C867.871 702.03 873.468 696.434 873.468 689.53ZM560.468 625.03C560.468 618.403 555.095 613.03 548.468 613.03C541.84 613.03 536.468 618.403 536.468 625.03C536.468 631.658 541.84 637.03 548.468 637.03C555.095 637.03 560.468 631.658 560.468 625.03ZM555.468 625.03C555.468 621.164 552.334 618.03 548.468 618.03C544.602 618.03 541.468 621.164 541.468 625.03C541.468 628.896 544.602 632.03 548.468 632.03C552.334 632.03 555.468 628.896 555.468 625.03ZM598.5 561C598.5 556.858 595.142 553.5 591 553.5C586.858 553.5 583.5 556.858 583.5 561C583.5 565.142 586.858 568.5 591 568.5C595.142 568.5 598.5 565.142 598.5 561ZM702.5 517C702.5 512.306 698.694 508.5 694 508.5C689.305 508.5 685.5 512.306 685.5 517C685.5 521.694 689.305 525.5 694 525.5C698.694 525.5 702.5 521.694 702.5 517ZM630.468 797.03C630.468 801.449 626.886 805.03 622.468 805.03C618.049 805.03 614.468 801.448 614.468 797.03C614.468 792.612 618.049 789.03 622.468 789.03C626.886 789.03 630.468 792.612 630.468 797.03ZM863.468 787.53C863.468 792.225 859.662 796.03 854.968 796.03C850.273 796.03 846.468 792.225 846.468 787.53C846.468 782.836 850.273 779.03 854.968 779.03C859.662 779.03 863.468 782.836 863.468 787.53ZM858.468 753.03C858.468 746.403 853.095 741.03 846.468 741.03C839.84 741.03 834.468 746.403 834.468 753.03C834.468 759.658 839.84 765.03 846.468 765.03C853.095 765.03 858.468 759.658 858.468 753.03ZM855.468 753.53C855.468 758.253 851.409 762.03 846.468 762.03C841.526 762.03 837.468 758.253 837.468 753.53C837.468 748.808 841.526 745.03 846.468 745.03C851.409 745.03 855.468 748.808 855.468 753.53ZM481.468 710.53C481.468 703.627 475.871 698.03 468.968 698.03C462.064 698.03 456.468 703.627 456.468 710.53C456.468 717.434 462.064 723.03 468.968 723.03C475.871 723.03 481.468 717.434 481.468 710.53ZM478.468 710.53C478.468 715.777 474.214 720.03 468.968 720.03C463.721 720.03 459.468 715.777 459.468 710.53C459.468 705.284 463.721 701.03 468.968 701.03C474.214 701.03 478.468 705.284 478.468 710.53ZM441.468 662.53C441.468 668.881 446.616 674.03 452.968 674.03C459.319 674.03 464.468 668.882 464.468 662.53C464.468 656.179 459.319 651.03 452.968 651.03C446.616 651.03 441.468 656.179 441.468 662.53ZM556.468 625.03C556.468 629.449 552.886 633.03 548.468 633.03C544.049 633.03 540.468 629.448 540.468 625.03C540.468 620.612 544.049 617.03 548.468 617.03C552.886 617.03 556.468 620.612 556.468 625.03ZM595.5 600.121C595.5 597.987 596.15 595.903 597.363 594.148L634.224 540.841C636.097 538.133 639.132 536.46 642.422 536.322L671.552 535.101C672.954 535.042 674.324 534.673 675.565 534.022L675.812 533.889L682.285 530.236C683.253 529.689 683.365 528.33 682.611 527.513C682.043 526.898 681.107 526.739 680.416 527.212L676.579 529.839C676.579 529.84 676.579 529.84 676.578 529.839C676.578 529.839 676.578 529.839 676.577 529.839C674.979 530.939 673.107 531.576 671.17 531.677L640.212 533.284C637.374 533.432 634.752 534.842 633.063 537.127L594.87 588.827C594.741 589.001 594.516 589.073 594.31 589.005C594.105 588.937 593.966 588.744 593.968 588.527L594.022 579.261C594.031 577.681 592.58 576.5 591 576.5C590.441 576.5 589.968 576.939 589.968 577.498V609.797C589.968 612.084 590.793 614.295 592.292 616.022L610.032 636.469C611.624 638.304 612.53 640.635 612.596 643.064L613.968 693.517C613.974 693.748 613.82 693.954 613.596 694.014L604.067 696.555C600.504 697.505 596.703 696.516 594.055 693.949L552.661 653.836C550.62 651.858 549.468 649.138 549.468 646.296V638.993C549.468 638.453 549.008 638.03 548.468 638.03C547.412 638.03 546.468 638.829 546.468 639.885V646.568C546.468 648.986 547.39 651.313 549.046 653.075L584.979 691.302C589.517 696.129 588.505 703.9 582.883 707.404L558.732 722.455C558.541 722.574 558.293 722.55 558.128 722.396L498.299 666.876C496.66 665.355 494.537 664.46 492.304 664.351L467.343 663.116C466.304 663.064 465.435 663.906 465.236 664.926C464.983 666.223 465.861 667.569 467.181 667.611L492.177 668.41C494.751 668.492 497.206 669.516 499.074 671.29L555.812 725.168C555.987 725.334 556.018 725.6 555.888 725.802L550.388 734.302C550.295 734.444 550.137 734.53 549.968 734.53H500.283C497.391 734.53 494.627 733.337 492.643 731.233L481.581 719.555C480.857 718.79 479.611 718.9 478.898 719.675C478.227 720.404 478.181 721.557 478.902 722.237L493.417 735.921L493.418 735.922C495.183 737.596 497.524 738.53 499.957 738.53H512.968C513.16 738.53 513.336 738.641 513.419 738.814C513.502 738.988 513.478 739.194 513.357 739.344L498.857 757.344C498.767 757.456 498.632 757.524 498.488 757.53C478.135 758.347 464.373 755.859 454.82 747.46C445.595 739.349 440.4 725.814 436.836 704.8C436.603 703.426 436.094 702.111 435.349 700.933C428.992 690.891 425.345 682.777 423.658 674.582C421.868 665.884 422.294 657.137 423.973 645.956L423.994 645.87C428.398 632.887 432.939 623.838 439.676 617.078C445.318 611.416 452.469 607.392 462.285 603.98C465.794 602.761 468.471 599.844 469.282 596.22C474.395 573.38 481.543 558.542 493.495 549.596C505.504 540.606 522.264 537.639 546.387 538.297C549.98 538.395 553.375 536.628 555.385 533.649C566.643 516.967 577.404 506.872 590.372 502.894C603.434 498.887 618.627 501.119 638.63 508.845C641.911 510.113 645.619 509.657 648.503 507.643C664.723 496.315 678.219 490.859 691.651 491.561C705.451 492.282 719.074 499.498 735.419 513.254C737.492 514.998 740.162 515.877 742.865 515.693C764.342 514.235 779.359 516.041 790.668 522.723C802.065 529.457 809.605 541.089 816.245 559.041C817.001 561.086 818.375 562.856 820.179 564.081C842.164 579.007 855.609 592.552 859.769 608.525C864.115 625.213 858.289 644.383 841.923 670.268C841.921 670.271 841.919 670.274 841.917 670.276L841.915 670.279C841.451 670.966 841.532 671.884 842.11 672.478L846.5 677L849.669 679.643C850.316 680.183 851.269 680.102 851.893 679.535C852.628 678.867 852.731 677.692 852.01 677.008L846.624 671.894C846.441 671.72 846.416 671.437 846.565 671.234C846.566 671.233 846.567 671.232 846.568 671.231C846.569 671.23 846.57 671.229 846.57 671.228L846.571 671.226L846.576 671.22L846.603 671.183L846.629 671.148L846.712 671.036C846.807 670.907 846.947 670.715 847.126 670.47C847.484 669.978 847.999 669.267 848.623 668.39C849.871 666.635 851.555 664.218 853.301 661.568C855.047 658.918 856.852 656.038 858.344 653.357C859.841 650.667 861.002 648.213 861.485 646.401C861.584 646.029 861.821 645.738 862.188 645.601C862.522 645.476 862.902 645.502 863.268 645.592C864.004 645.773 864.941 646.278 866.004 647.022C868.148 648.525 870.981 651.132 874.055 654.63C880.206 661.629 887.381 672.261 892 684.922C896.619 697.586 898.687 712.303 894.583 727.45C890.477 742.603 880.211 758.132 860.26 772.437C860.176 772.496 860.081 772.525 859.986 772.528C859.971 772.529 859.957 772.53 859.942 772.534C859.791 772.576 859.787 772.795 859.937 772.845C866.06 774.916 870.468 780.708 870.468 787.53C870.468 796.091 863.528 803.03 854.968 803.03C850.801 803.03 846.043 804.679 844.624 808.596C835.188 834.641 825.172 851.015 811.053 859.625C795.494 869.113 775.088 869.096 745.36 862.519C745.273 862.499 745.192 862.457 745.127 862.396L701.127 821.396C701.013 821.29 700.955 821.136 700.971 820.98C700.986 820.825 701.073 820.686 701.206 820.604L718.296 810.088C719.951 809.07 721.856 808.53 723.799 808.53H746.826C749.345 808.53 751.761 807.529 753.543 805.748L766.685 792.605C768.654 790.636 771.325 789.53 774.11 789.53H837.591C838.655 789.53 839.468 788.594 839.468 787.53C839.468 786.191 838.466 784.983 837.127 784.971L788.964 784.53C788.762 784.528 788.581 784.406 788.505 784.22C788.428 784.033 788.472 783.819 788.614 783.677L789.621 782.67L817.621 755.67L817.696 755.61C817.776 755.558 817.871 755.53 817.968 755.53H831.193C832.497 755.53 833.468 754.334 833.468 753.03C833.468 751.975 832.669 751.03 831.613 751.03H818.274C816.93 751.03 815.641 751.564 814.69 752.514L814.37 752.834C814.367 752.837 814.365 752.839 814.363 752.843C814.362 752.844 814.361 752.846 814.359 752.848L785.265 782.895L785.263 782.898C783.289 784.902 780.593 786.03 777.781 786.03H772.534C770.057 786.03 767.678 786.998 765.904 788.727L752.229 802.051C750.269 803.961 747.639 805.03 744.901 805.03H725.56C722.806 805.03 720.163 803.948 718.199 802.017L692.042 776.296C691.459 775.723 690.804 775.227 690.095 774.821L690.025 774.782C688.59 773.962 686.965 773.53 685.312 773.53H647.088C644.304 773.53 641.66 774.752 639.855 776.872C639.855 776.872 639.854 776.872 639.854 776.872C639.854 776.871 639.853 776.871 639.853 776.872L632.891 785.105C632.231 785.885 632.327 787.041 633.001 787.809C633.827 788.752 635.332 788.91 636.179 787.986L643.131 780.399L643.133 780.397C645.12 778.251 647.912 777.03 650.838 777.03H684.154C687.045 777.03 689.808 778.222 691.792 780.325L713.832 803.688C713.929 803.79 713.972 803.924 713.966 804.055C713.976 804.216 713.91 804.379 713.772 804.484C652.32 851.698 593.716 842.204 564.466 813.201C549.849 798.708 542.577 779.34 546.019 759.811C549.462 740.277 563.604 720.681 591.614 705.682C592.366 705.279 593.206 704.958 594.034 704.755C612.414 701.677 669.689 683.218 691.088 678.946C692.682 678.628 694.175 677.985 695.468 677L704 670.5C707.5 687.5 698 671.79 698 671C698 670.295 649.345 690.494 613.065 705.041C603.332 708.943 601.834 705.414 611.156 700.611L672.5 669L617.984 693.833C617.714 693.956 617.387 694.107 617.155 693.921C617.037 693.826 616.968 693.682 616.968 693.53V640.788C616.968 638.487 616.132 636.264 614.617 634.532L598.098 615.657C596.423 613.743 595.5 611.286 595.5 608.742V600.121Z" fill="url(#paint32_linear_4_7)"/>
  <path d="M460.468 662.53C460.468 658.388 457.11 655.03 452.968 655.03C448.826 655.03 445.468 658.388 445.468 662.53C445.468 666.672 448.826 670.03 452.968 670.03C457.11 670.03 460.468 666.672 460.468 662.53Z" fill="url(#paint33_linear_4_7)"/>
  <path d="M555.468 625.03C555.468 621.164 552.334 618.03 548.468 618.03C544.602 618.03 541.468 621.164 541.468 625.03C541.468 628.896 544.602 632.03 548.468 632.03C552.334 632.03 555.468 628.896 555.468 625.03Z" fill="url(#paint34_linear_4_7)"/>
  <path d="M598.5 561C598.5 556.858 595.142 553.5 591 553.5C586.858 553.5 583.5 556.858 583.5 561C583.5 565.142 586.858 568.5 591 568.5C595.142 568.5 598.5 565.142 598.5 561Z" fill="url(#paint35_linear_4_7)"/>
  <path d="M702.5 517C702.5 512.306 698.694 508.5 694 508.5C689.305 508.5 685.5 512.306 685.5 517C685.5 521.694 689.305 525.5 694 525.5C698.694 525.5 702.5 521.694 702.5 517Z" fill="url(#paint36_linear_4_7)"/>
  <path d="M868.468 689.53C868.468 685.388 865.11 682.03 860.968 682.03C856.826 682.03 853.468 685.388 853.468 689.53C853.468 693.672 856.826 697.03 860.968 697.03C865.11 697.03 868.468 693.672 868.468 689.53Z" fill="url(#paint37_linear_4_7)"/>
  <path d="M629.468 797.03C629.468 793.164 626.334 790.03 622.468 790.03C618.602 790.03 615.468 793.164 615.468 797.03C615.468 800.896 618.602 804.03 622.468 804.03C626.334 804.03 629.468 800.896 629.468 797.03Z" fill="url(#paint38_linear_4_7)"/>
  <path d="M644 685L695.972 663.987L701.766 644.565L732.763 639.72L751.269 598.266L795.22 584.268L815.113 554.658L832.328 531.806L844.951 495M844.951 495L820.716 519.372M844.951 495L850 528.325" stroke="#F5F5F5" stroke-width="7"/>
  <path d="M660 682.5L680.5 674L699 666.5L704.5 647.5L735.5 643L754 601L797.5 587L816.5 558.5L836.5 531.5L843.5 510V509.5L846.5 529L853.5 528L847.5 487.5L818 517L823 522L836.5 508.5L829.5 529.5L793 581.5L748.5 595.5L730.5 636.5L699 641.5L693 661.5L655.5 676.5L642.5 682" stroke="#A044B3" stroke-width="2"/>
  <path d="M660 682.5L645 688.5" stroke="#A044B3"/>
  <path d="M617.5 694L613.5 698L630.5 693L649.5 686.5L660 682L664.5 679.5L656 677.5L644 682.5L627.5 689L622 692L617.5 694Z" fill="#F5F5F5"/>
  <rect x="650" y="501" width="76" height="63" rx="16" fill="url(#paint39_linear_4_7)"/>
  <ellipse cx="661" cy="583.5" rx="56" ry="55.5" fill="url(#paint40_linear_4_7)"/>
  <ellipse cx="602.5" cy="589.5" rx="7.5" ry="17.5" fill="url(#paint41_linear_4_7)"/>
  <rect x="589.237" y="576.2" width="5.40113" height="36.7117" rx="2.70057" transform="rotate(-1.98953 589.237 576.2)" fill="#F5F5F5"/>
  <path d="M594.999 593.022C594.48 575.183 595.596 584.392 595.817 593.001L596.267 608.021C596.267 608.021 595.845 615.078 595.449 608.042C595.053 601.006 595.518 610.861 594.999 593.022Z" fill="url(#paint42_linear_4_7)"/>
  <defs>
    <linearGradient id="paint25_linear_4_7" x1="659.644" y1="491.5" x2="659.644" y2="922.417" gradientUnits="userSpaceOnUse">
      <stop stop-color="#B84DCE"/>
      <stop offset="0.149038" stop-color="#AD49C2"/>
      <stop offset="0.302885" stop-color="#8C3C9D"/>
      <stop offset="0.394231" stop-color="#9540A7"/>
      <stop offset="0.543269" stop-color="#843E92"/>
      <stop offset="0.682692" stop-color="#672374"/>
      <stop offset="0.8125" stop-color="#4E1D58"/>
      <stop offset="1" stop-color="#2B1430"/>
    </linearGradient>
    <linearGradient id="paint26_linear_4_7" x1="659.644" y1="491.5" x2="659.644" y2="922.417" gradientUnits="userSpaceOnUse">
      <stop stop-color="#B84DCE"/>
      <stop offset="0.149038" stop-color="#AD49C2"/>
      <stop offset="0.302885" stop-color="#8C3C9D"/>
      <stop offset="0.394231" stop-color="#9540A7"/>
      <stop offset="0.543269" stop-color="#843E92"/>
      <stop offset="0.682692" stop-color="#672374"/>
      <stop offset="0.8125" stop-color="#4E1D58"/>
      <stop offset="1" stop-color="#2B1430"/>
    </linearGradient>
    <linearGradient id="paint27_linear_4_7" x1="659.644" y1="491.5" x2="659.644" y2="922.417" gradientUnits="userSpaceOnUse">
      <stop stop-color="#B84DCE"/>
      <stop offset="0.149038" stop-color="#AD49C2"/>
      <stop offset="0.302885" stop-color="#8C3C9D"/>
      <stop offset="0.394231" stop-color="#9540A7"/>
      <stop offset="0.543269" stop-color="#843E92"/>
      <stop offset="0.682692" stop-color="#672374"/>
      <stop offset="0.8125" stop-color="#4E1D58"/>
      <stop offset="1" stop-color="#2B1430"/>
    </linearGradient>
    <linearGradient id="paint28_linear_4_7" x1="659.644" y1="491.5" x2="659.644" y2="922.417" gradientUnits="userSpaceOnUse">
      <stop stop-color="#B84DCE"/>
      <stop offset="0.149038" stop-color="#AD49C2"/>
      <stop offset="0.302885" stop-color="#8C3C9D"/>
      <stop offset="0.394231" stop-color="#9540A7"/>
      <stop offset="0.543269" stop-color="#843E92"/>
      <stop offset="0.682692" stop-color="#672374"/>
      <stop offset="0.8125" stop-color="#4E1D58"/>
      <stop offset="1" stop-color="#2B1430"/>
    </linearGradient>
    <linearGradient id="paint29_linear_4_7" x1="659.644" y1="491.5" x2="659.644" y2="922.417" gradientUnits="userSpaceOnUse">
      <stop stop-color="#B84DCE"/>
      <stop offset="0.149038" stop-color="#AD49C2"/>
      <stop offset="0.302885" stop-color="#8C3C9D"/>
      <stop offset="0.394231" stop-color="#9540A7"/>
      <stop offset="0.543269" stop-color="#843E92"/>
      <stop offset="0.682692" stop-color="#672374"/>
      <stop offset="0.8125" stop-color="#4E1D58"/>
      <stop offset="1" stop-color="#2B1430"/>
    </linearGradient>
    <linearGradient id="paint30_linear_4_7" x1="659.644" y1="491.5" x2="659.644" y2="922.417" gradientUnits="userSpaceOnUse">
      <stop stop-color="#B84DCE"/>
      <stop offset="0.149038" stop-color="#AD49C2"/>
      <stop offset="0.302885" stop-color="#8C3C9D"/>
      <stop offset="0.394231" stop-color="#9540A7"/>
      <stop offset="0.543269" stop-color="#843E92"/>
      <stop offset="0.682692" stop-color="#672374"/>
      <stop offset="0.8125" stop-color="#4E1D58"/>
      <stop offset="1" stop-color="#2B1430"/>
    </linearGradient>
    <linearGradient id="paint31_linear_4_7" x1="659.644" y1="491.5" x2="659.644" y2="922.417" gradientUnits="userSpaceOnUse">
      <stop stop-color="#B84DCE"/>
      <stop offset="0.149038" stop-color="#AD49C2"/>
      <stop offset="0.302885" stop-color="#8C3C9D"/>
      <stop offset="0.394231" stop-color="#9540A7"/>
      <stop offset="0.543269" stop-color="#843E92"/>
      <stop offset="0.682692" stop-color="#672374"/>
      <stop offset="0.8125" stop-color="#4E1D58"/>
      <stop offset="1" stop-color="#2B1430"/>
    </linearGradient>
    <linearGradient id="paint32_linear_4_7" x1="659.644" y1="491.5" x2="659.644" y2="922.417" gradientUnits="userSpaceOnUse">
      <stop stop-color="#B84DCE"/>
      <stop offset="0.149038" stop-color="#AD49C2"/>
      <stop offset="0.302885" stop-color="#8C3C9D"/>
      <stop offset="0.394231" stop-color="#9540A7"/>
      <stop offset="0.543269" stop-color="#843E92"/>
      <stop offset="0.682692" stop-color="#672374"/>
      <stop offset="0.8125" stop-color="#4E1D58"/>
      <stop offset="1" stop-color="#2B1430"/>
    </linearGradient>
    <linearGradient id="paint33_linear_4_7" x1="659.644" y1="491.5" x2="659.644" y2="922.417" gradientUnits="userSpaceOnUse">
      <stop stop-color="#B84DCE"/>
      <stop offset="0.149038" stop-color="#AD49C2"/>
      <stop offset="0.302885" stop-color="#8C3C9D"/>
      <stop offset="0.394231" stop-color="#9540A7"/>
      <stop offset="0.543269" stop-color="#843E92"/>
      <stop offset="0.682692" stop-color="#672374"/>
      <stop offset="0.8125" stop-color="#4E1D58"/>
      <stop offset="1" stop-color="#2B1430"/>
    </linearGradient>
    <linearGradient id="paint34_linear_4_7" x1="659.644" y1="491.5" x2="659.644" y2="922.417" gradientUnits="userSpaceOnUse">
      <stop stop-color="#B84DCE"/>
      <stop offset="0.149038" stop-color="#AD49C2"/>
      <stop offset="0.302885" stop-color="#8C3C9D"/>
      <stop offset="0.394231" stop-color="#9540A7"/>
      <stop offset="0.543269" stop-color="#843E92"/>
      <stop offset="0.682692" stop-color="#672374"/>
      <stop offset="0.8125" stop-color="#4E1D58"/>
      <stop offset="1" stop-color="#2B1430"/>
    </linearGradient>
    <linearGradient id="paint35_linear_4_7" x1="659.644" y1="491.5" x2="659.644" y2="922.417" gradientUnits="userSpaceOnUse">
      <stop stop-color="#B84DCE"/>
      <stop offset="0.149038" stop-color="#AD49C2"/>
      <stop offset="0.302885" stop-color="#8C3C9D"/>
      <stop offset="0.394231" stop-color="#9540A7"/>
      <stop offset="0.543269" stop-color="#843E92"/>
      <stop offset="0.682692" stop-color="#672374"/>
      <stop offset="0.8125" stop-color="#4E1D58"/>
      <stop offset="1" stop-color="#2B1430"/>
    </linearGradient>
    <linearGradient id="paint36_linear_4_7" x1="659.644" y1="491.5" x2="659.644" y2="922.417" gradientUnits="userSpaceOnUse">
      <stop stop-color="#B84DCE"/>
      <stop offset="0.149038" stop-color="#AD49C2"/>
      <stop offset="0.302885" stop-color="#8C3C9D"/>
      <stop offset="0.394231" stop-color="#9540A7"/>
      <stop offset="0.543269" stop-color="#843E92"/>
      <stop offset="0.682692" stop-color="#672374"/>
      <stop offset="0.8125" stop-color="#4E1D58"/>
      <stop offset="1" stop-color="#2B1430"/>
    </linearGradient>
    <linearGradient id="paint37_linear_4_7" x1="659.644" y1="491.5" x2="659.644" y2="922.417" gradientUnits="userSpaceOnUse">
      <stop stop-color="#B84DCE"/>
      <stop offset="0.149038" stop-color="#AD49C2"/>
      <stop offset="0.302885" stop-color="#8C3C9D"/>
      <stop offset="0.394231" stop-color="#9540A7"/>
      <stop offset="0.543269" stop-color="#843E92"/>
      <stop offset="0.682692" stop-color="#672374"/>
      <stop offset="0.8125" stop-color="#4E1D58"/>
      <stop offset="1" stop-color="#2B1430"/>
    </linearGradient>
    <linearGradient id="paint38_linear_4_7" x1="659.644" y1="491.5" x2="659.644" y2="922.417" gradientUnits="userSpaceOnUse">
      <stop stop-color="#B84DCE"/>
      <stop offset="0.149038" stop-color="#AD49C2"/>
      <stop offset="0.302885" stop-color="#8C3C9D"/>
      <stop offset="0.394231" stop-color="#9540A7"/>
      <stop offset="0.543269" stop-color="#843E92"/>
      <stop offset="0.682692" stop-color="#672374"/>
      <stop offset="0.8125" stop-color="#4E1D58"/>
      <stop offset="1" stop-color="#2B1430"/>
    </linearGradient>
    <linearGradient id="paint39_linear_4_7" x1="687.971" y1="501" x2="687.971" y2="564" gradientUnits="userSpaceOnUse">
      <stop stop-color="#B84DCE"/>
      <stop offset="1" stop-color="#AC48C0"/>
    </linearGradient>
    <linearGradient id="paint40_linear_4_7" x1="660.957" y1="528" x2="660.957" y2="639" gradientUnits="userSpaceOnUse">
      <stop stop-color="#B24BC7"/>
      <stop offset="0.248116" stop-color="#AE48C2"/>
      <stop offset="0.331731" stop-color="#A947BD"/>
      <stop offset="0.664765" stop-color="#9741A9"/>
      <stop offset="0.82866" stop-color="#8F3D9F"/>
      <stop offset="1" stop-color="#8F3D9F"/>
    </linearGradient>
    <linearGradient id="paint41_linear_4_7" x1="602.494" y1="572" x2="602.494" y2="607" gradientUnits="userSpaceOnUse">
      <stop stop-color="#A445B7"/>
      <stop offset="0.183142" stop-color="#A344B6"/>
      <stop offset="0.341346" stop-color="#A044B3"/>
      <stop offset="0.50347" stop-color="#9D43B0"/>
      <stop offset="0.658055" stop-color="#9B42AD"/>
      <stop offset="0.805469" stop-color="#9841AA"/>
      <stop offset="0.898699" stop-color="#9540A7"/>
      <stop offset="1" stop-color="#943FA5"/>
    </linearGradient>
    <linearGradient id="paint42_linear_4_7" x1="595.492" y1="593.01" x2="595.91" y2="608.031" gradientUnits="userSpaceOnUse">
      <stop stop-color="#B84DCE"/>
      <stop offset="0.149038" stop-color="#AD49C2"/>
      <stop offset="0.302885" stop-color="#8C3C9D"/>
    </linearGradient>
  </defs>
</svg>
