<svg width="364" height="323" viewBox="0 0 364 323" fill="none" xmlns="http://www.w3.org/2000/svg">
<path d="M209.599 248.233C209.528 248.166 209.433 248.129 209.334 248.129H207.8C207.771 248.129 207.742 248.132 207.713 248.138L207.632 248.167L190.906 256.197C188.214 257.49 187.724 261.039 189.969 262.983L214.66 284.368C215.502 285.097 216.216 285.962 216.773 286.926L235.732 319.76C237.034 322.015 239.603 323.275 242.23 322.949L257.459 321.059C260.17 320.723 261.843 317.995 260.869 315.5L248.42 283.6C248.4 283.549 248.369 283.503 248.33 283.465L248.287 283.43L244.091 280.447L209.599 248.233Z" fill="#5548F5"/>
<path d="M264.492 226.228C265.858 224.893 267.711 224.143 269.643 224.143H315.248C318.005 224.143 320.271 226.228 321.86 228.481C323.389 230.649 324.486 233.34 323.583 235.835C316.185 256.254 308.46 268.806 297.575 275.294C286.389 281.961 271.775 282.278 250.503 277.946C248.774 277.594 247.175 276.766 245.871 275.578L224.492 256.107C219.543 251.599 220.335 243.595 226.072 240.144L227.242 239.441C228.39 238.75 229.712 238.384 231.06 238.384H248.72C250.855 238.384 252.904 237.555 254.414 236.079L264.492 226.228Z" fill="#5548F5"/>
<path d="M95.0101 185.342C95.0054 185.334 95.0005 185.327 94.9955 185.32L101.471 176.21C101.729 175.848 102.009 175.505 102.311 175.181C102.823 174.633 103.396 174.143 104.02 173.721L123.633 160.455C127.227 158.266 143.854 150.938 150.099 149.419L150.228 149.387C151.084 149.18 151.936 148.973 152.754 148.645L201.302 129.233C201.815 129.028 202.351 128.876 202.899 128.953C204.769 129.216 208.801 130.484 210.744 131.583C211.637 132.088 211.704 133.128 211.172 134.005C210.615 134.924 209.675 136.047 208.235 136.541C207.24 136.883 206.165 136.961 205.165 137.287L194.021 140.918L132.774 159.833C132.201 159.97 131.617 160.189 131.098 160.461C109.767 171.625 99.1136 186.144 96.5243 200.503C93.9346 214.866 99.3976 229.143 110.456 239.861C132.41 261.139 176.462 268.376 223.002 233.968C223.418 233.66 223.875 233.394 224.351 233.19C226.774 232.151 229.578 232.954 232.175 233.408C232.595 233.481 233.024 233.519 233.456 233.519H248.288C250.188 233.519 252.012 232.793 253.373 231.498L263.86 221.51C265.364 220.078 267.38 219.277 269.479 219.277H273.503C273.735 219.277 273.966 219.266 274.195 219.245C277.333 218.952 280.556 217.575 283.629 218.273C284.298 218.425 284.982 218.502 285.669 218.502L313.226 218.502C317.854 218.502 321.682 214.838 325.351 212.016C327.373 210.461 329.924 209.533 332.696 209.533C332.957 209.533 333.216 209.541 333.473 209.557C334.168 209.601 334.87 209.575 335.543 209.393C336.11 209.24 336.649 208.988 337.127 208.646C351.77 198.169 359.298 186.882 362.337 175.921C365.432 164.753 363.878 153.883 360.375 144.496C356.871 135.107 351.423 127.217 346.758 122.028C344.424 119.432 342.296 117.525 340.719 116.445C339.924 115.901 339.301 115.589 338.878 115.487C338.666 115.436 338.552 115.449 338.503 115.467C338.479 115.476 338.455 115.486 338.435 115.559C338.039 117.012 337.108 118.92 335.956 120.944C334.799 122.976 333.403 125.151 332.058 127.146C330.713 129.142 329.416 130.961 328.456 132.281C327.976 132.941 327.579 133.477 327.303 133.848C327.238 133.934 327.18 134.012 327.129 134.08L327.122 134.089L327.07 134.157L321.843 134.445C321.504 134.464 321.067 134.271 321.259 133.992L322.044 132.854C334.57 113.49 338.885 99.3549 335.636 87.1637C332.385 74.9611 321.526 64.5807 303.344 52.8111C303.274 52.7659 303.221 52.6995 303.193 52.6222C297.891 37.7907 291.371 28.6181 282.341 23.4031C273.83 18.4874 262.579 17.0928 246.594 18.0756C243.936 18.2391 241.308 17.3871 239.24 15.7073C227.029 5.78537 216.784 0.575125 206.407 0.0450277C196.389 -0.466714 186.325 3.38738 174.338 11.4097C171.471 13.3288 167.85 13.7714 164.612 12.5781C149.83 7.12978 138.507 5.61081 128.738 8.53986C119.09 11.4327 111.035 18.641 102.68 30.4863C100.632 33.3896 97.2848 35.1186 93.7325 35.0473C75.9146 34.6894 63.4411 36.964 54.4447 43.5462C45.5459 50.0571 40.1196 60.7304 36.2228 77.0141C35.3568 80.6328 32.6608 83.5253 29.159 84.7831C22.32 87.2398 17.2356 90.1429 13.1717 94.1287C8.00514 99.1959 4.52281 105.979 1.14568 115.71L1.12996 115.775C-0.157747 124.155 -0.484804 130.712 0.888061 137.232C2.15483 143.247 4.86317 149.204 9.55268 156.517C10.3176 157.71 10.8449 159.046 11.0918 160.441C13.8222 175.874 17.7952 185.851 24.7857 191.858C32.1119 198.154 42.6655 200.019 58.2739 199.407C58.3659 199.403 60.4902 201.324 61.1968 202.394C61.4019 202.705 61.2011 203.195 61.4942 203.425C66.6784 207.482 70.1594 209.681 74.1051 210.803C78.0408 211.923 82.4075 211.959 89.3274 211.775C89.4321 211.772 89.5312 211.727 89.6015 211.651C89.6717 211.575 89.7074 211.474 89.6996 211.372C89.3125 206.324 89.3993 202.413 90.2006 198.519C91.0023 194.623 92.5231 190.724 95.0295 185.705C95.0876 185.588 95.0801 185.451 95.0101 185.342Z" fill="#5548F5"/>
</svg>
