<svg width="307" height="211" viewBox="0 0 307 211" fill="none" xmlns="http://www.w3.org/2000/svg">
<path d="M280.214 189.552C277.741 189.552 275.721 190.113 274.123 191.205L274.112 191.212C272.56 192.216 271.792 193.645 271.792 195.558C271.792 197.605 272.353 199.053 273.392 199.998C274.441 200.951 276.064 201.472 278.351 201.472C281.5 201.472 284.434 200.658 287.166 199.029V190.605C284.968 189.904 282.651 189.552 280.214 189.552ZM306.5 203.896C306.5 205.859 305.808 207.399 304.38 208.426C302.982 209.431 300.946 209.894 298.352 209.894C293.441 209.894 290.008 208.44 288.278 205.383C284.203 208.385 279.714 209.894 274.821 209.894C269.781 209.894 265.738 208.748 262.747 206.397L262.737 206.39C259.8 203.964 258.34 200.67 258.34 196.565C258.34 192.371 260.085 188.928 263.535 186.272C266.999 183.606 272.396 182.32 279.626 182.32C282.25 182.32 284.763 182.48 287.166 182.798V179.338C287.166 175.155 286.414 172.313 285.029 170.681L285.022 170.673C283.691 169.033 281.848 168.2 279.43 168.2C276.989 168.2 275.064 168.926 273.604 170.346C272.216 171.759 271.498 173.698 271.498 176.223V176.678L271.044 176.72C268.359 176.971 266.062 176.598 264.186 175.56L264.177 175.555L264.168 175.549C262.312 174.415 261.379 172.691 261.379 170.449C261.379 167.286 263.16 164.731 266.531 162.777C269.898 160.826 274.209 159.869 279.43 159.869C286.228 159.869 291.42 161.411 294.914 164.581C298.417 167.76 300.127 172.497 300.127 178.696V202.718L306.057 203.399L306.5 203.45V203.896Z" fill="url(#paint0_linear_3_2)" stroke="black"/>
<path d="M228.832 161.244L228.801 161.773C228.735 162.915 228.627 163.859 228.472 164.595C228.322 165.312 228.115 165.905 227.803 166.279L227.801 166.282C226.753 167.523 225.499 168.241 224.045 168.379L224.046 168.38L223.133 168.486L231.932 189.853L240.818 168.582L237.268 168.197L237.006 168.168L236.882 167.936C236.717 167.629 236.683 167.216 236.7 166.787C236.718 166.337 236.797 165.781 236.93 165.126L236.932 165.115L236.935 165.103C237.248 163.869 237.801 162.891 238.626 162.225C239.453 161.557 240.504 161.244 241.734 161.244H256.353V161.744C256.353 163.735 256.056 165.327 255.404 166.46C254.737 167.62 253.715 168.268 252.384 168.378L252.385 168.379L251.195 168.528L233.662 208.222L233.53 208.52H226.307L226.176 208.22L208.942 168.724L204.612 168.197L204.19 168.145L204.174 167.72C204.105 166.061 204.41 164.594 205.114 163.34C205.482 162.652 205.989 162.121 206.637 161.764C207.282 161.41 208.04 161.244 208.888 161.244H228.832Z" fill="url(#paint1_linear_3_2)" stroke="black"/>
<path d="M178.495 159.898C185.98 159.898 191.754 162.099 195.729 166.569L196.101 166.991C199.88 171.41 201.742 177.418 201.742 184.956C201.742 192.686 199.622 198.81 195.327 203.264C191.027 207.722 185.034 209.923 177.417 209.923C169.877 209.923 164.103 207.882 160.188 203.718L160.185 203.714C156.345 199.558 154.464 193.522 154.464 185.69C154.464 177.781 156.548 171.478 160.771 166.842L160.773 166.839C165.07 162.196 171 159.898 178.495 159.898ZM178.102 167.953C174.898 167.953 172.406 169.433 170.591 172.475C168.823 175.546 167.916 179.784 167.916 185.231C167.916 190.615 168.823 194.756 170.584 197.701L170.755 197.964C172.548 200.643 174.984 201.959 178.102 201.959C181.325 201.959 183.782 200.584 185.522 197.795L185.524 197.792C187.349 194.911 188.29 190.803 188.29 185.414C188.29 179.966 187.349 175.696 185.515 172.563L185.512 172.557C183.76 169.458 181.301 167.953 178.102 167.953Z" fill="url(#paint2_linear_3_2)" stroke="black"/>
<path d="M121.907 168.292C118.367 168.292 115.763 169.647 114.018 172.347C112.248 175.084 111.328 179.254 111.328 184.928C111.328 190.132 112.269 194.083 114.089 196.84C115.957 199.571 118.514 200.922 121.81 200.922C125.136 200.922 128.364 199.651 131.506 197.061V171.706C128.502 169.422 125.307 168.292 121.907 168.292ZM151.037 203.621C151.037 205.71 150.285 207.342 148.741 208.429C147.23 209.492 145.025 209.986 142.203 209.986C139.415 209.986 137.137 209.561 135.406 208.671C133.877 207.885 132.788 206.744 132.161 205.256C128.021 208.346 123.324 209.894 118.084 209.895C112.666 209.895 107.969 208.077 104.019 204.448L104.016 204.445C100.021 200.712 98.0082 194.842 97.8762 186.952C97.7439 179.04 99.7628 172.531 103.973 167.472L103.976 167.469C108.276 162.382 114.544 159.869 122.692 159.869C126.029 159.869 128.97 160.312 131.506 161.207V151.018L128.135 150.695V150.694C126.676 150.561 125.548 149.966 124.844 148.863C124.156 147.786 123.922 146.3 124.056 144.479L124.087 144.062L124.503 144.019L143.916 142.003L144.468 141.945V202.611L150.579 203.123L151.037 203.161V203.621Z" fill="url(#paint3_linear_3_2)" stroke="black"/>
<path d="M68.1304 189.552C65.6578 189.552 63.638 190.113 62.0396 191.205L62.0289 191.212C60.4763 192.216 59.7086 193.645 59.7086 195.558C59.7086 197.605 60.2696 199.053 61.3091 199.998C62.358 200.951 63.9809 201.472 66.2681 201.472C69.4168 201.472 72.3511 200.658 75.0826 199.029V190.605C72.8843 189.904 70.5677 189.552 68.1304 189.552ZM94.4166 203.896C94.4165 205.859 93.7248 207.399 92.2964 208.426C90.8985 209.431 88.8631 209.894 86.2691 209.894C81.3577 209.894 77.9243 208.44 76.1949 205.383C72.1194 208.385 67.6303 209.894 62.7379 209.894C57.6981 209.894 53.6546 208.748 50.6636 206.397L50.6539 206.39C47.717 203.964 46.2564 200.67 46.2564 196.565C46.2564 192.371 48.0014 188.928 51.4517 186.272C54.9158 183.606 60.3128 182.32 67.5425 182.32C70.1664 182.32 72.6797 182.48 75.0826 182.798V179.338C75.0826 175.155 74.331 172.313 72.9459 170.681L72.939 170.673C71.6079 169.033 69.7648 168.2 67.3463 168.2C64.9061 168.2 62.9808 168.926 61.5211 170.346C60.1324 171.759 59.4146 173.698 59.4146 176.223V176.678L58.9605 176.72C56.2758 176.971 53.9789 176.598 52.1031 175.56L52.0933 175.555L52.0845 175.549C50.2289 174.415 49.2955 172.691 49.2955 170.449C49.2955 167.286 51.0765 164.731 54.4478 162.777C57.8151 160.826 62.1255 159.869 67.3463 159.869C74.1445 159.869 79.3367 161.411 82.8306 164.581C86.3336 167.76 88.0435 172.497 88.0435 178.696V202.718L93.9742 203.399L94.4166 203.45V203.896Z" fill="url(#paint4_linear_3_2)" stroke="black"/>
<path d="M25.4141 159.869C30.1786 159.869 34.1015 160.827 37.1455 162.783L37.4336 162.963C40.3625 164.839 41.8954 167.275 41.8955 170.266C41.8955 173.246 40.9385 175.455 38.918 176.736C36.997 177.955 34.9537 178.443 32.8057 178.185L32.376 178.133L32.3652 177.701C32.3022 175.168 31.5793 172.978 30.207 171.112C28.8919 169.324 26.7478 168.384 23.6484 168.384C20.6987 168.384 18.3668 169.717 16.6191 172.459L16.6162 172.463C14.86 175.159 13.9522 179.02 13.9521 184.102C13.9521 189.728 15.1105 193.854 17.3428 196.568C19.5598 199.263 22.9047 200.647 27.4727 200.647C31.7153 200.647 35.7895 199.052 39.7041 195.813L39.9678 195.595L40.2676 195.763C41.0347 196.193 41.621 196.897 42.0459 197.823C42.4534 198.712 42.6796 199.519 42.6797 200.23C42.6797 201.383 42.1098 202.493 41.0947 203.555C40.0803 204.615 38.5838 205.666 36.6338 206.717L36.6348 206.718C32.7598 208.841 28.2956 209.894 23.2568 209.894C16.222 209.894 10.6228 207.782 6.52246 203.51L6.5166 203.504C2.48435 199.17 0.50001 193.138 0.5 185.477C0.5 177.798 2.75673 171.586 7.30859 166.894C11.8625 162.199 17.9159 159.869 25.4141 159.869Z" fill="url(#paint5_linear_3_2)" stroke="black"/>
<path d="M165.285 97.3337C165.247 97.3078 165.196 97.2932 165.143 97.2932H164.322C164.306 97.2932 164.29 97.2944 164.275 97.2969L164.231 97.3081L155.271 100.441C153.829 100.945 153.566 102.329 154.769 103.088L167.236 110.95C168.19 111.552 169.036 112.311 169.737 113.195L179.285 125.236C179.983 126.116 181.359 126.607 182.766 126.48L190.925 125.743C192.377 125.612 193.273 124.548 192.751 123.574L186.082 111.13C186.072 111.11 186.055 111.092 186.034 111.078L186.011 111.064L183.763 109.9L165.285 97.3337Z" fill="url(#paint6_linear_3_2)"/>
<path d="M194.692 88.7499C195.424 88.229 196.417 87.9364 197.452 87.9364H222.646C223.695 87.9364 224.532 88.5887 225.21 89.3907C226.04 90.3738 226.711 91.7832 226.13 92.9315C222.233 100.641 218.14 105.406 212.415 107.89C206.554 110.434 198.936 110.608 187.942 109.033C186.519 108.829 185.163 108.297 183.965 107.502L174.124 100.976C171.457 99.2072 171.805 95.1879 174.737 93.904C175.352 93.6346 176.06 93.492 176.782 93.492H186.243C187.387 93.492 188.484 93.1686 189.293 92.5928L194.692 88.7499Z" fill="url(#paint7_linear_3_2)"/>
<path d="M103.898 72.8004C103.861 72.7577 103.795 72.7316 103.724 72.7316H93.0426C92.9767 72.7316 92.9147 72.7541 92.8761 72.7921L85.9052 79.6547C85.841 79.7178 85.8578 79.8058 85.9433 79.8546C88.7206 81.4371 90.5854 82.2951 92.6991 82.7329C94.8076 83.1695 97.1469 83.1839 100.854 83.1118C100.91 83.1107 100.963 83.0932 101.001 83.0635C101.038 83.0339 101.058 82.9946 101.053 82.9547C100.846 80.9857 100.892 79.4599 101.322 77.9408C101.751 76.4211 102.566 74.8999 103.909 72.942C103.94 72.8967 103.936 72.8432 103.898 72.8004Z" fill="url(#paint8_linear_3_2)"/>
<path d="M85.2046 72.7316H90.1668C90.1798 72.7316 90.1926 72.7325 90.2051 72.7342C90.2686 72.7427 90.3236 72.7723 90.3521 72.8147C90.3862 72.8654 90.3764 72.9256 90.3268 72.9694L84.3698 78.2326C84.3326 78.2655 84.2773 78.2855 84.2182 78.2872C75.8565 78.526 70.2028 77.7986 66.2781 75.3426C62.9067 73.2328 60.8454 69.8682 59.4005 64.8256C58.9226 63.1577 58.1091 61.6044 57.017 60.2562C55.1709 57.977 54.0484 56.0133 53.4757 54.0331C52.7403 51.4899 52.9155 48.9321 53.6053 45.6629L53.6138 45.6377C55.4229 41.8415 57.2885 39.1956 60.0562 37.2189C61.6429 36.0858 63.5199 35.1769 65.8396 34.3964C69.3754 33.2066 72.1999 30.5349 73.7056 27.1216C75.6776 22.6514 78.3149 19.5392 82.1668 17.4871C86.7094 15.0669 92.9069 14.1396 101.597 14.1579C104.567 14.1642 107.382 12.9157 109.54 10.8757C113.483 7.14968 117.39 4.83056 121.967 3.83134C126.943 2.74482 132.672 3.22729 140.032 5.10479C142.561 5.74987 145.235 5.47561 147.602 4.37645C153.499 1.63799 158.548 0.330567 163.575 0.517565C168.843 0.713543 174.049 2.54933 180.147 6.03542C181.944 7.06272 183.99 7.58926 186.058 7.51191C194.118 7.21056 199.866 7.7838 204.254 9.62937C209.092 11.6637 212.584 15.2419 215.425 21.0276C215.44 21.0577 215.468 21.0836 215.505 21.1012C225.246 25.6925 231.063 29.7418 232.805 34.502C234.546 39.2577 232.234 44.7715 225.523 52.3252L225.103 52.7693C225.029 52.8476 225.042 53.0252 224.956 53.09L224.764 53.2339C224.564 53.3842 224.6 53.6947 224.83 53.7948L226.946 54.7188C228.047 55.1994 228.226 56.7445 228.154 57.9434C228.151 58 228.149 58.0569 228.149 58.1141C228.149 60.2942 230.632 62.0615 233.695 62.0615C236.758 62.0615 239.241 60.2942 239.241 58.1141C239.241 55.9341 236.758 54.1667 233.695 54.1667C231.94 54.1668 230.08 54.0928 228.625 53.1101L228.216 52.8338L228.244 52.807L228.248 52.8036C228.275 52.777 228.306 52.7468 228.341 52.713C228.489 52.5684 228.701 52.3595 228.959 52.1019C229.473 51.587 230.168 50.8773 230.888 50.0988C231.609 49.3205 232.356 48.4719 232.976 47.6794C233.594 46.8898 234.092 46.1454 234.305 45.5786C234.315 45.5504 234.328 45.5462 234.341 45.5429C234.367 45.5359 234.428 45.5307 234.542 45.5506C234.768 45.5904 235.102 45.712 235.528 45.9244C236.373 46.3457 237.513 47.0896 238.763 48.1023C241.262 50.1264 244.181 53.2042 246.058 56.8669C247.935 60.5287 248.767 64.7689 247.109 69.1254C245.485 73.3925 241.465 77.7864 233.652 81.8665C233.363 82.017 233.052 82.1245 232.733 82.1872C232.385 82.2555 232.03 82.2655 231.676 82.2481C231.529 82.2408 231.38 82.2372 231.23 82.2372C231.121 82.2372 231.013 82.2391 230.905 82.243C226.585 82.3975 222.105 85.736 217.782 85.736H206.015C205.661 85.736 205.308 85.707 204.96 85.6494C203.258 85.368 201.495 85.9531 199.772 86.0325C199.688 86.0364 199.604 86.0384 199.52 86.0384H197.364C196.239 86.0384 195.159 86.351 194.354 86.9096L188.735 90.8056C188.007 91.311 187.029 91.594 186.012 91.594H178.066C177.042 91.5939 176.06 91.3076 175.33 90.7967L164.583 83.276C164.319 83.0907 164.022 82.9305 163.699 82.7994L163.671 82.788C163.019 82.5229 162.281 82.3834 161.531 82.3834H145.827C144.563 82.3834 143.361 82.7784 142.542 83.4636L141.951 83.961C140.284 85.3637 137.891 85.4536 135.712 85.4536C132.536 85.4536 129.961 87.2864 129.961 89.5472C129.961 91.808 132.536 93.6407 135.712 93.6408C138.889 93.6408 141.464 91.808 141.464 89.5472C141.464 88.4494 141.538 87.1853 142.405 86.5118L144.504 84.8816C145.242 84.314 146.281 83.9916 147.368 83.9916H160.672H161.055C162.129 83.9916 163.156 84.3068 163.894 84.8631C168.068 88.012 167.558 94.3998 162.673 96.265C141.502 104.35 122.38 101.271 112.173 94.068C106.249 89.8873 103.322 84.3175 104.709 78.7149C106.097 73.1135 111.804 67.4498 123.231 63.0947C123.509 62.9886 123.822 62.9031 124.129 62.8497L156.94 55.4711L162.58 54.133C163.336 53.9535 164.137 53.9358 164.866 53.668C164.908 53.6526 164.949 53.6365 164.989 53.6197C166.257 53.0894 165.939 51.7757 164.615 51.4084C163.278 51.0376 161.649 50.73 161.253 50.7927L146.69 55.0331C140.365 56.8747 134.018 52.2038 133.896 45.6174L133.864 43.8619C133.864 43.1182 133.484 42.3996 132.796 41.84L126.01 36.3212C124.978 35.4822 124.558 34.2027 124.465 32.8762L124.445 32.578C124.445 32.0135 124.392 28.9012 124.418 28.134C124.433 26.258 125.887 24.7816 127.391 23.6603C128.482 22.847 129.152 21.7452 129.152 20.5318C129.152 18.0288 126.301 15.9996 122.784 15.9996C119.267 15.9996 116.416 18.0288 116.416 20.5318C116.416 24.944 121.949 28.3986 121.949 32.8107V34.8001C121.949 35.5393 122.324 36.2537 123.005 36.812L130.293 42.7905C130.885 43.2761 131.222 43.8929 131.246 44.5355L131.417 55.9657C131.446 57.9365 130 59.619 128.047 59.8857C126.722 60.1371 125.309 59.8753 124.325 59.1964L107.319 47.4672C106.561 46.944 106.133 46.2242 106.133 45.4724C106.133 44.0714 107.239 42.9661 108.479 42.3146C109.797 41.6224 110.652 40.5094 110.652 39.2543C110.652 37.155 108.26 35.4531 105.311 35.4531C102.361 35.4532 99.9701 37.155 99.9701 39.2543C99.9701 40.3513 100.623 41.3396 101.668 42.0333C102.917 42.8633 104.078 44.0519 104.078 45.5521C104.078 46.3335 104.497 47.0855 105.249 47.6548L120.012 58.8326C121.698 60.1096 121.322 62.1654 119.232 63.0924L108.765 68.2473C108.436 68.4093 108.127 68.607 107.843 68.8363C107.645 68.9956 107.46 69.1702 107.289 69.3587C106.35 70.3912 105.02 70.9798 103.624 70.9798H85.5152C84.4403 70.9797 83.4125 70.664 82.6751 70.1074L79.1674 67.4718C78.2413 66.7759 78.1961 65.413 78.1961 64.2545C78.1961 62.0745 75.713 60.3071 72.6499 60.3071C69.5869 60.3072 67.1037 62.0745 67.1037 64.2545C67.1037 66.4346 69.5869 68.2019 72.6499 68.202H72.7359C74.7518 68.2017 76.9135 68.2015 78.5839 69.3223L82.4127 71.8915C83.1714 72.4036 84.1639 72.7013 85.2046 72.7316Z" fill="url(#paint9_linear_3_2)"/>
<path d="M107.769 68.8244C107.84 68.8729 108.037 68.7654 107.984 68.8245M84.8216 72.7316H90.1668C90.2458 72.7316 90.318 72.7639 90.3521 72.8147C90.3862 72.8654 90.3764 72.9256 90.3268 72.9694L84.3698 78.2326C84.3326 78.2655 84.2773 78.2855 84.2182 78.2872C75.8565 78.526 70.2028 77.7986 66.2781 75.3426C62.9067 73.2328 60.8454 69.8682 59.4005 64.8256C58.9226 63.1577 58.1091 61.6044 57.017 60.2562C55.1709 57.977 54.0484 56.0133 53.4757 54.0331C52.7403 51.4899 52.9155 48.9321 53.6053 45.6629L53.6138 45.6377C55.4229 41.8415 57.2885 39.1956 60.0562 37.2189C61.6429 36.0858 63.5199 35.1769 65.8396 34.3964C69.3754 33.2066 72.1999 30.5349 73.7056 27.1216C75.6776 22.6515 78.3149 19.5392 82.1668 17.4871C86.7094 15.0669 92.9069 14.1396 101.597 14.1579C104.567 14.1642 107.382 12.9157 109.54 10.8757C113.483 7.14968 117.39 4.83056 121.967 3.83134C126.943 2.74482 132.672 3.22729 140.032 5.10479C142.561 5.74987 145.235 5.47561 147.602 4.37645C153.499 1.63799 158.548 0.330567 163.575 0.517565C168.843 0.713543 174.049 2.54933 180.147 6.03542C181.944 7.06272 183.99 7.58926 186.058 7.51191C194.118 7.21056 199.866 7.7838 204.254 9.62937C209.092 11.6637 212.584 15.2419 215.425 21.0276C215.44 21.0577 215.468 21.0836 215.505 21.1012C225.246 25.6925 231.063 29.7418 232.805 34.502C234.546 39.2577 232.234 44.7715 225.523 52.3252L225.103 52.7693C225.029 52.8476 225.042 53.0252 224.956 53.09L224.764 53.2339C224.564 53.3842 224.6 53.6947 224.83 53.7948L226.946 54.7188C228.047 55.1994 228.226 56.7445 228.154 57.9434C228.151 58 228.149 58.0569 228.149 58.1141C228.149 60.2942 230.632 62.0615 233.695 62.0615C236.758 62.0615 239.241 60.2942 239.241 58.1141C239.241 55.934 236.758 54.1667 233.695 54.1667C231.94 54.1668 230.08 54.0928 228.625 53.1101L228.216 52.8338M146.808 83.989H160.495C161.683 83.989 162.818 84.3376 163.633 84.9524M228.216 52.8338L228.244 52.807M228.216 52.8338C228.225 52.8253 228.234 52.8164 228.244 52.807M90.2971 72.7342H85.3812C84.2766 72.7342 83.2142 72.4325 82.4127 71.8915L78.5839 69.3223C76.8897 68.1855 74.6901 68.202 72.6499 68.202C69.5869 68.2019 67.1037 66.4346 67.1037 64.2545C67.1037 62.0745 69.5869 60.3072 72.6499 60.3071C75.713 60.3071 78.1961 62.0745 78.1961 64.2545C78.1961 65.413 78.2413 66.7759 79.1674 67.4718L82.6751 70.1074C83.4125 70.664 84.4403 70.9797 85.5152 70.9798H103.624C105.02 70.9798 106.35 70.3912 107.289 69.3587C107.707 68.8989 108.208 68.5219 108.765 68.2473L119.232 63.0924C121.322 62.1654 121.698 60.1096 120.012 58.8326L105.249 47.6548C104.497 47.0855 104.078 46.3335 104.078 45.5521C104.078 44.0519 102.917 42.8633 101.668 42.0333C100.623 41.3396 99.9701 40.3513 99.9701 39.2543C99.9701 37.155 102.361 35.4532 105.311 35.4531C108.26 35.4531 110.652 37.155 110.652 39.2543C110.652 40.5094 109.797 41.6224 108.479 42.3146C107.239 42.9661 106.133 44.0714 106.133 45.4724C106.133 46.2242 106.561 46.944 107.319 47.4672L124.325 59.1964C125.309 59.8753 126.722 60.1371 128.047 59.8857C130 59.619 131.446 57.9365 131.417 55.9657L131.246 44.5355C131.222 43.8929 130.885 43.2761 130.293 42.7905L123.005 36.812C122.324 36.2537 121.949 35.5393 121.949 34.8001V32.8107C121.949 28.3986 116.416 24.944 116.416 20.5318C116.416 18.0288 119.267 15.9996 122.784 15.9996C126.301 15.9996 129.152 18.0288 129.152 20.5318C129.152 21.7452 128.482 22.847 127.391 23.6603C125.887 24.7816 124.433 26.258 124.418 28.134C124.392 28.9012 124.445 32.0135 124.445 32.578L124.465 32.8762C124.558 34.2027 124.978 35.4822 126.01 36.3212L132.796 41.84C133.484 42.3996 133.864 43.1182 133.864 43.8619L133.896 45.6174C134.018 52.2038 140.365 56.8747 146.69 55.0331L161.253 50.7927C161.649 50.73 163.278 51.0376 164.615 51.4084C165.939 51.7757 166.257 53.0894 164.989 53.6197C164.949 53.6365 164.908 53.6526 164.866 53.668C164.137 53.9358 163.336 53.9535 162.58 54.133L156.94 55.4711L124.129 62.8497C123.822 62.9031 123.509 62.9886 123.231 63.0947C111.804 67.4498 106.097 73.1135 104.709 78.7149C103.322 84.3175 106.249 89.8872 112.173 94.068C122.38 101.271 141.502 104.35 162.673 96.265C167.558 94.3998 168.068 88.012 163.894 84.8631C163.156 84.3068 162.129 83.9916 161.055 83.9916H147.368C146.281 83.9916 145.242 84.314 144.504 84.8816L142.405 86.5118C141.538 87.1853 141.464 88.4494 141.464 89.5472C141.464 91.808 138.889 93.6408 135.712 93.6408C132.536 93.6407 129.961 91.808 129.961 89.5472C129.961 87.2864 132.536 85.4536 135.712 85.4536C137.891 85.4536 140.284 85.3637 141.951 83.961L142.542 83.4636C143.361 82.7784 144.563 82.3834 145.827 82.3834H161.531C162.281 82.3834 163.019 82.5229 163.671 82.788L163.699 82.7994C164.022 82.9305 164.319 83.0907 164.583 83.276L175.33 90.7967C176.06 91.3076 177.042 91.5939 178.066 91.594H186.012C187.029 91.594 188.007 91.311 188.735 90.8056L194.354 86.9096C195.159 86.351 196.239 86.0384 197.364 86.0384H199.52C199.604 86.0384 199.688 86.0364 199.772 86.0326C201.495 85.9531 203.258 85.368 204.96 85.6494C205.308 85.707 205.661 85.736 206.015 85.736L217.782 85.736C222.105 85.736 226.585 82.3975 230.905 82.243C231.013 82.2391 231.121 82.2372 231.23 82.2372C231.38 82.2372 231.529 82.2408 231.676 82.2481C232.03 82.2655 232.385 82.2555 232.733 82.1872C233.052 82.1245 233.363 82.017 233.652 81.8665C241.465 77.7864 245.485 73.3925 247.109 69.1254C248.767 64.7689 247.935 60.5287 246.058 56.8669C244.181 53.2042 241.262 50.1264 238.763 48.1023C237.513 47.0896 236.373 46.3457 235.528 45.9244C235.102 45.712 234.768 45.5904 234.542 45.5506C234.428 45.5307 234.367 45.5359 234.341 45.5429C234.328 45.5462 234.315 45.5504 234.305 45.5786C234.092 46.1454 233.594 46.8898 232.976 47.6794C232.356 48.4719 231.609 49.3205 230.888 50.0988C230.168 50.8773 229.473 51.587 228.959 52.1019C228.701 52.3595 228.489 52.5684 228.341 52.713C228.306 52.7468 228.275 52.777 228.248 52.8036L228.244 52.807M165.143 97.2932C165.196 97.2932 165.247 97.3078 165.285 97.3337L183.763 109.9L186.011 111.064L186.034 111.078C186.055 111.092 186.072 111.11 186.082 111.13L192.751 123.574C193.273 124.548 192.377 125.612 190.925 125.743L182.766 126.48C181.359 126.607 179.983 126.116 179.285 125.236L169.737 113.195C169.036 112.311 168.19 111.552 167.236 110.95L154.769 103.088C153.566 102.329 153.829 100.945 155.271 100.441L164.231 97.3081L164.275 97.2969C164.29 97.2944 164.306 97.2932 164.322 97.2932H165.143ZM155.452 100.703C154.272 101.116 154.057 102.249 155.041 102.869L168.977 111.658L169 111.675C169.007 111.681 169.014 111.688 169.02 111.695L179.643 125.092C180.258 125.868 181.472 126.303 182.715 126.19L190.873 125.453C192.061 125.345 192.794 124.475 192.367 123.679L186.896 113.468C186.13 112.039 184.949 110.876 183.51 110.131C183.505 110.128 183.501 110.126 183.496 110.123C183.494 110.122 183.491 110.12 183.489 110.118L165.43 97.8363C165.19 97.673 164.906 97.5856 164.616 97.5856C164.453 97.5856 164.291 97.613 164.138 97.6667L155.452 100.703ZM197.452 87.9364C196.417 87.9364 195.424 88.229 194.692 88.7499L189.293 92.5928C188.484 93.1686 187.387 93.492 186.243 93.492H176.782C176.06 93.492 175.352 93.6346 174.737 93.904C171.805 95.1879 171.457 99.2072 174.124 100.976L183.965 107.502C185.163 108.297 186.519 108.829 187.942 109.033C198.936 110.608 206.554 110.434 212.415 107.89C218.14 105.406 222.233 100.641 226.13 92.9315C226.711 91.7832 226.04 90.3738 225.21 89.3907C224.532 88.5887 223.695 87.9364 222.646 87.9364H197.452ZM103.724 72.7316C103.795 72.7316 103.861 72.7577 103.898 72.8004C103.936 72.8432 103.94 72.8967 103.909 72.942C102.566 74.8999 101.751 76.4211 101.322 77.9408C100.892 79.4599 100.846 80.9857 101.053 82.9547C101.058 82.9946 101.038 83.0339 101.001 83.0635C100.963 83.0932 100.91 83.1107 100.854 83.1118C97.1469 83.1839 94.8076 83.1695 92.6991 82.7329C90.5854 82.2951 88.7206 81.4371 85.9433 79.8546C85.8578 79.8058 85.841 79.7178 85.9052 79.6547L92.8761 72.7921C92.9147 72.7541 92.9767 72.7316 93.0426 72.7316H103.724Z" stroke="black" stroke-linecap="round" stroke-linejoin="round"/>
<defs>
<linearGradient id="paint0_linear_3_2" x1="171.831" y1="117.816" x2="171.831" y2="273.168" gradientUnits="userSpaceOnUse">
<stop offset="0.288732" stop-color="#B74DCD"/>
<stop offset="0.369087" stop-color="#A546B9"/>
<stop offset="0.458785" stop-color="#743082"/>
<stop offset="0.56904" stop-color="#2F1535"/>
</linearGradient>
<linearGradient id="paint1_linear_3_2" x1="171.831" y1="117.815" x2="171.831" y2="273.168" gradientUnits="userSpaceOnUse">
<stop offset="0.298962" stop-color="#B74DCD"/>
<stop offset="0.400585" stop-color="#943FA6"/>
<stop offset="0.49468" stop-color="#7A3589"/>
<stop offset="0.564626" stop-color="#2C1431"/>
</linearGradient>
<linearGradient id="paint2_linear_3_2" x1="171.831" y1="117.844" x2="171.831" y2="273.196" gradientUnits="userSpaceOnUse">
<stop offset="0.293927" stop-color="#B74DCC"/>
<stop offset="0.354212" stop-color="#A044B3"/>
<stop offset="0.417008" stop-color="#9241A2"/>
<stop offset="0.477293" stop-color="#873E96"/>
<stop offset="0.538362" stop-color="#622170"/>
<stop offset="0.538462" stop-color="#61216F"/>
<stop offset="0.572743" stop-color="#34163A"/>
<stop offset="0.610477" stop-color="#3E297F"/>
<stop offset="0.658146" stop-color="#4E2C83"/>
<stop offset="0.697115" stop-color="#5B2F86"/>
<stop offset="0.756109" stop-color="#5B2F86"/>
</linearGradient>
<linearGradient id="paint3_linear_3_2" x1="171.831" y1="117.815" x2="171.831" y2="273.168" gradientUnits="userSpaceOnUse">
<stop offset="0.177751" stop-color="#B54CCB"/>
<stop offset="0.274531" stop-color="#903EA0"/>
<stop offset="0.274631" stop-color="#9640A7"/>
<stop offset="0.364202" stop-color="#893F98"/>
<stop offset="0.490385" stop-color="#763284"/>
<stop offset="0.582884" stop-color="#34163A"/>
</linearGradient>
<linearGradient id="paint4_linear_3_2" x1="171.831" y1="117.816" x2="171.831" y2="273.168" gradientUnits="userSpaceOnUse">
<stop offset="0.28373" stop-color="#B74DCD"/>
<stop offset="0.336059" stop-color="#A847BD"/>
<stop offset="0.417171" stop-color="#9240A3"/>
<stop offset="0.482583" stop-color="#732F81"/>
<stop offset="0.561078" stop-color="#3D1844"/>
</linearGradient>
<linearGradient id="paint5_linear_3_2" x1="171.831" y1="117.816" x2="171.831" y2="273.168" gradientUnits="userSpaceOnUse">
<stop offset="0.303873" stop-color="#B74DCC"/>
<stop offset="0.400263" stop-color="#8F3D9F"/>
<stop offset="0.496652" stop-color="#853F94"/>
<stop offset="0.577182" stop-color="#331639"/>
</linearGradient>
<linearGradient id="paint6_linear_3_2" x1="150.426" y1="0.5" x2="150.426" y2="126.5" gradientUnits="userSpaceOnUse">
<stop stop-color="#B84DCE"/>
<stop offset="0.149038" stop-color="#AD49C2"/>
<stop offset="0.302885" stop-color="#9C45AE"/>
<stop offset="0.394231" stop-color="#9540A7"/>
<stop offset="0.543269" stop-color="#843E92"/>
<stop offset="0.682692" stop-color="#672374"/>
<stop offset="0.8125" stop-color="#4E1D58"/>
<stop offset="1" stop-color="#2B1430"/>
</linearGradient>
<linearGradient id="paint7_linear_3_2" x1="150.426" y1="0.5" x2="150.426" y2="126.5" gradientUnits="userSpaceOnUse">
<stop stop-color="#B84DCE"/>
<stop offset="0.149038" stop-color="#AD49C2"/>
<stop offset="0.302885" stop-color="#9C45AE"/>
<stop offset="0.394231" stop-color="#9540A7"/>
<stop offset="0.543269" stop-color="#843E92"/>
<stop offset="0.682692" stop-color="#672374"/>
<stop offset="0.8125" stop-color="#4E1D58"/>
<stop offset="1" stop-color="#2B1430"/>
</linearGradient>
<linearGradient id="paint8_linear_3_2" x1="150.426" y1="0.5" x2="150.426" y2="126.5" gradientUnits="userSpaceOnUse">
<stop stop-color="#B84DCE"/>
<stop offset="0.149038" stop-color="#AD49C2"/>
<stop offset="0.302885" stop-color="#9C45AE"/>
<stop offset="0.394231" stop-color="#9540A7"/>
<stop offset="0.543269" stop-color="#843E92"/>
<stop offset="0.682692" stop-color="#672374"/>
<stop offset="0.8125" stop-color="#4E1D58"/>
<stop offset="1" stop-color="#2B1430"/>
</linearGradient>
<linearGradient id="paint9_linear_3_2" x1="150.426" y1="0.5" x2="150.426" y2="126.5" gradientUnits="userSpaceOnUse">
<stop stop-color="#B84DCE"/>
<stop offset="0.149038" stop-color="#AD49C2"/>
<stop offset="0.302885" stop-color="#9C45AE"/>
<stop offset="0.394231" stop-color="#9540A7"/>
<stop offset="0.543269" stop-color="#843E92"/>
<stop offset="0.682692" stop-color="#672374"/>
<stop offset="0.8125" stop-color="#4E1D58"/>
<stop offset="1" stop-color="#2B1430"/>
</linearGradient>
</defs>
</svg>
