<svg width="392" height="416" viewBox="0 0 392 416" fill="none" xmlns="http://www.w3.org/2000/svg">
<path d="M392 407.86C392 413.046 388.724 415.639 382.171 415.639C375.618 415.639 371.376 413.391 369.444 408.897C364.151 413.391 358.312 415.639 351.928 415.639C345.543 415.639 340.502 414.04 336.806 410.842C333.194 407.558 331.387 403.106 331.387 397.489C331.387 391.784 333.53 387.117 337.814 383.487C342.099 379.857 348.861 378.042 358.102 378.042C361.715 378.042 365.159 378.302 368.435 378.82V373.116C368.435 367.153 367.469 362.918 365.537 360.411C363.689 357.905 361.127 356.652 357.85 356.652C354.574 356.652 351.928 357.732 349.911 359.893C347.979 362.053 347.013 364.992 347.013 368.708C343.653 369.054 340.838 368.535 338.57 367.153C336.386 365.683 335.294 363.479 335.294 360.541C335.294 356.392 337.394 352.978 341.594 350.299C345.795 347.62 351.214 346.28 357.85 346.28C375.156 346.28 383.809 354.923 383.809 372.209V406.823L392 407.86ZM368.435 388.543C365.411 387.42 362.219 386.858 358.858 386.858C355.582 386.858 352.852 387.679 350.667 389.321C348.483 390.877 347.391 393.124 347.391 396.063C347.391 402.113 350.415 405.138 356.464 405.138C360.749 405.138 364.739 403.884 368.435 401.378V388.543Z" fill="#5548F5"/>
<path d="M309.403 348.225H327.549C327.549 353.756 326.036 356.651 323.012 356.911L321.122 357.17L298.439 413.694H289.997L267.692 357.429H267.566L261.769 356.651C261.685 354.404 262.063 352.46 262.904 350.818C263.744 349.089 265.172 348.225 267.188 348.225H292.139C291.971 351.423 291.593 353.41 291.005 354.188C289.744 355.83 288.274 356.738 286.594 356.911L284.578 357.17L296.801 389.84L309.151 357.3L303.732 356.651C303.48 356.133 303.522 354.966 303.858 353.151C304.614 349.867 306.462 348.225 309.403 348.225Z" fill="#5548F5"/>
<path d="M237.702 363.174C235.349 358.593 231.989 356.303 227.621 356.303C223.252 356.303 219.85 358.55 217.413 363.044C215.061 367.539 213.885 373.675 213.885 381.454C213.885 389.146 215.061 395.152 217.413 399.474C219.85 403.709 223.252 405.826 227.621 405.826C231.989 405.826 235.349 403.752 237.702 399.603C240.138 395.368 241.356 389.405 241.356 381.713C241.356 373.934 240.138 367.755 237.702 363.174ZM197.881 382.102C197.881 371.039 200.528 362.31 205.82 355.914C211.197 349.519 218.632 346.321 228.125 346.321C237.618 346.321 244.842 349.389 249.799 355.525C254.84 361.662 257.36 370.175 257.36 381.065C257.36 391.868 254.672 400.338 249.295 406.474C243.918 412.611 236.399 415.679 226.738 415.679C217.161 415.679 209.937 412.827 205.064 407.123C200.275 401.418 197.881 393.078 197.881 382.102Z" fill="#5548F5"/>
<path d="M192.192 407.471C192.192 413.002 188.622 415.768 181.481 415.768C174.424 415.768 170.224 413.391 168.879 408.638C163.503 413.305 157.37 415.638 150.481 415.638C143.677 415.638 137.796 413.132 132.839 408.119C127.883 403.02 125.321 394.939 125.153 383.876C124.985 372.813 127.547 363.782 132.839 356.781C138.216 349.78 146.071 346.28 156.404 346.28C161.025 346.28 165.015 347.015 168.375 348.484V332.408L163.461 331.89C160.016 331.544 158.462 328.865 158.798 323.852L183.749 321V406.693L192.192 407.471ZM155.396 356.781C145.903 356.781 141.156 364.862 141.156 381.024C141.156 388.457 142.374 394.204 144.811 398.266C147.331 402.329 150.817 404.36 155.27 404.36C159.806 404.36 164.175 402.415 168.375 398.526V361.967C164.343 358.51 160.016 356.781 155.396 356.781Z" fill="#5548F5"/>
<path d="M119.421 407.86C119.421 413.046 116.145 415.639 109.592 415.639C103.039 415.639 98.7967 413.391 96.8644 408.897C91.5719 413.391 85.7332 415.639 79.3485 415.639C72.9638 415.639 67.9232 414.04 64.2268 410.842C60.6144 407.558 58.8082 403.106 58.8082 397.489C58.8082 391.784 60.9505 387.117 65.2349 383.487C69.5194 379.857 76.2822 378.042 85.5232 378.042C89.1356 378.042 92.58 378.302 95.8563 378.82V373.116C95.8563 367.153 94.8902 362.918 92.958 360.411C91.1098 357.905 88.5475 356.652 85.2712 356.652C81.9948 356.652 79.3485 357.732 77.3323 359.893C75.4001 362.053 74.434 364.992 74.434 368.708C71.0736 369.054 68.2593 368.535 65.991 367.153C63.8068 365.683 62.7147 363.479 62.7147 360.541C62.7147 356.392 64.8149 352.978 69.0154 350.299C73.2158 347.62 78.6344 346.28 85.2712 346.28C102.577 346.28 111.23 354.923 111.23 372.209V406.823L119.421 407.86ZM95.8563 388.543C92.832 387.42 89.6396 386.858 86.2793 386.858C83.0029 386.858 80.2726 387.679 78.0884 389.321C75.9041 390.877 74.812 393.124 74.812 396.063C74.812 402.113 77.8363 405.138 83.885 405.138C88.1695 405.138 92.1599 403.884 95.8563 401.378V388.543Z" fill="#5548F5"/>
<path d="M31.3775 346.28C37.4261 346.28 42.3407 347.62 46.1211 350.299C49.9855 352.892 51.9177 356.219 51.9177 360.281C51.9177 364.344 50.7416 367.196 48.3894 368.838C46.0371 370.48 43.5588 371.128 40.9545 370.782C40.8705 367.066 39.9044 363.825 38.0562 361.059C36.208 358.294 33.2257 356.911 29.1092 356.911C25.0768 356.911 21.8844 358.942 19.5322 363.004C17.1799 366.98 16.0038 372.597 16.0038 379.857C16.0038 395.933 22.0104 403.971 34.0238 403.971C39.6524 403.971 45.029 401.637 50.1536 396.97C50.9936 397.489 51.6657 398.353 52.1698 399.563C52.6738 400.773 52.9259 401.81 52.9259 402.674C52.9259 405.44 50.4476 408.292 45.491 411.231C40.6185 414.169 34.9899 415.639 28.6052 415.639C19.7002 415.639 12.6854 412.7 7.56084 406.823C2.52028 400.859 0 392.519 0 381.802C0 371.085 2.85632 362.485 8.56895 356.003C14.2816 349.521 21.8844 346.28 31.3775 346.28Z" fill="#5548F5"/>
<path d="M219.606 190.555C219.545 190.504 219.465 190.475 219.381 190.475H218.081C218.057 190.475 218.032 190.478 218.008 190.483L217.939 190.505L203.766 196.669C201.485 197.662 201.069 200.386 202.972 201.878L223.629 218.086C224.518 218.784 225.282 219.626 225.889 220.579L241.75 245.463C242.853 247.194 245.03 248.161 247.256 247.911L260.161 246.46C262.457 246.202 263.875 244.108 263.05 242.193L252.501 217.705C252.484 217.666 252.458 217.63 252.424 217.601L252.388 217.574L248.833 215.285L219.606 190.555Z" fill="#5548F5"/>
<path d="M266.12 173.663C267.277 172.638 268.848 172.062 270.485 172.062H309.555C311.653 172.062 313.367 173.57 314.623 175.251C315.926 176.996 316.904 179.263 316.092 181.284C309.854 196.814 303.328 206.374 294.153 211.329C284.72 216.422 272.41 216.688 254.525 213.412C252.888 213.112 251.356 212.384 250.072 211.325L233.249 197.444C228.733 193.718 229.414 186.607 234.556 183.806C235.528 183.276 236.649 182.995 237.791 182.995H252.755C254.565 182.995 256.3 182.359 257.58 181.226L266.12 173.663Z" fill="#5548F5"/>
<path d="M122.508 142.277C122.448 142.193 122.344 142.142 122.232 142.142H105.337C105.233 142.142 105.135 142.186 105.073 142.261L94.0474 155.765C93.9459 155.89 93.9725 156.063 94.1077 156.159C98.5006 159.273 101.45 160.961 104.794 161.823C108.129 162.682 111.829 162.71 117.692 162.568C117.781 162.566 117.865 162.532 117.925 162.473C117.984 162.415 118.014 162.338 118.008 162.259C117.68 158.384 117.753 155.382 118.432 152.393C119.112 149.402 120.4 146.409 122.524 142.556C122.573 142.467 122.567 142.361 122.508 142.277Z" fill="#5548F5"/>
<path d="M92.9396 142.142H100.788C100.809 142.142 100.829 142.143 100.849 142.147C100.949 142.163 101.036 142.222 101.081 142.305C101.135 142.405 101.12 142.523 101.041 142.61L91.6188 152.967C91.56 153.031 91.4726 153.071 91.3789 153.074C78.153 153.544 69.2103 152.113 63.0024 147.28C57.1856 142.751 53.8345 135.284 51.5248 123.799C51.2256 122.311 50.6165 120.901 49.7481 119.657C45.9868 114.267 43.7943 109.828 42.7525 105.346C41.5892 100.341 41.8663 95.3075 42.9575 88.8741L42.9708 88.8247C45.8324 81.3542 48.7832 76.1475 53.1611 72.2577C56.4138 69.3677 60.4378 67.2192 65.7576 65.4006C69.2962 64.1909 72.0602 61.3525 73.0655 57.7504C76.3399 46.0179 80.8726 38.2414 88.1343 33.4281C95.6646 28.4368 106.07 26.6723 120.876 26.8948C124.249 26.9455 127.438 25.3748 129.534 22.731C136.427 14.0366 143.115 8.72105 151.087 6.55561C159.282 4.32959 168.768 5.4502 181.111 9.53109C184.12 10.5261 187.418 10.1439 190.135 8.51242C200.113 2.52151 208.526 -0.353 216.901 0.0345654C225.593 0.436826 234.176 4.34984 244.367 11.797C246.361 13.2544 248.798 13.9915 251.265 13.8586C264.645 13.1378 274.087 14.2207 281.245 17.9653C288.896 21.9686 294.421 29.01 298.914 40.3953C298.937 40.4547 298.982 40.5056 299.041 40.5403C314.448 49.5752 323.649 57.5437 326.405 66.911C329.157 76.2696 325.501 87.12 314.887 101.985L314.222 102.859C314.089 103.033 314.126 103.361 313.966 103.511L313.688 103.771C313.338 104.098 313.411 104.671 313.832 104.9L317.123 106.687C319.023 107.72 319.383 110.319 319.1 112.463C319.06 112.763 319.04 113.068 319.04 113.376C319.04 117.667 322.967 121.144 327.812 121.144C332.657 121.144 336.585 117.667 336.585 113.376C336.585 109.086 332.657 105.609 327.812 105.609C325.085 105.609 322.119 105.485 320.032 103.73L319.146 102.986L319.19 102.933L319.196 102.926C319.239 102.874 319.288 102.814 319.343 102.748C319.577 102.463 319.913 102.052 320.32 101.545C321.134 100.532 322.233 99.1355 323.373 97.6035C324.512 96.0719 325.695 94.4019 326.675 92.8424C327.652 91.2886 328.44 89.8238 328.776 88.7084C328.793 88.6529 328.814 88.6446 328.833 88.6381C328.875 88.6243 328.972 88.614 329.152 88.6533C329.51 88.7315 330.038 88.9708 330.712 89.3888C332.048 90.2178 333.851 91.6817 335.828 93.6746C339.782 97.6577 344.398 103.714 347.367 110.922C350.336 118.128 351.652 126.472 349.029 135.045C346.457 143.453 340.085 152.112 327.694 160.15C327.272 160.424 326.802 160.624 326.312 160.744C325.75 160.881 325.167 160.901 324.589 160.867C324.366 160.854 324.14 160.847 323.913 160.847C322.1 160.847 320.398 161.272 318.928 162.015C314.874 164.063 310.939 167.732 306.397 167.732L284.051 167.732C283.478 167.732 282.906 167.674 282.344 167.559C279.709 167.017 276.956 168.108 274.273 168.308C274.102 168.321 273.929 168.327 273.756 168.327H270.346C268.567 168.327 266.859 168.943 265.585 170.042L256.698 177.709C255.545 178.703 253.999 179.26 252.389 179.26H239.821C238.202 179.26 236.648 178.696 235.493 177.691L218.496 162.891C218.077 162.527 217.607 162.212 217.097 161.954L217.052 161.931C216.021 161.41 214.855 161.135 213.667 161.135H188.828C186.828 161.135 184.928 161.912 183.632 163.261L182.348 164.605C180.025 167.037 176.192 167.177 172.829 167.177C167.805 167.177 163.732 170.783 163.732 175.232C163.732 179.681 167.805 183.288 172.829 183.288C177.854 183.288 181.927 179.681 181.927 175.232C181.927 173.011 182.082 170.549 183.679 169.005L186.735 166.051C187.903 164.934 189.545 164.3 191.265 164.3H212.308H212.915C214.614 164.3 216.239 164.92 217.405 166.015L222.378 170.683C227.053 175.07 226.45 182.694 220.81 185.743C185.223 204.979 152.594 199.053 135.596 184.129C126.225 175.901 121.596 164.941 123.791 153.916C125.985 142.893 135.012 131.748 153.087 123.177C153.527 122.969 154.022 122.8 154.507 122.695L206.405 108.175L215.742 105.42C216.661 105.148 217.641 105.091 218.549 104.783C219.497 104.462 220.181 103.85 220.65 103.263C221.353 102.384 221.201 101.282 220.176 100.817C218.449 100.034 215.473 99.1992 213.987 98.9983C213.483 98.9301 212.988 99.056 212.51 99.2293L183.536 109.725C177.075 112.065 170.233 107.343 170.131 100.472L169.905 85.3301C169.905 83.8665 169.305 82.4526 168.216 81.3512L157.483 70.491C157.017 70.0194 156.608 69.6181 156.253 69.2057C155.463 68.2885 155.228 67.0553 155.16 65.8471L155.007 63.1249C155.007 62.0141 154.923 55.8895 154.965 54.3798C154.989 50.6521 157.938 47.6589 160.378 44.8412C161.68 43.3389 162.453 41.4595 162.453 39.4198C162.453 34.4942 157.943 30.5011 152.381 30.5011C146.818 30.5011 142.308 34.4942 142.308 39.4198C142.308 41.0355 142.793 42.5507 143.642 43.8575C146.406 48.116 151.06 52.0917 151.06 57.1689V67.4977C151.06 68.9524 151.653 70.3582 152.73 71.457L164.257 83.2218C165.193 84.1774 165.727 85.391 165.765 86.6557L166.051 110.454C166.088 113.615 163.821 116.333 160.705 116.863C158.609 117.357 156.375 116.842 154.817 115.506L127.919 92.4249C126.719 91.3952 126.042 89.9788 126.042 88.4993C126.042 85.7238 128.289 83.5293 130.445 81.7815C132.132 80.414 133.19 78.4479 133.19 76.263C133.19 72.1318 129.408 68.7828 124.742 68.7828C120.077 68.7829 116.294 72.1319 116.294 76.263C116.294 78.134 117.07 79.8442 118.352 81.1556L118.394 81.1984C120.467 83.3181 122.793 85.6964 122.793 88.6561C122.793 90.1938 123.455 91.6736 124.644 92.794L147.995 114.79C150.662 117.303 150.067 121.349 146.762 123.173L130.22 133.309C129.68 133.639 129.183 134.032 128.738 134.477C128.449 134.767 128.181 135.079 127.938 135.412C126.431 137.475 124.029 138.694 121.474 138.694H93.4305C91.7304 138.694 90.1046 138.073 88.9383 136.978L83.6739 132.056C81.9595 130.454 81.8536 127.807 81.8536 125.46C81.8536 121.17 77.926 117.692 73.081 117.692C68.2361 117.692 64.3084 121.17 64.3084 125.46C64.3084 129.75 68.2361 133.228 73.081 133.228L73.2705 133.228C76.3904 133.227 79.8239 133.226 82.2088 135.217L88.5232 140.488C89.7233 141.496 91.2933 142.082 92.9396 142.142Z" fill="#5548F5"/>
</svg>
