<svg xmlns="http://www.w3.org/2000/svg" width="512" height="512" viewBox="0 0 223 223" fill="none">
  <rect width="223" height="223" fill="#FFFFFF"/>
  <g transform="matrix(0.76 0 0 0.76 0 39)">
  <path fill-rule="evenodd" clip-rule="evenodd" d="M222.24 8.6431C222.866 8.55284 223.495 8.49898 223.991 8.47158L224.438 8.45269L224.46 8.45232C225.626 8.4839 226.948 8.63814 228.081 9.09362C229.22 9.55136 230.219 10.3366 230.627 11.6489C230.652 11.7309 230.673 11.8151 230.688 11.8996L231.625 17.1972C231.656 17.3738 231.647 17.6071 231.627 17.8365C231.607 18.0802 231.569 18.3721 231.522 18.6903C231.426 19.3272 231.285 20.0994 231.147 20.8613C231.008 21.6277 230.87 22.3848 230.777 23.0046C230.73 23.3145 230.696 23.5843 230.678 23.799C230.658 24.0275 230.662 24.1514 230.669 24.1956C230.692 24.3245 230.676 24.4481 230.656 24.5421C230.634 24.6416 230.599 24.7446 230.559 24.845C230.479 25.0459 230.361 25.2772 230.221 25.5231C229.938 26.0172 229.539 26.6174 229.097 27.2413C228.22 28.4822 227.149 29.8517 226.425 30.7432C224.807 33.1479 222.754 35.4494 219.99 36.4772C219.925 36.5014 219.86 36.5206 219.797 36.5419C219.764 36.5668 219.729 36.59 219.689 36.6049L217.951 37.2516C215.533 38.1519 213.064 38.8994 210.559 39.4938C211.275 39.5114 211.941 39.5243 212.501 39.5232C213.221 39.5217 213.726 39.5011 213.94 39.4633C214.311 39.3977 215.045 39.393 215.907 39.4175C216.787 39.4426 217.851 39.4998 218.914 39.5705C221.033 39.7116 223.182 39.9099 223.886 40.0224C224.548 40.1284 227.103 40.3588 229.694 40.5924C232.259 40.8236 234.86 41.058 235.561 41.1701C236.224 41.2762 239.913 41.6514 243.564 41.9829C245.384 42.1482 247.187 42.3021 248.588 42.4049C249.288 42.4563 249.886 42.4947 250.333 42.5156C250.557 42.5261 250.74 42.5319 250.879 42.5331C250.947 42.5336 251.003 42.5331 251.045 42.5315C251.084 42.53 251.101 42.5283 251.104 42.5281C251.207 42.51 251.34 42.5107 251.463 42.5158C251.598 42.5213 251.763 42.5339 251.952 42.5521C252.331 42.5885 252.822 42.6486 253.386 42.7252C254.514 42.8785 255.95 43.0997 257.398 43.3314C258.846 43.5632 260.311 43.8065 261.497 44.0054C262.686 44.2047 263.593 44.3587 263.932 44.4129C264.25 44.4639 265.01 44.5251 266.013 44.6014C267.004 44.6767 268.21 44.765 269.39 44.8727C270.57 44.9802 271.735 45.1076 272.647 45.2603C273.101 45.3364 273.505 45.4208 273.82 45.5162C273.977 45.5638 274.124 45.618 274.249 45.6805C274.334 45.7233 274.437 45.7837 274.526 45.8707L274.61 45.9671L274.716 46.1059C274.832 46.2492 274.977 46.4082 275.15 46.6071C275.37 46.8598 275.619 47.1578 275.831 47.5002C276.266 48.2001 276.558 49.0958 276.244 50.2175C275.935 51.3177 275.67 53.838 275.506 55.8531C275.408 57.0642 275.164 58.2627 274.75 59.4043C273.951 61.6028 272.561 63.5118 270.744 64.9061L270.317 65.2333C270.094 65.4045 269.657 65.6262 269.162 65.8551C268.65 66.0917 268.028 66.3575 267.4 66.6164C265.709 67.3129 263.944 67.7845 262.159 68.1001C259.334 68.5993 256.45 68.6784 253.593 68.3355L250.614 67.9778C248.241 67.6929 245.854 67.5826 243.471 67.6481L240.934 67.7176C240.916 67.7181 240.897 67.7183 240.88 67.7164L235.947 67.2148L227.519 66.873C227.512 66.8726 227.503 66.8716 227.496 66.8709L223.223 66.4622C221.554 66.3022 219.906 65.9294 218.32 65.3522C217.08 64.9015 215.802 64.5801 214.504 64.3941L207.898 63.448L193.643 61.8677C198.714 63.6865 204.721 66.086 213.896 70.2846L213.897 70.2853L214.063 70.3545C214.506 70.5272 215.33 70.7711 216.408 71.0645C217.625 71.3957 219.119 71.7787 220.658 72.1806C224.828 73.2693 228.748 75.1477 232.385 77.517C235.432 79.5016 238.27 81.8143 240.854 84.4149L240.964 84.5254C242.987 86.5625 244.851 88.7647 246.536 91.1091L249.287 94.9363L256.23 104.261L256.246 104.284L261.085 111.686L261.086 111.688L266.814 120.521C267.459 121.516 267.999 122.581 268.425 123.694L270.428 128.937C270.892 130.153 270.818 131.514 270.224 132.654C269.876 133.32 269.366 133.88 268.744 134.278L267.614 135.001C267.607 135.006 267.599 135.01 267.592 135.014L266.387 135.686C265.542 136.157 264.614 136.452 263.655 136.554L258.531 137.097C257.186 137.329 254.936 137.259 253.551 137.037C252.861 136.927 251.471 136.705 250.039 136.255C248.637 135.813 247.111 135.129 246.183 134.043C246.18 134.04 246.176 134.036 246.172 134.032C246.156 134.017 246.132 133.994 246.101 133.965C246.039 133.907 245.948 133.822 245.835 133.716C245.608 133.504 245.29 133.205 244.923 132.862C244.19 132.174 243.264 131.305 242.493 130.58C240.6 128.798 239.024 126.707 237.581 124.564L236.148 122.437C236.143 122.429 236.137 122.421 236.133 122.412L234.425 119.492C233.488 117.891 232.321 116.445 230.966 115.205L228.458 113.377C226.755 112.135 225.137 110.771 223.617 109.294L222.681 108.385C222.675 108.379 222.669 108.373 222.664 108.367C222.304 107.976 221.712 107.353 221.11 106.755C220.501 106.149 219.907 105.593 219.533 105.32C219.404 105.226 219.234 105.096 219.038 104.943C216.293 102.793 213.234 101.128 209.937 100.228C209.076 99.9928 207.983 99.5965 207.052 99.2954C206.577 99.142 206.141 99.0117 205.775 98.9289C205.392 98.8424 205.146 98.8224 205.022 98.8442C204.739 98.8942 204.186 98.8862 203.382 98.7659C202.563 98.6434 201.45 98.3993 200.031 97.9533C198.916 97.6031 197.89 97.3327 196.938 97.0601C196.007 96.7937 195.149 96.5256 194.403 96.1856L194.143 96.1035C189.857 94.7583 185.456 93.8658 181.009 93.4396C181.005 93.4393 181 93.4383 180.994 93.4377C180.98 93.4366 180.959 93.4354 180.933 93.4332C180.881 93.4286 180.806 93.4211 180.713 93.412C180.528 93.3938 180.271 93.3663 179.983 93.3296C179.418 93.2572 178.704 93.1449 178.197 92.9858C177.929 92.9017 177.475 92.8288 176.902 92.773C176.339 92.718 175.689 92.6824 175.049 92.6633C173.751 92.6245 172.55 92.6562 172.171 92.7231C168.805 93.3182 165.54 94.3981 162.473 95.9319L161.593 96.3724C159.648 97.3451 157.786 98.485 156.028 99.78L153.99 101.28C151.721 102.951 149.749 105.016 148.159 107.385L147.593 108.23C146.137 110.399 144.975 112.768 144.138 115.269L143.21 118.04C142.222 120.992 141.99 124.171 142.537 127.265L142.769 128.579C143.462 132.498 145.623 135.991 148.778 138.291C149.81 139.043 150.75 139.922 151.578 140.908L152.742 142.295C154.477 144.362 156.475 146.177 158.678 147.689L160.904 149.216C163.15 150.757 165.658 152.172 167.757 154.072C168.345 154.604 168.852 155.118 169.093 155.454C169.478 155.989 170.932 157.928 172.465 160.145C173.897 162.216 175.431 164.576 176.246 166.306L176.4 166.643L176.416 166.686C177.08 168.75 177.32 170.93 177.118 173.083L176.804 176.435L176.469 180.846C176.335 182.599 175.858 184.3 175.068 185.847L173.8 188.332C172.991 189.916 171.577 191.071 169.899 191.52C168.126 191.994 166.196 191.639 164.795 190.314C163.619 189.201 162.448 187.964 162.036 187.39C161.783 187.038 161.036 186.334 160.129 185.592C159.234 184.859 158.245 184.14 157.546 183.753C157.538 183.749 157.529 183.743 157.521 183.738L130.666 166.485L127.098 164.844C123.759 163.308 120.312 162.047 116.789 161.073L113.635 160.201C111.893 159.72 110.117 159.394 108.326 159.229C104.444 158.87 100.646 157.783 97.1203 156.019L95.7002 155.308C93.3579 154.136 91.1256 152.737 89.0341 151.129L82.4426 146.06C82.4362 146.055 82.4297 146.05 82.4235 146.045L73.5912 138.445L61.302 128.713C55.496 125.244 49.0994 122.997 42.4829 122.1L34.9955 121.085C30.3564 121.007 25.7421 121.663 21.3118 123.029L17.6137 124.169C17.5973 124.174 17.5801 124.178 17.5632 124.181C15.3401 124.574 13.3354 122.666 13.5184 120.332L18.9037 51.7985L18.906 51.7721L19.0849 50.4591C19.0966 50.3735 19.1142 50.2881 19.1375 50.2052C19.4734 49.0072 20.8465 48.5183 21.8405 49.2427L22.8288 49.9631L27.1813 52.3693L33.867 55.3092L37.6533 56.9159C38.1129 57.0598 38.8367 57.2672 39.5278 57.4232C39.877 57.5021 40.212 57.5666 40.4965 57.6041C40.7929 57.6431 40.9944 57.6468 41.0981 57.6286C41.2509 57.6016 41.4896 57.6038 41.7464 57.6153C42.0191 57.6275 42.3613 57.6534 42.7477 57.6882C44.9081 57.883 47.0822 57.8487 49.2873 57.8512C51.4832 57.8538 53.7031 57.8928 55.9075 58.2455C57.2519 58.4606 62.1797 58.9623 63.9688 59.1045C64.4223 59.1406 64.9355 59.1954 65.4725 59.25C66.0122 59.3049 66.582 59.3604 67.1605 59.3997C68.322 59.4784 69.4977 59.49 70.5168 59.31C71.6198 59.115 73.4049 59.0342 75.1421 58.9547C76.9061 58.874 78.6231 58.7946 79.6593 58.6114C80.6728 58.4323 81.2088 58.1262 82.2797 57.6984C83.3394 57.2752 84.8257 56.7807 87.6315 56.2847L117.582 50.9906C117.72 50.9663 118.173 50.8342 118.862 50.6173C119.535 50.4057 120.399 50.1243 121.329 49.8167C123.189 49.2015 125.311 48.4828 126.697 48.0085L126.715 48.0025L138.289 44.6476C138.347 44.5932 138.42 44.5546 138.504 44.5398L141.071 44.086C141.248 44.0548 141.852 43.873 142.719 43.5868C143.569 43.3064 144.634 42.9379 145.705 42.5527C146.776 42.1675 147.85 41.7658 148.717 41.4173C149.151 41.243 149.53 41.0833 149.83 40.9464C150.139 40.8055 150.338 40.7001 150.43 40.636C152.254 39.3671 155.507 38.0975 158.365 37.134C158.942 36.9396 159.507 36.7572 160.044 36.5881C160.017 36.4037 160.102 36.2153 160.269 36.1254L163.401 34.4474C165.408 33.2725 168.593 31.4143 169.444 30.9402C169.785 30.7503 170.287 30.5724 170.836 30.3976C171.386 30.222 172.043 30.0321 172.68 29.836C173.995 29.4307 175.261 28.9846 175.962 28.4475C176.77 27.8287 177.999 27.1464 179.174 26.594C180.342 26.0451 181.515 25.596 182.212 25.4728C182.494 25.4229 183.343 25.165 184.529 24.7755C185.698 24.3917 187.156 23.8932 188.626 23.3777C191.576 22.3427 194.539 21.2529 195.329 20.8916C196.13 20.5257 198.193 19.3751 200.377 18.2405C201.459 17.6786 202.562 17.1257 203.531 16.6884C204.487 16.2569 205.352 15.9195 205.941 15.8152C206.96 15.6351 209.1 14.9234 211.11 14.1687C212.107 13.7941 213.061 13.4135 213.811 13.0908C214.187 12.9293 214.508 12.7833 214.757 12.661C215.017 12.5337 215.169 12.4457 215.228 12.4005C216.014 11.7983 218.774 9.93597 219.993 9.25723C220.546 8.94898 221.424 8.76078 222.24 8.6431ZM21.3467 49.9787C20.8416 49.6107 20.144 49.8592 19.9733 50.4679C19.9615 50.5099 19.9521 50.5537 19.9462 50.5972L19.768 51.91L14.3849 120.417C14.2489 122.153 15.7342 123.573 17.3866 123.294L21.0536 122.163C25.578 120.768 30.2908 120.101 35.0284 120.184C35.0448 120.185 35.062 120.186 35.0782 120.188L42.5849 121.205C49.1139 122.09 55.4325 124.267 61.1963 127.618L61.7524 127.946L61.7996 127.979L74.1129 137.73C74.1177 137.734 74.1225 137.738 74.1271 137.742L82.9645 145.346L89.5458 150.406C91.5926 151.98 93.7772 153.349 96.0695 154.496L97.4895 155.207C100.92 156.922 104.614 157.981 108.392 158.33C110.233 158.5 112.059 158.834 113.848 159.329L117.002 160.202C120.569 161.188 124.061 162.465 127.442 164.02L131.039 165.674C131.057 165.683 131.075 165.693 131.092 165.704L157.96 182.965C158.727 183.391 159.757 184.145 160.662 184.885C161.56 185.62 162.398 186.394 162.731 186.857C163.088 187.353 164.201 188.538 165.377 189.65C166.524 190.736 168.137 191.057 169.671 190.647C171.116 190.26 172.332 189.265 173.029 187.901L174.298 185.417C175.033 183.978 175.477 182.394 175.601 180.763L175.937 176.352L175.938 176.344L176.252 172.985C176.441 170.965 176.217 168.922 175.598 166.986C174.872 165.33 173.287 162.873 171.76 160.665C170.232 158.455 168.799 156.545 168.398 155.987C168.218 155.737 167.777 155.28 167.19 154.749C165.15 152.903 162.766 151.569 160.431 149.968L158.205 148.44C155.935 146.883 153.877 145.012 152.089 142.882L150.925 141.496C150.144 140.566 149.257 139.737 148.285 139.028C144.94 136.59 142.648 132.885 141.913 128.73L141.681 127.416C141.107 124.169 141.35 120.833 142.388 117.734L143.315 114.963C144.178 112.385 145.377 109.944 146.876 107.708L147.443 106.863C149.089 104.41 151.131 102.272 153.48 100.542L155.517 99.0423C157.315 97.7184 159.219 96.5533 161.207 95.559L162.088 95.1184C165.227 93.5485 168.568 92.4425 172.014 91.8334C172.491 91.7491 173.776 91.7228 175.063 91.7612C175.715 91.7808 176.384 91.8172 176.972 91.8745C177.551 91.9309 178.081 92.0097 178.439 92.1223C178.867 92.2566 179.515 92.3625 180.079 92.4346C180.356 92.4701 180.605 92.4966 180.784 92.5143C180.873 92.5231 180.945 92.5291 180.995 92.5334C181.02 92.5356 181.039 92.5375 181.052 92.5386L181.069 92.54L181.077 92.5404C185.583 92.9722 190.042 93.8772 194.384 95.2401L194.667 95.329L194.718 95.3486C195.406 95.6651 196.219 95.9214 197.159 96.1904C198.089 96.4567 199.145 96.7362 200.273 97.0906C201.656 97.5253 202.726 97.7581 203.495 97.8732C204.277 97.9903 204.72 97.9801 204.865 97.9545C205.169 97.9007 205.562 97.9591 205.95 98.0468C206.354 98.1383 206.821 98.2787 207.301 98.4342C208.281 98.751 209.31 99.1267 210.149 99.3556C213.574 100.291 216.735 102.016 219.556 104.225C219.75 104.377 219.91 104.499 220.027 104.584C220.463 104.902 221.104 105.505 221.708 106.107C222.311 106.707 222.903 107.331 223.272 107.73L224.207 108.64C225.697 110.087 227.283 111.424 228.952 112.641L231.484 114.487C231.498 114.496 231.511 114.507 231.523 114.518C232.951 115.822 234.18 117.345 235.167 119.031L236.867 121.938L238.292 124.054C239.72 126.174 241.252 128.201 243.073 129.915C243.843 130.64 244.769 131.509 245.502 132.196C245.868 132.539 246.186 132.838 246.413 133.05C246.526 133.156 246.617 133.241 246.679 133.299C246.71 133.328 246.734 133.35 246.75 133.366C246.758 133.373 246.765 133.379 246.769 133.383L246.772 133.386L246.773 133.388L246.775 133.389L246.812 133.428C247.564 134.324 248.897 134.956 250.282 135.391C251.648 135.821 252.984 136.035 253.672 136.146C255.004 136.358 257.172 136.42 258.397 136.204C258.406 136.202 258.416 136.201 258.425 136.2L263.556 135.656C264.402 135.566 265.221 135.306 265.967 134.89L267.158 134.226L268.281 133.508C268.775 133.192 269.18 132.746 269.457 132.217C269.93 131.31 269.989 130.227 269.619 129.26L267.616 124.017C267.214 122.965 266.704 121.959 266.094 121.018L260.365 112.185L255.535 104.795L248.601 95.4823L245.841 91.6424C244.184 89.3373 242.352 87.1723 240.362 85.1693L240.252 85.058C237.713 82.5022 234.923 80.2298 231.929 78.2794C228.356 75.9514 224.521 74.1169 220.457 73.0557C218.924 72.6554 217.42 72.2704 216.198 71.9377C214.995 71.6102 214.016 71.322 213.557 71.1115L213.554 71.1102C191.577 61.053 187.944 61.3877 171.49 55.1637C171.264 55.0779 171.145 54.8191 171.224 54.5853C171.304 54.3513 171.552 54.2314 171.778 54.3171C179.691 57.3102 184.659 58.7892 190.181 60.6625C190.257 60.6174 190.346 60.5963 190.441 60.6067L207.993 62.5524L208.006 62.5536L214.612 63.5006C215.968 63.6949 217.304 64.0301 218.598 64.501C220.117 65.0534 221.694 65.4098 223.292 65.563L227.559 65.9717L235.985 66.3138L236.011 66.3154L240.926 66.8149L243.436 66.7457C245.861 66.679 248.289 66.7915 250.703 67.0813L253.682 67.439C256.457 67.7721 259.258 67.6952 262.001 67.2104C263.74 66.903 265.445 66.4461 267.069 65.7769C267.693 65.5202 268.303 65.259 268.799 65.0295C269.311 64.7927 269.658 64.6087 269.794 64.5051L270.22 64.1779C271.906 62.8849 273.194 61.1148 273.935 59.0761C274.319 58.0194 274.546 56.903 274.638 55.7655C274.8 53.7774 275.071 51.1585 275.408 49.9549C275.634 49.1464 275.437 48.5222 275.101 47.9823C274.929 47.7047 274.721 47.4514 274.508 47.2072C274.314 46.9832 274.093 46.742 273.931 46.5216C273.924 46.5166 273.908 46.5068 273.879 46.4923C273.815 46.4603 273.719 46.4226 273.587 46.3826C273.323 46.3027 272.96 46.2249 272.52 46.151C271.641 46.0038 270.5 45.8793 269.325 45.7722C268.293 45.678 267.241 45.5984 266.326 45.5291C266.201 45.5196 266.079 45.5104 265.96 45.5014C264.98 45.4268 264.173 45.3625 263.81 45.3045C263.467 45.2496 262.554 45.0944 261.37 44.8961C260.184 44.6973 258.722 44.4543 257.276 44.2229C255.83 43.9915 254.402 43.7724 253.284 43.6204C252.724 43.5444 252.246 43.4853 251.883 43.4504C251.702 43.4329 251.553 43.4223 251.44 43.4177C251.384 43.4154 251.339 43.4147 251.306 43.4154C251.278 43.416 251.265 43.4175 251.262 43.4179C251.164 43.435 251.024 43.4375 250.883 43.4364C250.729 43.4351 250.534 43.4283 250.305 43.4176C249.847 43.3961 249.241 43.3568 248.538 43.3052C247.131 43.2018 245.321 43.0479 243.499 42.8824C239.863 42.5523 236.138 42.1735 235.439 42.0616C234.776 41.9556 232.221 41.7251 229.631 41.4916C229.623 41.4909 229.616 41.4903 229.609 41.4896L229.606 41.4894C227.049 41.2589 224.462 41.0256 223.764 40.9139C223.104 40.8085 220.993 40.613 218.87 40.4717C217.813 40.4013 216.76 40.345 215.894 40.3203C215.01 40.2951 214.368 40.3052 214.097 40.353C213.798 40.4059 213.217 40.4243 212.515 40.4257C211.798 40.4272 210.913 40.4103 209.98 40.3837C208.113 40.3305 206.041 40.2367 204.703 40.1669C204.685 40.166 204.668 40.1639 204.651 40.1608C202.074 39.7006 195.576 38.6516 190.206 38.1372C183.494 37.4941 179.885 37.2069 178.505 36.9861C177.852 36.8818 174.537 36.6719 171.24 36.5061C169.6 36.4236 167.976 36.3519 166.711 36.3111C166.078 36.2907 165.537 36.2785 165.128 36.2754C164.699 36.2722 164.463 36.2811 164.402 36.2918C164.007 36.3618 161.505 37.0282 158.644 37.9923C155.777 38.9586 152.634 40.1967 150.922 41.3878C150.76 41.5004 150.497 41.6332 150.19 41.7734C149.874 41.9178 149.481 42.0829 149.041 42.2597C148.161 42.6135 147.076 43.0194 146 43.4065C144.923 43.7937 143.851 44.1638 142.993 44.4469C142.153 44.7241 141.479 44.9314 141.228 44.9758L139.109 45.3504L126.968 48.8692C125.58 49.344 123.461 50.062 121.603 50.6768C120.671 50.9849 119.803 51.2679 119.124 51.4814C118.462 51.6896 117.944 51.8441 117.739 51.8803L87.7887 57.1745C85.0329 57.6616 83.602 58.1415 82.6011 58.5412C81.6118 58.9364 80.942 59.3022 79.8165 59.5012C78.7197 59.695 76.9488 59.776 75.2211 59.855C75.2111 59.8555 75.2012 59.856 75.1912 59.8564C73.4272 59.9371 71.7102 60.0165 70.6741 60.1997C69.554 60.3976 68.2973 60.3804 67.1146 60.3002C66.5211 60.26 65.9397 60.2034 65.3986 60.1484C64.8547 60.093 64.3556 60.0399 63.9142 60.0048C62.1226 59.8624 57.1659 59.3587 55.786 59.1379C53.6531 58.7966 51.4909 58.7561 49.2977 58.7535C47.1142 58.7509 44.8911 58.7866 42.6835 58.5876C42.3027 58.5532 41.975 58.5282 41.7204 58.5168C41.4502 58.5047 41.303 58.5099 41.2553 58.5183C41.0167 58.5604 40.7061 58.5399 40.3988 58.4995C40.0793 58.4574 39.7164 58.3871 39.3536 58.3052C38.6274 58.1413 37.8723 57.9251 37.3968 57.7757C37.3837 57.7716 37.3708 57.7664 37.358 57.761L33.5419 56.1417L33.5365 56.14L26.8386 53.1951C26.8266 53.1898 26.815 53.1834 26.8035 53.1771L22.4023 50.7437C22.3863 50.7348 22.3706 50.7251 22.3557 50.7143L21.3467 49.9787ZM222.371 9.53655C221.555 9.65427 220.816 9.82792 220.412 10.0532C219.235 10.7087 216.509 12.5475 215.75 13.1289C215.616 13.2317 215.393 13.3529 215.138 13.4782C214.872 13.6088 214.536 13.7601 214.153 13.9246C213.388 14.2538 212.422 14.64 211.415 15.0179C209.415 15.7687 207.206 16.5093 206.099 16.705C205.625 16.7888 204.847 17.0826 203.887 17.5162C202.939 17.944 201.852 18.4897 200.775 19.0491C198.642 20.1572 196.512 21.3414 195.689 21.7178C194.856 22.0989 191.848 23.2032 188.914 24.2326C187.441 24.7493 185.978 25.2506 184.802 25.6368C183.644 26.0173 182.725 26.2997 182.369 26.3625C181.79 26.465 180.702 26.8714 179.542 27.4169C178.389 27.9589 177.222 28.6111 176.485 29.1759C175.641 29.8221 174.221 30.3061 172.938 30.7016C172.275 30.9059 171.653 31.0843 171.101 31.2602C170.547 31.4367 170.121 31.5934 169.863 31.737C169.023 32.2051 165.859 34.0504 163.849 35.2264C163.846 35.2283 163.844 35.2316 163.84 35.2334L163.82 35.2432C163.562 35.3947 163.322 35.5349 163.11 35.6592C163.057 35.6901 163 35.7076 162.943 35.7138L162.884 35.7457C163.58 35.554 164.067 35.4335 164.245 35.402C164.398 35.3749 164.725 35.3703 165.122 35.3733C165.541 35.3764 166.09 35.3893 166.726 35.4098C167.998 35.4508 169.627 35.5221 171.27 35.6047C174.538 35.7691 177.916 35.9809 178.627 36.0946C179.971 36.3097 183.523 36.592 190.275 37.2389C195.656 37.7544 202.15 38.8018 204.757 39.2666C205.325 39.2961 206.022 39.3279 206.779 39.3609C206.804 39.351 206.83 39.3437 206.858 39.3388C210.534 38.689 214.145 37.7062 217.647 36.4021L218.866 35.9484C218.929 35.8702 219.017 35.8133 219.122 35.7948C219.263 35.7698 219.453 35.7136 219.686 35.6268C222.203 34.6912 224.131 32.5681 225.716 30.2098C225.724 30.1989 225.732 30.1881 225.74 30.1779C226.457 29.2964 227.524 27.9312 228.393 26.7018C228.829 26.086 229.209 25.5119 229.471 25.0544C229.602 24.825 229.697 24.6353 229.755 24.4908C229.783 24.419 229.799 24.3672 229.806 24.3339C229.808 24.3251 229.809 24.3183 229.81 24.3144C229.785 24.1423 229.793 23.9233 229.811 23.7076C229.832 23.4641 229.869 23.1726 229.917 22.8546C230.013 22.2177 230.153 21.4449 230.291 20.6828C230.431 19.9163 230.568 19.1594 230.662 18.5395C230.708 18.2298 230.743 17.9607 230.761 17.746C230.78 17.5176 230.777 17.3929 230.769 17.3485L229.833 12.0509L229.799 11.9153C229.501 10.9569 228.767 10.3334 227.776 9.93506C226.781 9.53509 225.578 9.38553 224.454 9.35478C223.957 9.36932 223.159 9.4229 222.371 9.53655Z" fill="url(#paint6_linear_8_211)"/>
  <path d="M222.371 9.53655C221.555 9.65427 220.816 9.82792 220.412 10.0532C219.235 10.7087 216.509 12.5475 215.75 13.1289C215.616 13.2317 215.393 13.3529 215.138 13.4782C214.872 13.6088 214.536 13.7601 214.153 13.9246C213.388 14.2538 212.422 14.64 211.415 15.0179C209.415 15.7687 207.206 16.5093 206.099 16.705C205.625 16.7888 204.847 17.0826 203.887 17.5162C202.939 17.944 201.852 18.4897 200.775 19.0491C198.642 20.1572 196.512 21.3414 195.689 21.7178C194.856 22.0989 191.848 23.2032 188.914 24.2326C187.441 24.7493 185.978 25.2506 184.802 25.6368C183.644 26.0173 182.725 26.2997 182.369 26.3625C181.79 26.465 180.702 26.8714 179.542 27.4169C178.389 27.9589 177.222 28.6111 176.485 29.1759C175.641 29.8221 174.221 30.3061 172.938 30.7016C172.275 30.9059 171.653 31.0843 171.101 31.2602C170.547 31.4367 170.121 31.5934 169.863 31.737C169.023 32.2051 165.859 34.0504 163.849 35.2264C163.846 35.2283 163.844 35.2316 163.84 35.2334L163.82 35.2432C163.562 35.3947 163.322 35.5349 163.11 35.6592C163.057 35.6901 163 35.7076 162.943 35.7138L162.884 35.7457C163.58 35.554 164.067 35.4335 164.245 35.402C164.398 35.3749 164.725 35.3703 165.122 35.3733C165.541 35.3764 166.09 35.3893 166.726 35.4098C167.998 35.4508 169.627 35.5221 171.27 35.6047C174.538 35.7691 177.916 35.9809 178.627 36.0946C179.971 36.3097 183.523 36.592 190.275 37.2389C195.656 37.7544 202.15 38.8018 204.757 39.2666C205.325 39.2961 206.022 39.3279 206.779 39.3609C206.804 39.351 206.83 39.3437 206.858 39.3388C210.534 38.689 214.145 37.7062 217.647 36.4021L218.866 35.9484C218.929 35.8702 219.017 35.8133 219.122 35.7948C219.263 35.7698 219.453 35.7136 219.686 35.6268C222.203 34.6912 224.131 32.5681 225.716 30.2098C225.724 30.1989 225.732 30.1881 225.74 30.1779C226.457 29.2964 227.524 27.9312 228.393 26.7018C228.829 26.086 229.209 25.5119 229.471 25.0544C229.602 24.825 229.697 24.6353 229.755 24.4908C229.783 24.419 229.799 24.3672 229.806 24.3339C229.808 24.3251 229.809 24.3183 229.81 24.3144C229.785 24.1423 229.793 23.9233 229.811 23.7076C229.832 23.4641 229.869 23.1726 229.917 22.8546C230.013 22.2177 230.153 21.4449 230.291 20.6828C230.431 19.9163 230.568 19.1594 230.662 18.5395C230.708 18.2298 230.743 17.9607 230.761 17.746C230.78 17.5176 230.777 17.3929 230.769 17.3485L229.833 12.0509L229.799 11.9153C229.501 10.9569 228.767 10.3334 227.776 9.93506C226.781 9.53509 225.578 9.38553 224.454 9.35478C223.957 9.36932 223.159 9.4229 222.371 9.53655Z" fill="url(#paint7_linear_8_211)"/>
  <path fill-rule="evenodd" clip-rule="evenodd" d="M21.3467 49.9787C20.8416 49.6107 20.144 49.8592 19.9733 50.4679C19.9615 50.5099 19.9521 50.5537 19.9462 50.5972L19.768 51.91L14.3849 120.417C14.2489 122.153 15.7342 123.573 17.3866 123.294L21.0536 122.163C25.578 120.768 30.2908 120.101 35.0284 120.184C35.0448 120.185 35.062 120.186 35.0782 120.188L42.5849 121.205C49.1139 122.09 55.4325 124.267 61.1963 127.618L61.7524 127.946L61.7996 127.979L74.1129 137.73C74.1177 137.734 74.1225 137.738 74.1271 137.742L82.9645 145.346L89.5458 150.406C91.5926 151.98 93.7772 153.349 96.0695 154.496L97.4895 155.207C100.92 156.922 104.614 157.981 108.392 158.33C110.233 158.5 112.059 158.834 113.848 159.329L117.002 160.202C120.569 161.188 124.061 162.465 127.442 164.02L131.039 165.674C131.057 165.683 131.075 165.693 131.092 165.704L157.96 182.965C158.727 183.391 159.757 184.145 160.662 184.885C161.56 185.62 162.398 186.394 162.731 186.857C163.088 187.353 164.201 188.538 165.377 189.65C166.524 190.736 168.137 191.057 169.671 190.647C171.116 190.26 172.332 189.265 173.029 187.901L174.298 185.417C175.033 183.978 175.477 182.394 175.601 180.763L175.937 176.352L175.938 176.344L176.252 172.985C176.441 170.965 176.217 168.922 175.598 166.986C174.872 165.33 173.287 162.873 171.76 160.665C170.232 158.455 168.799 156.545 168.398 155.987C168.218 155.737 167.777 155.28 167.19 154.749C165.15 152.903 162.766 151.569 160.431 149.968L158.205 148.44C155.935 146.883 153.877 145.012 152.089 142.882L150.925 141.496C150.144 140.566 149.257 139.737 148.285 139.028C144.94 136.59 142.648 132.885 141.913 128.73L141.681 127.416C141.107 124.169 141.35 120.833 142.388 117.734L143.315 114.963C144.178 112.385 145.377 109.944 146.876 107.708L147.443 106.863C149.089 104.41 151.131 102.272 153.48 100.542L155.517 99.0423C157.315 97.7184 159.219 96.5533 161.207 95.559L162.088 95.1184C165.227 93.5485 168.568 92.4425 172.014 91.8334C172.491 91.7491 173.776 91.7228 175.063 91.7612C175.715 91.7808 176.384 91.8172 176.972 91.8745C177.551 91.9309 178.081 92.0097 178.439 92.1223C178.867 92.2566 179.515 92.3625 180.079 92.4346C180.356 92.4701 180.605 92.4966 180.784 92.5143C180.873 92.5231 180.945 92.5291 180.995 92.5334C181.02 92.5356 181.039 92.5375 181.052 92.5386L181.069 92.54L181.077 92.5404C185.583 92.9722 190.042 93.8772 194.384 95.2401L194.667 95.329L194.718 95.3486C195.406 95.6651 196.219 95.9214 197.159 96.1904C198.089 96.4567 199.145 96.7362 200.273 97.0906C201.656 97.5253 202.726 97.7581 203.495 97.8732C204.277 97.9903 204.72 97.9801 204.865 97.9545C205.169 97.9007 205.562 97.9591 205.95 98.0468C206.354 98.1383 206.821 98.2787 207.301 98.4342C208.281 98.751 209.31 99.1267 210.149 99.3556C213.574 100.291 216.735 102.016 219.556 104.225C219.75 104.377 219.91 104.499 220.027 104.584C220.463 104.902 221.104 105.505 221.708 106.107C222.311 106.707 222.903 107.331 223.272 107.73L224.207 108.64C225.697 110.087 227.283 111.424 228.952 112.641L231.484 114.487C231.498 114.496 231.511 114.507 231.523 114.518C232.951 115.822 234.18 117.345 235.167 119.031L236.867 121.938L238.292 124.054C239.72 126.174 241.252 128.201 243.073 129.915C243.843 130.64 244.769 131.509 245.502 132.196C245.868 132.539 246.186 132.838 246.413 133.05L246.679 133.299C246.71 133.328 246.734 133.35 246.75 133.366L246.769 133.383L246.772 133.386L246.773 133.388L246.775 133.389L246.812 133.428C247.564 134.324 248.897 134.956 250.282 135.391C251.648 135.821 252.984 136.035 253.672 136.146C255.004 136.358 257.172 136.42 258.397 136.204C258.406 136.202 258.416 136.201 258.425 136.2L263.556 135.656C264.402 135.566 265.221 135.306 265.967 134.89L267.158 134.226L268.281 133.508C268.775 133.192 269.18 132.746 269.457 132.217C269.93 131.31 269.989 130.227 269.619 129.26L267.616 124.017C267.214 122.965 266.704 121.959 266.094 121.018L260.365 112.185L255.535 104.795L248.601 95.4823L245.841 91.6424C244.184 89.3373 242.352 87.1723 240.362 85.1693L240.252 85.058C237.713 82.5022 234.923 80.2298 231.929 78.2794C228.356 75.9514 224.521 74.1169 220.457 73.0557C218.924 72.6554 217.42 72.2704 216.198 71.9377C214.995 71.6102 214.016 71.322 213.557 71.1115L213.554 71.1102C191.577 61.053 187.944 61.3877 171.49 55.1637C171.264 55.0779 171.145 54.8191 171.224 54.5853C171.304 54.3513 171.552 54.2314 171.778 54.3171C179.691 57.3102 184.659 58.7892 190.181 60.6625C190.257 60.6174 190.346 60.5963 190.441 60.6067L207.993 62.5524L208.006 62.5536L214.612 63.5006C215.968 63.6949 217.304 64.0301 218.598 64.501C220.117 65.0534 221.694 65.4098 223.292 65.563L227.559 65.9717L235.985 66.3138L236.011 66.3154L240.926 66.8149L243.436 66.7457C245.861 66.679 248.289 66.7915 250.703 67.0813L253.682 67.439C256.457 67.7721 259.258 67.6952 262.001 67.2104C263.74 66.903 265.445 66.4461 267.069 65.7769C267.693 65.5202 268.303 65.259 268.799 65.0295C269.311 64.7927 269.658 64.6087 269.794 64.5051L270.22 64.1779C271.906 62.8849 273.194 61.1148 273.935 59.0761C274.319 58.0194 274.546 56.903 274.638 55.7655C274.8 53.7774 275.071 51.1585 275.408 49.9549C275.634 49.1464 275.437 48.5222 275.101 47.9823C274.929 47.7047 274.721 47.4514 274.508 47.2072C274.314 46.9832 274.093 46.742 273.931 46.5216C273.924 46.5166 273.908 46.5068 273.879 46.4923C273.815 46.4603 273.719 46.4226 273.587 46.3826C273.323 46.3027 272.96 46.2249 272.52 46.151C271.641 46.0038 270.5 45.8793 269.325 45.7722C268.293 45.678 267.241 45.5984 266.326 45.5291L265.96 45.5014C264.98 45.4268 264.173 45.3625 263.81 45.3045C263.467 45.2496 262.554 45.0944 261.37 44.8961C260.184 44.6973 258.722 44.4543 257.276 44.2229C255.83 43.9915 254.402 43.7724 253.284 43.6204C252.724 43.5444 252.246 43.4853 251.883 43.4504C251.702 43.4329 251.553 43.4223 251.44 43.4177C251.384 43.4154 251.339 43.4147 251.306 43.4154C251.28 43.416 251.265 43.4174 251.262 43.4179C251.164 43.435 251.024 43.4375 250.883 43.4364C250.729 43.4351 250.534 43.4283 250.305 43.4176C249.847 43.3961 249.241 43.3568 248.538 43.3052C247.131 43.2018 245.321 43.0479 243.499 42.8824C239.863 42.5523 236.138 42.1735 235.439 42.0616C234.776 41.9556 232.221 41.7251 229.631 41.4916L229.609 41.4896L229.606 41.4894C227.049 41.2589 224.462 41.0256 223.764 40.9139C223.104 40.8085 220.993 40.613 218.87 40.4717C217.813 40.4013 216.76 40.345 215.894 40.3203C215.01 40.2951 214.368 40.3052 214.097 40.353C213.798 40.4059 213.217 40.4243 212.515 40.4257C211.798 40.4272 210.913 40.4103 209.98 40.3837C208.113 40.3305 206.041 40.2367 204.703 40.1669C204.685 40.166 204.668 40.1639 204.651 40.1608C202.074 39.7006 195.576 38.6516 190.206 38.1372C183.494 37.4941 179.885 37.2069 178.505 36.9861C177.852 36.8818 174.537 36.6719 171.24 36.5061C169.6 36.4236 167.976 36.3519 166.711 36.3111C166.078 36.2907 165.537 36.2785 165.128 36.2754C164.699 36.2722 164.463 36.2811 164.402 36.2918C164.007 36.3618 161.505 37.0282 158.644 37.9923C155.777 38.9586 152.634 40.1967 150.922 41.3878C150.76 41.5004 150.497 41.6332 150.19 41.7734C149.874 41.9178 149.481 42.0829 149.041 42.2597C148.161 42.6135 147.076 43.0194 146 43.4065C144.923 43.7937 143.851 44.1638 142.993 44.4469C142.153 44.7241 141.479 44.9314 141.228 44.9758L139.109 45.3504L126.968 48.8692C125.58 49.344 123.461 50.062 121.603 50.6768C120.671 50.9849 119.803 51.2679 119.124 51.4814C118.462 51.6896 117.944 51.8441 117.739 51.8803L87.7887 57.1745C85.0329 57.6616 83.602 58.1415 82.6011 58.5412C81.6118 58.9364 80.942 59.3022 79.8165 59.5012C78.7197 59.695 76.9488 59.776 75.2211 59.855L75.1912 59.8564C73.4272 59.9371 71.7102 60.0165 70.6741 60.1997C69.554 60.3976 68.2973 60.3804 67.1146 60.3002C66.5211 60.26 65.9397 60.2034 65.3986 60.1484C64.8547 60.093 64.3556 60.0399 63.9142 60.0048C62.1226 59.8624 57.1659 59.3587 55.786 59.1379C53.6531 58.7966 51.4909 58.7561 49.2977 58.7535C47.1142 58.7509 44.8911 58.7866 42.6835 58.5876C42.3027 58.5532 41.975 58.5282 41.7204 58.5168C41.4502 58.5047 41.303 58.5099 41.2553 58.5183C41.0167 58.5604 40.7061 58.5399 40.3988 58.4995C40.0793 58.4574 39.7164 58.3871 39.3536 58.3052C38.6274 58.1413 37.8723 57.9251 37.3968 57.7757C37.3837 57.7716 37.3708 57.7664 37.358 57.761L33.5419 56.1417L33.5365 56.14L26.8386 53.1951C26.8266 53.1898 26.815 53.1834 26.8035 53.1771L22.4023 50.7437C22.3863 50.7348 22.3706 50.7251 22.3557 50.7143L21.3467 49.9787Z" fill="url(#paint8_linear_8_211)"/>
  <path d="M141.189 127.503C140.6 124.174 140.849 120.754 141.913 117.575L142.84 114.804C143.717 112.184 144.936 109.703 146.461 107.43L147.027 106.585L147.028 106.584C148.706 104.083 150.788 101.904 153.184 100.139L155.221 98.6398C157.041 97.2991 158.97 96.1192 160.984 95.1121L161.864 94.671C165.046 93.0796 168.433 91.9587 171.927 91.3411C172.462 91.2465 173.799 91.2229 175.078 91.2611C175.738 91.2808 176.419 91.3182 177.021 91.3769C177.603 91.4337 178.178 91.5158 178.589 91.6451C178.971 91.7649 179.581 91.8668 180.143 91.9387C180.413 91.9734 180.657 91.9998 180.833 92.0171C180.919 92.0255 180.987 92.0307 181.038 92.0353C181.072 92.0382 181.078 92.0388 181.091 92.0399L181.101 92.0401L181.103 92.0407C181.11 92.0411 181.118 92.0421 181.125 92.0428C185.666 92.478 190.159 93.3898 194.534 94.763L194.816 94.8519C194.826 94.8551 194.837 94.8586 194.847 94.8624L194.898 94.8821C194.907 94.8858 194.917 94.8905 194.927 94.8948C195.577 95.1939 196.359 95.4413 197.296 95.7097C198.214 95.9724 199.287 96.2569 200.423 96.6138C201.785 97.0417 202.829 97.2681 203.568 97.3788C203.944 97.4351 204.233 97.4598 204.439 97.4679C204.542 97.4719 204.622 97.4718 204.681 97.4697C204.711 97.4686 204.734 97.4668 204.751 97.4653C204.759 97.4645 204.766 97.4633 204.771 97.4627C204.773 97.4624 204.775 97.463 204.776 97.4628C204.777 97.4626 204.778 97.4624 204.778 97.4624L204.935 97.4416C205.308 97.4097 205.718 97.4819 206.06 97.5592C206.487 97.6559 206.971 97.8017 207.455 97.9582C208.464 98.2843 209.456 98.6477 210.28 98.8729C213.781 99.8287 217.001 101.589 219.864 103.831C220.056 103.981 220.211 104.099 220.321 104.18C220.793 104.524 221.458 105.153 222.061 105.753C222.664 106.352 223.255 106.975 223.628 107.379L224.556 108.282C226.029 109.712 227.597 111.034 229.247 112.236L231.779 114.083C231.802 114.1 231.83 114.122 231.86 114.149C233.326 115.487 234.587 117.049 235.599 118.779L237.293 121.676L238.707 123.775C240.126 125.882 241.635 127.874 243.416 129.551C244.186 130.276 245.111 131.144 245.843 131.831L247.06 132.971C247.071 132.981 247.082 132.992 247.091 133C247.103 133.011 247.1 133.008 247.11 133.018C247.117 133.024 247.124 133.03 247.13 133.037L247.133 133.04L247.138 133.045L247.176 133.084L247.195 133.107C247.851 133.888 249.067 134.484 250.431 134.914C251.76 135.331 253.063 135.542 253.751 135.652C255.046 135.859 257.156 135.916 258.31 135.712C258.332 135.708 258.351 135.706 258.361 135.705C258.366 135.704 258.37 135.704 258.372 135.704L263.503 135.159C264.281 135.076 265.036 134.836 265.723 134.453L266.9 133.797L268.012 133.086C268.431 132.818 268.777 132.439 269.014 131.985C269.419 131.208 269.472 130.274 269.153 129.438L267.149 124.196C266.76 123.176 266.265 122.202 265.674 121.291L259.946 112.458L255.125 105.081L248.2 95.7809L248.195 95.7739L245.435 91.9339C243.794 89.6503 241.979 87.5059 240.008 85.5219L240.007 85.5211L239.897 85.4097C237.383 82.879 234.621 80.6294 231.657 78.6986C228.119 76.3939 224.333 74.5846 220.331 73.5395C218.802 73.1402 217.292 72.7536 216.066 72.42C214.878 72.0966 213.854 71.7979 213.349 71.5665L213.346 71.5649L211.339 70.6523C191.797 61.8234 187.586 61.6861 172.825 56.198L171.313 55.6314C170.826 55.4469 170.588 54.9047 170.751 54.4247L170.786 54.3341C170.972 53.9283 171.421 53.7029 171.861 53.8188L171.955 53.8498L173.403 54.3923C180.401 56.9955 185.048 58.397 190.173 60.132C190.229 60.1183 190.285 60.1091 190.343 60.1059L190.496 60.1097L208.04 62.0544L208.054 62.0559L208.077 62.0587L214.682 63.0054L215.203 63.087C216.414 63.2928 217.608 63.609 218.769 64.0314C220.248 64.5694 221.784 64.9161 223.339 65.0652L227.587 65.4716L236.005 65.8144L236.017 65.8143L236.043 65.8166L236.062 65.8181L240.951 66.3135L243.423 66.2456C245.871 66.1782 248.325 66.2918 250.763 66.5845L253.742 66.9423C256.468 67.2696 259.22 67.1939 261.914 66.7177C263.625 66.4153 265.295 65.9673 266.879 65.3144C267.499 65.059 268.102 64.8011 268.589 64.5758C269.112 64.3341 269.406 64.1722 269.489 64.1083L269.916 63.7811C271.524 62.5474 272.756 60.8564 273.465 58.9052C273.832 57.8953 274.05 56.8229 274.139 55.7246C274.299 53.751 274.573 51.0793 274.926 49.8198C275.106 49.1797 274.959 48.7001 274.677 48.2464C274.526 48.0037 274.34 47.7744 274.132 47.5355C273.975 47.3561 273.773 47.1321 273.606 46.9184C273.598 46.9152 273.59 46.9116 273.58 46.908L273.442 46.8611C273.208 46.7902 272.869 46.7165 272.437 46.644C271.577 46.5001 270.452 46.3768 269.28 46.2699C268.251 46.1762 267.203 46.0966 266.287 46.0273C266.163 46.0179 266.041 46.0086 265.923 45.9996C264.954 45.9259 264.12 45.8601 263.731 45.7979C263.386 45.7426 262.468 45.5867 261.287 45.3888C260.102 45.1901 258.641 44.9476 257.197 44.7166C255.752 44.4854 254.328 44.2674 253.216 44.1161C252.659 44.0404 252.189 43.9816 251.836 43.9476C251.66 43.9307 251.521 43.9212 251.42 43.917L251.317 43.9153C251.313 43.9154 251.31 43.9156 251.309 43.9157L251.312 43.9152C251.171 43.9358 251.004 43.9373 250.879 43.9363C250.715 43.9349 250.512 43.9278 250.281 43.9169C249.817 43.8951 249.206 43.8557 248.502 43.804C247.091 43.7004 245.278 43.546 243.454 43.3804C239.828 43.0512 236.081 42.6702 235.36 42.5549C235.04 42.5037 234.248 42.4214 233.21 42.3221L229.564 41.9878L229.562 41.9872C227.02 41.7581 224.405 41.5228 223.685 41.4076C223.051 41.3063 220.962 41.1117 218.837 40.9703C217.783 40.9001 216.737 40.845 215.88 40.8206C214.983 40.795 214.394 40.8085 214.184 40.8457C213.834 40.9075 213.207 40.9239 212.516 40.9253C211.791 40.9268 210.901 40.9099 209.966 40.8832C209.03 40.8566 208.043 40.8198 207.122 40.7809L204.676 40.6658L204.563 40.6531C201.993 40.1941 195.51 39.1471 190.159 38.6345C183.47 37.9937 179.827 37.7035 178.426 37.4794C177.807 37.3805 174.53 37.1724 171.215 37.0057C169.577 36.9233 167.956 36.8516 166.695 36.811C166.065 36.7906 165.527 36.7782 165.125 36.7751C164.914 36.7736 164.753 36.7755 164.64 36.7784C164.546 36.7809 164.501 36.7836 164.49 36.7843C164.134 36.8472 161.663 37.5031 158.804 38.4666C155.933 39.4345 152.853 40.6527 151.207 41.7979C151.004 41.9387 150.705 42.0884 150.398 42.2284C150.072 42.3773 149.67 42.5459 149.227 42.724C148.339 43.0809 147.249 43.4891 146.169 43.8774C145.089 44.2659 144.012 44.6372 143.15 44.9218C142.326 45.1936 141.611 45.4159 141.316 45.4682L139.222 45.8383L127.12 49.345C125.731 49.8201 123.617 50.5372 121.76 51.1512C120.828 51.4596 119.957 51.7439 119.275 51.9585C118.629 52.1617 118.072 52.3297 117.827 52.3731L87.8761 57.6673C85.1503 58.1491 83.7521 58.6195 82.7862 59.0053C81.8445 59.3815 81.0959 59.7831 79.9035 59.9939C78.7668 60.1947 76.9557 60.2761 75.2438 60.3544L75.2142 60.3557C73.4341 60.4371 71.7577 60.5165 70.7615 60.6925C69.5812 60.9011 68.2755 60.8798 67.0803 60.7988C66.4782 60.7579 65.8895 60.701 65.3475 60.6459C64.7997 60.5902 64.3086 60.5382 63.8745 60.5036C62.0814 60.361 57.1088 59.8558 55.7074 59.6316C53.6168 59.2971 51.4882 59.256 49.2967 59.2535C47.1261 59.251 44.874 59.2872 42.6385 59.0857C42.26 59.0515 41.9411 59.0268 41.6979 59.0159C41.5698 59.0101 41.4752 59.0095 41.4103 59.0102C41.3778 59.0106 41.3546 59.0108 41.3402 59.0117C41.3223 59.0128 41.3261 59.0132 41.3419 59.0104C41.0229 59.0666 40.6475 59.0365 40.3336 58.9952C39.9936 58.9504 39.6147 58.8769 39.2437 58.7932C38.6867 58.6674 38.1147 58.5122 37.659 58.3781L37.2471 58.2526C37.2122 58.2416 37.1823 58.2298 37.1633 58.2218L37.1622 58.221L33.355 56.6051C33.3485 56.6025 33.3413 56.6006 33.3349 56.5978L26.6371 53.6532C26.6018 53.6377 26.5711 53.6201 26.5619 53.6149L22.1599 51.1809C22.1298 51.1643 22.0963 51.1434 22.0615 51.118L21.0519 50.3831C20.8636 50.2459 20.6085 50.3006 20.4944 50.5054L20.4551 50.6026L20.4412 50.6646L20.2644 51.9642L14.8835 120.456C14.772 121.883 15.979 123.005 17.276 122.804L20.9062 121.685C25.4812 120.275 30.2468 119.6 35.0373 119.684C35.0721 119.685 35.1086 119.687 35.1448 119.692L42.6523 120.71C49.2469 121.603 55.6277 123.803 61.4473 127.185L61.4505 127.187L62.0064 127.515C62.0172 127.521 62.0285 127.529 62.0388 127.536L62.0852 127.568C62.0936 127.574 62.1023 127.58 62.1103 127.587L74.4223 137.338C74.4362 137.349 74.4496 137.359 74.4535 137.363L83.2887 144.965L89.8509 150.01C91.8723 151.564 94.0297 152.916 96.2929 154.049L97.7127 154.76C101.088 156.448 104.723 157.489 108.438 157.832C110.308 158.005 112.163 158.345 113.981 158.848L117.135 159.72C120.729 160.714 124.246 161.999 127.651 163.566L131.249 165.22C131.295 165.242 131.334 165.265 131.363 165.284L158.22 182.538C159.023 182.987 160.072 183.757 160.979 184.499C161.873 185.23 162.761 186.042 163.137 186.565C163.464 187.019 164.545 188.175 165.72 189.287C166.726 190.238 168.154 190.534 169.542 190.163C170.846 189.814 171.949 188.915 172.584 187.673L173.853 185.189C174.558 183.81 174.983 182.291 175.102 180.725L175.439 176.314L175.442 176.285L175.754 172.938C175.936 170.994 175.722 169.027 175.129 167.162C174.42 165.556 172.87 163.149 171.349 160.949C169.823 158.743 168.402 156.849 167.992 156.279C167.846 156.076 167.44 155.65 166.854 155.121C164.847 153.303 162.533 152.016 160.149 150.379L157.922 148.852C155.615 147.269 153.523 145.368 151.706 143.204L150.543 141.817C149.788 140.918 148.93 140.117 147.99 139.432C144.538 136.916 142.177 133.096 141.421 128.817L141.189 127.503ZM190.342 61.1346C191.28 61.4539 192.235 61.7854 193.225 62.1384C193.153 62.0281 193.124 61.8913 193.156 61.7548C193.188 61.6158 193.276 61.5037 193.392 61.4364L190.405 61.1056C190.384 61.1162 190.364 61.1271 190.342 61.1346ZM210.18 39.1683C209.195 39.3972 208.203 39.6027 207.207 39.7832C208.111 39.8213 209.078 39.8574 209.994 39.8835C210.082 39.886 210.169 39.8865 210.256 39.8888C210.15 39.8077 210.076 39.6866 210.062 39.5453C210.047 39.4039 210.093 39.2695 210.18 39.1683ZM222.442 10.0315C221.626 10.1493 220.971 10.3144 220.655 10.4903C219.503 11.132 216.798 12.9565 216.055 13.5259C215.877 13.6619 215.612 13.8018 215.358 13.9267C215.081 14.0626 214.737 14.2185 214.351 14.3843C213.577 14.7174 212.603 15.1062 211.59 15.4862C209.846 16.1409 207.905 16.8032 206.67 17.0958L206.186 17.1972C205.781 17.2688 205.055 17.537 204.092 17.9719C203.157 18.394 202.08 18.9353 201.005 19.4934C198.902 20.5858 196.734 21.7895 195.898 22.1724C195.038 22.5653 192.003 23.6785 189.079 24.7045C187.605 25.2218 186.138 25.7246 184.958 26.1122C183.816 26.4873 182.856 26.7841 182.457 26.8549C181.948 26.9449 180.911 27.3254 179.755 27.869C178.616 28.4046 177.485 29.0392 176.789 29.5723C175.862 30.2825 174.35 30.7892 173.085 31.1792C172.405 31.3886 171.805 31.561 171.253 31.7371C170.696 31.9145 170.314 32.0577 170.106 32.1738C169.44 32.5446 167.298 33.7916 165.437 34.8783C165.808 34.8842 166.25 34.8947 166.742 34.9105C168.018 34.9517 169.65 35.0227 171.295 35.1054C174.545 35.2689 177.961 35.4821 178.706 35.6012C180.03 35.8131 183.548 36.092 190.323 36.7411C195.701 37.2563 202.177 38.2997 204.812 38.7685C205.352 38.7965 206.008 38.8263 206.721 38.8575C206.738 38.8536 206.755 38.8496 206.772 38.8466C210.418 38.2021 213.999 37.2271 217.473 35.9336L218.586 35.5187C218.706 35.412 218.859 35.3337 219.034 35.3025L219.227 35.2546C219.307 35.231 219.402 35.1996 219.513 35.1585C221.879 34.2784 223.735 32.2628 225.301 29.9314L225.352 29.863L225.943 29.1248C226.582 28.3169 227.339 27.3263 227.985 26.4135C228.417 25.8029 228.787 25.2435 229.037 24.8065C229.163 24.5865 229.245 24.4191 229.29 24.3055C229.296 24.2916 229.299 24.279 229.303 24.2686C229.286 24.0672 229.297 23.8506 229.313 23.6658C229.335 23.4071 229.374 23.103 229.422 22.7807C229.52 22.1348 229.661 21.3537 229.799 20.5938C229.939 19.8251 230.075 19.0759 230.167 18.4651C230.213 18.1599 230.246 17.9026 230.262 17.7035C230.271 17.5992 230.275 17.524 230.275 17.4741C230.276 17.4491 230.275 17.4319 230.274 17.4227L229.343 12.1557L229.318 12.0531C229.077 11.2891 228.488 10.7599 227.59 10.399C226.678 10.0325 225.548 9.88645 224.453 9.8556C223.971 9.87034 223.2 9.92222 222.442 10.0315ZM160.54 36.5473C160.55 36.6709 160.514 36.7885 160.444 36.8835C161.302 36.6166 162.079 36.3902 162.712 36.2129C162.583 36.1656 162.475 36.0678 162.42 35.9323C162.366 35.7985 162.375 35.6545 162.433 35.5324L160.54 36.5473ZM37.5508 57.3004L37.5529 57.301L37.556 57.3015C37.5554 57.3013 37.5537 57.3014 37.5508 57.3004ZM27.0469 52.7398L27.0523 52.7428L27.0448 52.7392L27.0469 52.7398ZM143.262 128.492C143.932 132.286 146.025 135.665 149.073 137.887C150.137 138.663 151.107 139.57 151.961 140.587L153.125 141.974C154.832 144.007 156.796 145.791 158.961 147.277L161.187 148.805C163.383 150.311 165.961 151.772 168.093 153.702C168.609 154.168 169.088 154.643 169.384 155.012L169.5 155.163L170.753 156.875C171.358 157.707 172.108 158.75 172.876 159.861C174.218 161.802 175.67 164.024 176.534 165.753L176.699 166.093L176.701 166.099L176.855 166.436C176.859 166.446 176.863 166.457 176.867 166.467L176.884 166.51L176.892 166.533C177.577 168.66 177.824 170.909 177.616 173.13L177.302 176.482L176.967 180.883C176.828 182.701 176.334 184.468 175.513 186.074L174.246 188.559C173.374 190.267 171.846 191.517 170.028 192.003C168.11 192.516 165.994 192.137 164.451 190.677C163.275 189.564 162.073 188.298 161.63 187.681C161.534 187.548 161.315 187.312 160.985 187.001C160.663 186.698 160.259 186.344 159.813 185.978C158.925 185.252 157.964 184.556 157.304 184.192C157.28 184.178 157.26 184.164 157.251 184.158L130.429 166.926L126.889 165.299C123.575 163.774 120.152 162.521 116.655 161.554L113.501 160.683C111.789 160.209 110.042 159.889 108.281 159.726C104.335 159.362 100.477 158.258 96.8968 156.467L95.4758 155.755C93.1052 154.569 90.8457 153.152 88.7293 151.525L82.138 146.456C82.1275 146.448 82.1127 146.437 82.0976 146.424L73.265 138.824L61.0164 129.124C55.2755 125.7 48.9531 123.482 42.4155 122.596L34.9598 121.585C30.3828 121.511 25.8305 122.159 21.4592 123.507L17.7614 124.647C17.7169 124.661 17.6758 124.669 17.6501 124.674C15.0801 125.128 12.8136 122.927 13.02 120.293L18.4054 51.7593L18.4058 51.7563L18.4082 51.7301L18.4106 51.7048L18.5891 50.392C18.6039 50.2839 18.6269 50.1759 18.6563 50.0707C19.084 48.5468 20.8513 47.9038 22.1347 48.839L23.1022 49.5437L27.4039 51.921L34.062 54.8488L37.8229 56.4441C38.2741 56.5849 38.9737 56.7854 39.6383 56.9354C39.9794 57.0124 40.2978 57.0737 40.5614 57.1084C40.698 57.1264 40.8064 57.1353 40.887 57.1381C40.9272 57.1395 40.9586 57.1393 40.9812 57.1383C41.0012 57.1375 41.0106 57.1361 41.0116 57.1359C41.2269 57.0979 41.5189 57.105 41.7687 57.1162C42.0524 57.1289 42.4032 57.155 42.7923 57.1901C44.9245 57.3823 47.0697 57.3484 49.2876 57.351C51.4848 57.3536 53.7395 57.3923 55.986 57.7517C57.3095 57.9635 62.2203 58.4635 64.0081 58.6057C64.4686 58.6423 64.9901 58.6984 65.5226 58.7525C66.0614 58.8073 66.6246 58.8627 67.1941 58.9013C68.3433 58.9793 69.4714 58.9867 70.4301 58.8173C71.5731 58.6153 73.3984 58.5342 75.1193 58.4555C76.8995 58.374 78.576 58.2956 79.5722 58.1196C80.5186 57.9523 80.9735 57.6821 82.0943 57.2345C83.189 56.7973 84.7088 56.2933 87.5446 55.792L117.495 50.4979C117.593 50.4805 118.008 50.3617 118.712 50.1399C119.382 49.9294 120.243 49.6496 121.172 49.3423C123.029 48.7278 125.15 48.0094 126.535 47.5355L126.544 47.5319L126.563 47.5265L126.576 47.5222L138.061 44.1929C138.165 44.1225 138.285 44.0712 138.417 44.0478L140.984 43.5939C141.117 43.5703 141.679 43.4031 142.562 43.1117C143.407 42.8329 144.468 42.4662 145.536 42.0823C146.604 41.6982 147.671 41.2984 148.53 40.953C148.96 40.7802 149.332 40.6237 149.622 40.4913C149.931 40.3505 150.092 40.2613 150.144 40.2254C152.034 38.9107 155.351 37.6224 158.205 36.6605C158.679 36.5008 159.145 36.3495 159.593 36.2069C159.666 35.9936 159.813 35.8027 160.033 35.6848L163.15 34.0142C165.155 32.841 168.344 30.9804 169.201 30.5031C169.591 30.2858 170.138 30.0954 170.684 29.9217C171.235 29.7461 171.911 29.5492 172.533 29.3578C173.186 29.1565 173.815 28.9489 174.364 28.7277C174.919 28.504 175.362 28.2781 175.659 28.0506C176.508 27.4003 177.773 26.7004 178.962 26.1418C180.133 25.5911 181.359 25.1162 182.125 24.9806C182.364 24.9383 183.171 24.6954 184.373 24.3006C185.538 23.9181 186.993 23.4206 188.46 22.9058C191.42 21.8675 194.358 20.7866 195.122 20.4372C195.908 20.0774 197.932 18.947 200.147 17.7965C201.232 17.2332 202.345 16.6758 203.326 16.233C204.279 15.8028 205.196 15.4394 205.854 15.3229C206.821 15.1521 208.917 14.4582 210.934 13.7012C211.926 13.3285 212.873 12.9503 213.614 12.6314C213.985 12.4718 214.298 12.3296 214.537 12.2123C214.661 12.1515 214.756 12.1015 214.823 12.0636C214.857 12.0447 214.882 12.0296 214.901 12.0182C214.915 12.0095 214.922 12.0046 214.924 12.0032L215.31 11.7187C216.396 10.9386 218.661 9.42677 219.749 8.82073C220.391 8.46325 221.353 8.26577 222.169 8.14804C222.812 8.05525 223.457 8.00063 223.964 7.97261L223.971 7.97238L224.416 7.95308L224.429 7.95279L224.452 7.95273L224.474 7.95284C225.665 7.98511 227.055 8.14243 228.268 8.62993C229.494 9.12305 230.637 9.99915 231.104 11.5004C231.135 11.5999 231.162 11.7053 231.181 11.8131L232.117 17.1108C232.161 17.3576 232.146 17.6485 232.126 17.8788C232.104 18.1377 232.065 18.4417 232.016 18.765C231.919 19.411 231.777 20.1915 231.639 20.951C231.499 21.7195 231.363 22.4681 231.271 23.0787C231.225 23.3839 231.193 23.642 231.176 23.8413C231.167 23.9462 231.163 24.0219 231.163 24.0717C231.163 24.0964 231.163 24.1131 231.164 24.1221C231.164 24.1189 231.163 24.1142 231.162 24.1086C231.2 24.3275 231.172 24.5234 231.145 24.6481C231.115 24.7843 231.069 24.9151 231.024 25.0295C230.932 25.2606 230.801 25.5152 230.655 25.771C230.361 26.2857 229.95 26.9016 229.505 27.5302C228.623 28.7776 227.55 30.1493 226.822 31.046C225.189 33.4691 223.068 35.8666 220.165 36.9463C220.12 36.963 220.063 36.9796 220.019 36.994C219.976 37.0209 219.924 37.0503 219.863 37.073L218.126 37.7202C216.964 38.1528 215.79 38.549 214.607 38.9115C214.991 38.9006 215.447 38.9045 215.922 38.9181C216.811 38.9434 217.882 39.0004 218.948 39.0714C221.063 39.2123 223.235 39.4118 223.964 39.5285C224.604 39.6308 227.132 39.8594 229.739 40.0944C232.288 40.3242 234.916 40.5613 235.639 40.6769C236.281 40.7796 239.948 41.1523 243.609 41.4846C245.428 41.6498 247.228 41.8035 248.625 41.906C249.323 41.9573 249.916 41.9957 250.357 42.0164C250.577 42.0267 250.753 42.0325 250.882 42.0335C250.948 42.0341 250.995 42.0333 251.025 42.0321L251.053 42.0301C251.205 42.008 251.368 42.0118 251.483 42.0166C251.631 42.0226 251.807 42.0356 252 42.0542C252.388 42.0916 252.887 42.1527 253.453 42.2297C254.587 42.3839 256.028 42.6056 257.477 42.8375C258.927 43.0695 260.393 43.3133 261.581 43.5123C262.772 43.712 263.674 43.865 264.011 43.9188C264.303 43.9655 265.035 44.0252 266.051 44.1025C267.04 44.1777 268.25 44.2669 269.436 44.375C270.617 44.4827 271.799 44.6118 272.729 44.7677C273.191 44.8451 273.62 44.9336 273.965 45.0381C274.137 45.0904 274.314 45.1541 274.474 45.2338C274.58 45.2873 274.735 45.3747 274.876 45.5128C274.886 45.5225 274.895 45.5331 274.904 45.5435L274.988 45.6398C274.994 45.6473 275.001 45.6554 275.007 45.6632L275.104 45.7907C275.213 45.9251 275.344 46.0675 275.528 46.2791C275.752 46.5364 276.022 46.8589 276.257 47.2363C276.745 48.0219 277.087 49.0622 276.725 50.3527C276.433 51.3969 276.17 53.8639 276.005 55.8937C275.903 57.1441 275.651 58.3869 275.219 59.5749C274.389 61.8607 272.943 63.8488 271.048 65.3024L270.621 65.6298C270.346 65.8406 269.857 66.0845 269.372 66.3089C268.851 66.5498 268.221 66.819 267.59 67.079C265.86 67.7918 264.059 68.2724 262.245 68.5929C259.373 69.1007 256.439 69.1805 253.534 68.8317L250.554 68.4738C248.206 68.1919 245.843 68.0827 243.485 68.1475L240.948 68.2172C240.928 68.2178 240.881 68.2197 240.829 68.2144L235.918 67.7139L227.499 67.3725C227.481 67.3717 227.466 67.3704 227.458 67.3697C227.455 67.3693 227.451 67.3694 227.449 67.3693C227.448 67.3691 227.447 67.3686 227.447 67.3686L223.175 66.9595C221.464 66.7955 219.775 66.4135 218.149 65.822C216.941 65.383 215.697 65.07 214.433 64.889L207.828 63.9433L197.621 62.8112C201.931 64.4638 207.091 66.6216 214.088 69.8234L214.245 69.8888L214.626 70.0237C215.076 70.1724 215.728 70.3611 216.539 70.582C217.753 70.9122 219.242 71.2943 220.785 71.697C225.016 72.8019 228.985 74.706 232.658 77.0985C235.734 79.1025 238.601 81.4368 241.209 84.0621L241.318 84.1726L242.077 84.9519C243.829 86.787 245.455 88.7475 246.943 90.8175L249.689 94.6381L256.632 103.962L256.64 103.974L256.657 103.998L261.492 111.396L261.505 111.416L267.234 120.249L267.478 120.637C268.036 121.549 268.508 122.513 268.891 123.516L270.895 128.758C271.378 130.022 271.337 131.428 270.785 132.644L270.667 132.885C270.28 133.627 269.71 134.254 269.014 134.699L267.883 135.422C267.863 135.435 267.844 135.445 267.834 135.45L267.836 135.451L266.63 136.122C265.727 136.626 264.734 136.942 263.708 137.051L258.587 137.594C257.17 137.832 254.884 137.757 253.471 137.531C252.781 137.42 251.36 137.193 249.89 136.731C248.479 136.287 246.854 135.576 245.83 134.397C245.821 134.389 245.81 134.378 245.799 134.368C245.787 134.357 245.773 134.344 245.759 134.33C245.695 134.271 245.607 134.189 245.493 134.082C245.267 133.869 244.947 133.57 244.581 133.227C243.848 132.539 242.921 131.67 242.15 130.944C240.218 129.125 238.618 126.999 237.166 124.843L235.733 122.717L235.701 122.665L233.993 119.745C233.085 118.193 231.955 116.792 230.645 115.589L228.164 113.781C226.442 112.525 224.806 111.145 223.269 109.653L222.332 108.743C222.316 108.728 222.302 108.713 222.297 108.707C221.941 108.321 221.353 107.702 220.758 107.109C220.146 106.501 219.577 105.971 219.239 105.724C219.103 105.625 218.928 105.492 218.73 105.337C216.028 103.221 213.027 101.59 209.806 100.71C208.931 100.471 207.801 100.063 206.898 99.7713C206.427 99.6191 206.007 99.4948 205.664 99.4172C205.486 99.3769 205.349 99.3532 205.249 99.3427C205.158 99.3331 205.116 99.3363 205.109 99.3367C204.744 99.4012 204.125 99.3827 203.308 99.2605C202.459 99.1335 201.321 98.8828 199.881 98.4303C198.774 98.0826 197.765 97.8172 196.8 97.5409C195.879 97.2771 195 97.0037 194.224 96.6534L193.992 96.5803C189.741 95.2462 185.376 94.3604 180.965 93.9374L180.949 93.9363C180.945 93.9358 180.941 93.9354 180.939 93.9351C180.937 93.9349 180.936 93.934 180.935 93.9339L180.933 93.9342C180.922 93.9334 180.907 93.9324 180.889 93.9309C180.834 93.9261 180.756 93.9182 180.665 93.9092C180.475 93.8907 180.213 93.8632 179.92 93.8257C179.354 93.7531 178.6 93.6359 178.048 93.4624C177.833 93.3949 177.422 93.3263 176.854 93.2708C176.305 93.2174 175.667 93.1819 175.035 93.163C174.393 93.1438 173.777 93.1422 173.277 93.1534C172.763 93.1649 172.405 93.1895 172.258 93.2154C169.147 93.7654 166.124 94.7358 163.267 96.1009L162.697 96.3791L161.817 96.8193C159.898 97.7791 158.06 98.9042 156.324 100.182L154.287 101.683C152.204 103.217 150.375 105.09 148.871 107.232L148.575 107.663L148.008 108.509C146.578 110.64 145.435 112.969 144.612 115.428L143.684 118.198C142.723 121.071 142.497 124.165 143.029 127.178L143.262 128.492Z" fill="white"/>
  </g>
  <defs>
    <linearGradient id="paint6_linear_8_211" x1="134.196" y1="24.1982" x2="163.962" y2="192.592" gradientUnits="userSpaceOnUse">
<stop/>
<stop offset="1" stop-color="#666666"/>
</linearGradient>
    <linearGradient id="paint7_linear_8_211" x1="134.196" y1="24.1982" x2="163.962" y2="192.592" gradientUnits="userSpaceOnUse">
<stop stop-color="#AB52A3"/>
<stop offset="0.235577" stop-color="#3E297F"/>
</linearGradient>
    <linearGradient id="paint8_linear_8_211" x1="134.196" y1="24.1982" x2="163.962" y2="192.592" gradientUnits="userSpaceOnUse">
<stop offset="0.0961538" stop-color="#AB52A3"/>
<stop offset="0.182692" stop-color="#873E96"/>
<stop offset="0.322115" stop-color="#6A328A"/>
<stop offset="0.451923" stop-color="#5B2F86"/>
<stop offset="0.572115" stop-color="#3E297F"/>
</linearGradient>
  </defs>
</svg>
