<svg width="216" height="216" viewBox="0 0 216 216" fill="none" xmlns="http://www.w3.org/2000/svg">
  <rect width="216" height="216" fill="white"/>
  <svg x="12" y="40" width="192" height="136" viewBox="0 0 216 153" fill="none" xmlns="http://www.w3.org/2000/svg">
    <path d="M124.302 117.315C124.259 117.284 124.203 117.266 124.145 117.266H123.239C123.222 117.266 123.205 117.268 123.188 117.271L123.14 117.284L113.261 121.063C111.67 121.672 111.381 123.342 112.707 124.257L126.631 133.865C127.565 134.509 128.382 135.308 129.048 136.227L139.737 150.976C140.506 152.037 142.024 152.63 143.576 152.476L152.571 151.587C154.172 151.428 155.16 150.145 154.585 148.971L147.232 133.959C147.22 133.935 147.201 133.913 147.178 133.895L147.153 133.879L144.674 132.475L124.302 117.315Z" fill="url(#paint0_linear_2_5)"/>
    <path d="M156.724 106.96C157.532 106.332 158.626 105.979 159.767 105.979H187.338C188.612 105.979 189.64 106.824 190.438 107.817C191.351 108.954 192.07 110.52 191.461 111.845C187.142 121.239 182.613 127.036 176.265 130.05C169.789 133.125 161.366 133.33 149.201 131.416C147.688 131.178 146.257 130.569 145.018 129.67L133.955 121.642C130.922 119.441 131.343 114.797 134.722 113.178C135.401 112.853 136.182 112.681 136.978 112.681H147.409C148.67 112.681 149.88 112.291 150.772 111.596L156.724 106.96Z" fill="url(#paint1_linear_2_5)"/>
    <path d="M56.6186 87.7195C56.6158 87.7161 56.6129 87.7128 56.6099 87.7096L59.884 84.04C60.2472 83.6329 60.6424 83.2571 61.0653 82.9157C61.5441 82.5293 62.0584 82.1872 62.6021 81.8942L73.5252 76.0083C75.5905 75.0059 84.9448 71.7138 88.846 70.8784C89.5835 70.7204 90.3234 70.5789 91.042 70.35L119.856 61.1706C120.332 61.0879 122.434 61.5387 123.963 62.0394C125.166 62.4336 125.454 63.6496 124.397 64.3471C124.226 64.4596 124.036 64.5619 123.823 64.6457C123.035 64.9571 122.159 64.9821 121.338 65.1951L115.1 66.8144L78.924 75.7155C78.5859 75.7799 78.2409 75.8831 77.9341 76.011C65.3351 81.2649 59.0424 88.0972 57.513 94.8545C55.9833 101.613 59.2101 108.332 65.7416 113.376C78.7028 123.384 104.702 126.791 132.176 110.627C132.45 110.466 132.744 110.329 133.045 110.226C134.502 109.728 136.112 110.127 137.636 110.339C137.885 110.373 138.138 110.391 138.393 110.391H147.154C148.276 110.391 149.353 110.05 150.157 109.44L156.352 104.74C157.24 104.066 158.431 103.689 159.671 103.689H162.047C162.151 103.689 162.254 103.686 162.356 103.681C164.245 103.575 166.18 102.882 168.041 103.219C168.428 103.289 168.821 103.324 169.214 103.324H182.729C187.147 103.324 191.492 99.73 195.874 99.1747C196.244 99.1279 196.623 99.1036 197.01 99.1036C197.173 99.1036 197.334 99.1079 197.494 99.1163C197.889 99.1372 198.286 99.1252 198.673 99.0421C199.021 98.9673 199.358 98.8403 199.667 98.6638C208.29 93.7398 212.726 88.4364 214.517 83.2862C216.346 78.0307 215.428 72.9156 213.359 68.4981C211.289 64.0797 208.071 60.3668 205.316 57.925C203.937 56.7033 202.68 55.8059 201.749 55.2977C201.279 55.0415 200.911 54.8947 200.662 54.8468C200.536 54.8227 200.469 54.8291 200.44 54.8375C200.426 54.8415 200.412 54.8465 200.4 54.8806C200.166 55.5644 199.616 56.4623 198.935 57.4148C198.252 58.3709 197.428 59.3946 196.633 60.3335C195.839 61.2727 195.073 62.1288 194.506 62.75C194.222 63.0606 193.988 63.3127 193.824 63.4871C193.786 63.5279 193.752 63.5644 193.722 63.5964L193.718 63.6005L193.687 63.6328L190.547 63.7706C190.379 63.778 190.144 63.6825 190.255 63.555L190.718 63.0193C198.117 53.9069 200.666 47.2553 198.747 41.5182C196.826 35.7758 190.412 30.8909 179.673 25.3523C179.631 25.331 179.6 25.2998 179.584 25.2634C176.452 18.2839 172.601 13.9673 167.267 11.5132C162.416 9.28115 156.059 8.59177 147.137 8.96161C144.909 9.05396 142.709 8.44697 140.821 7.26094C134.04 3.00145 128.263 0.759167 122.416 0.521193C116.841 0.294269 111.241 1.89161 104.689 5.23539C102.168 6.52189 99.2549 6.83782 96.5296 6.07485C88.3808 3.79348 82.0432 3.20421 76.5402 4.51876C71.3754 5.75255 66.9834 8.65448 62.5319 13.3371C60.3706 15.6107 57.405 16.9888 54.2681 16.9768C44.5887 16.9397 37.6993 18.0538 32.6583 20.9923C28.1323 23.6306 25.1272 27.7212 22.9101 33.6991C21.6085 37.2083 18.7964 39.942 15.2621 41.1739C12.4228 42.1636 10.1654 43.3226 8.27995 44.7959C5.2283 47.1804 3.17143 50.3723 1.1767 54.9519L1.16741 54.9822C0.406818 58.926 0.213639 62.0117 1.02453 65.0796C1.69051 67.5993 3.03103 70.097 5.27085 73.0423C6.26783 74.3533 6.99474 75.8528 7.39176 77.4513C8.99236 83.8955 11.2923 88.1519 15.1399 90.7864C19.4672 93.7492 25.7008 94.6266 34.92 94.3385C34.9744 94.3368 36.2281 95.2402 36.646 95.7437C36.7624 95.8841 36.6674 96.1328 36.8221 96.2293C39.8842 98.1384 41.9403 99.1735 44.2708 99.7016C46.5955 100.228 49.1748 100.246 53.262 100.159C53.3239 100.157 53.3824 100.136 53.4239 100.1C53.4654 100.065 53.4865 100.017 53.4819 99.9692C53.2533 97.5938 53.3045 95.7532 53.7778 93.9207C54.2513 92.0874 55.1496 90.2523 56.6301 87.8904C56.6643 87.8357 56.66 87.7711 56.6186 87.7195Z" fill="url(#paint2_linear_2_5)"/>
    <path d="M56.4266 87.6365C56.5047 87.6365 56.5772 87.668 56.6186 87.7195C56.66 87.7711 56.6643 87.8357 56.6301 87.8904C55.1496 90.2523 54.2513 92.0874 53.7778 93.9207C53.3045 95.7532 53.2533 97.5938 53.4819 99.9692C53.4865 100.017 53.4654 100.065 53.4239 100.1C53.3824 100.136 53.3239 100.157 53.262 100.159C49.1748 100.246 46.5955 100.228 44.2708 99.7016C41.9403 99.1735 39.8842 98.1384 36.8221 96.2293C36.6674 96.1328 36.7624 95.8841 36.646 95.7437C36.2281 95.2402 34.9744 94.3368 34.92 94.3385C25.7008 94.6266 19.4672 93.7492 15.1399 90.7864C11.2923 88.1519 8.99236 83.8955 7.39176 77.4513C6.99474 75.8528 6.26783 74.3533 5.27085 73.0423C3.03103 70.097 1.69051 67.5993 1.02453 65.0796C0.213639 62.0117 0.406818 58.926 1.16741 54.9822L1.1767 54.9519C3.17143 50.3723 5.2283 47.1804 8.27995 44.7959C10.1654 43.3226 12.4228 42.1636 15.2621 41.1739C18.7964 39.942 21.6085 37.2083 22.9101 33.6991C25.1272 27.7212 28.1323 23.6306 32.6583 20.9923C37.6993 18.0538 44.5887 16.9397 54.2681 16.9768C57.405 16.9888 60.3706 15.6107 62.5319 13.3371C66.9834 8.65448 71.3754 5.75255 76.5402 4.51876C82.0432 3.20421 88.3808 3.79348 96.5296 6.07485C99.2549 6.83782 102.168 6.52189 104.689 5.23539C111.241 1.89161 116.841 0.294269 122.416 0.521193C128.263 0.759167 134.04 3.00145 140.821 7.26094C142.709 8.44697 144.909 9.05396 147.137 8.96161C156.059 8.59177 162.416 9.28115 167.267 11.5132C172.601 13.9673 176.452 18.2839 179.584 25.2634C179.6 25.2998 179.631 25.331 179.673 25.3523C190.412 30.8909 196.826 35.7758 198.747 41.5182C200.666 47.2553 198.117 53.9069 190.718 63.0193L190.255 63.555C190.144 63.6825 190.379 63.778 190.547 63.7706L193.687 63.6328M60.8859 82.9231C60.9649 82.9816 61.1821 82.8519 61.1229 82.9231M193.687 63.6328L193.718 63.6005M193.687 63.6328C193.697 63.6226 193.707 63.6118 193.718 63.6005M56.6099 87.7096L59.884 84.04C60.6584 83.1721 61.5782 82.446 62.6021 81.8942L73.5252 76.0083C75.5905 75.0059 84.9448 71.7138 88.846 70.8784C89.5835 70.7204 90.3234 70.5789 91.042 70.35L119.856 61.1706C120.332 61.0879 122.434 61.5387 123.963 62.0394C125.166 62.4336 125.454 63.6496 124.397 64.3471C124.226 64.4596 124.036 64.5619 123.823 64.6457C123.035 64.9571 122.159 64.9821 121.338 65.1951L115.1 66.8144L78.924 75.7155C78.5859 75.7799 78.2409 75.8831 77.934 76.011C65.3351 81.2648 59.0424 88.0972 57.513 94.8545C55.9833 101.613 59.2101 108.332 65.7416 113.376C78.7028 123.384 104.702 126.791 132.176 110.627C132.45 110.466 132.744 110.329 133.045 110.226C134.502 109.728 136.112 110.127 137.636 110.339C137.885 110.373 138.138 110.391 138.393 110.391H147.154C148.276 110.391 149.353 110.05 150.157 109.44L156.352 104.74C157.24 104.066 158.431 103.689 159.671 103.689H162.047C162.151 103.689 162.254 103.686 162.356 103.681C164.245 103.575 166.18 102.882 168.041 103.219C168.428 103.289 168.821 103.324 169.214 103.324L182.729 103.324C187.147 103.324 191.492 99.73 195.874 99.1748C196.244 99.1279 196.623 99.1036 197.01 99.1036C197.173 99.1036 197.334 99.1079 197.494 99.1163C197.889 99.1372 198.286 99.1252 198.673 99.0421C199.021 98.9673 199.358 98.8403 199.667 98.6638C208.29 93.7398 212.726 88.4364 214.517 83.2862C216.346 78.0307 215.428 72.9156 213.359 68.4981C211.289 64.0797 208.071 60.3668 205.316 57.925C203.937 56.7033 202.68 55.8059 201.749 55.2977C201.279 55.0415 200.911 54.8947 200.662 54.8468C200.536 54.8227 200.469 54.8291 200.44 54.8375C200.426 54.8415 200.412 54.8465 200.4 54.8806C200.166 55.5643 199.616 56.4623 198.935 57.4148C198.252 58.3709 197.428 59.3946 196.633 60.3335C195.839 61.2727 195.073 62.1288 194.506 62.75C194.222 63.0606 193.988 63.3127 193.824 63.4871C193.786 63.5279 193.752 63.5644 193.722 63.5964M193.718 63.6005L193.722 63.5964M193.718 63.6005C193.719 63.5991 193.72 63.5977 193.722 63.5964M124.145 117.266C124.203 117.266 124.259 117.284 124.302 117.315L144.674 132.475L147.153 133.879L147.178 133.895C147.201 133.913 147.22 133.935 147.232 133.959L154.585 148.971C155.16 150.145 154.172 151.428 152.571 151.587L143.576 152.476C142.024 152.63 140.506 152.037 139.737 150.976L129.048 136.227C128.382 135.308 127.565 134.509 126.631 133.865L112.707 124.257C111.381 123.342 111.67 121.672 113.261 121.063L123.14 117.284L123.188 117.271C123.205 117.268 123.222 117.266 123.239 117.266H124.145ZM113.46 121.38C112.159 121.878 111.922 123.244 113.007 123.993L128.372 134.595L128.398 134.616C128.406 134.624 128.413 134.632 128.419 134.64L140.132 150.802C140.81 151.738 142.149 152.262 143.519 152.126L152.514 151.237C153.824 151.107 154.632 150.057 154.162 149.096L148.064 136.648C147.262 135.01 145.983 133.652 144.395 132.753C144.39 132.75 144.385 132.747 144.381 132.744C144.378 132.742 144.375 132.74 144.372 132.738L124.448 117.911C124.192 117.722 123.883 117.619 123.565 117.619C123.385 117.619 123.206 117.652 123.037 117.717L113.46 121.38ZM159.767 105.979C158.626 105.979 157.531 106.332 156.724 106.96L150.772 111.596C149.88 112.291 148.67 112.681 147.409 112.681H136.978C136.182 112.681 135.401 112.853 134.722 113.178C131.343 114.797 130.922 119.441 133.955 121.642L145.018 129.67C146.257 130.569 147.688 131.178 149.201 131.416C161.366 133.33 169.789 133.125 176.265 130.05C182.613 127.036 187.142 121.239 191.461 111.845C192.07 110.52 191.351 108.954 190.438 107.817C189.64 106.824 188.612 105.979 187.338 105.979H159.767Z" stroke="black" stroke-linecap="round" stroke-linejoin="round"/>
    <defs>
      <linearGradient id="paint0_linear_2_5" x1="107.918" y1="0.500004" x2="107.918" y2="152.5" gradientUnits="userSpaceOnUse">
        <stop stop-color="#B84DCE"/>
        <stop offset="0.149038" stop-color="#AD49C2"/>
        <stop offset="0.302885" stop-color="#A047B2"/>
        <stop offset="0.394231" stop-color="#9540A7"/>
        <stop offset="0.543269" stop-color="#843E92"/>
        <stop offset="0.682692" stop-color="#672374"/>
        <stop offset="0.8125" stop-color="#4E1D58"/>
        <stop offset="1" stop-color="#2B1430"/>
      </linearGradient>
      <linearGradient id="paint1_linear_2_5" x1="107.918" y1="0.500004" x2="107.918" y2="152.5" gradientUnits="userSpaceOnUse">
        <stop stop-color="#B84DCE"/>
        <stop offset="0.149038" stop-color="#AD49C2"/>
        <stop offset="0.302885" stop-color="#A047B2"/>
        <stop offset="0.394231" stop-color="#9540A7"/>
        <stop offset="0.543269" stop-color="#843E92"/>
        <stop offset="0.682692" stop-color="#672374"/>
        <stop offset="0.8125" stop-color="#4E1D58"/>
        <stop offset="1" stop-color="#2B1430"/>
      </linearGradient>
      <linearGradient id="paint2_linear_2_5" x1="107.918" y1="0.500004" x2="107.918" y2="152.5" gradientUnits="userSpaceOnUse">
        <stop stop-color="#B84DCE"/>
        <stop offset="0.149038" stop-color="#AD49C2"/>
        <stop offset="0.302885" stop-color="#A047B2"/>
        <stop offset="0.394231" stop-color="#9540A7"/>
        <stop offset="0.543269" stop-color="#843E92"/>
        <stop offset="0.682692" stop-color="#672374"/>
        <stop offset="0.8125" stop-color="#4E1D58"/>
        <stop offset="1" stop-color="#2B1430"/>
      </linearGradient>
    </defs>
  </svg>
</svg>
