<svg width="568" height="156" viewBox="0 0 568 156" fill="none" xmlns="http://www.w3.org/2000/svg">
<path d="M69.7698 0.26933C60.1195 1.3775 51.7158 3.82472 42.989 8.16506C35.4164 11.9051 29.7371 16.0608 22.8572 22.8945C16.3005 29.4512 11.9601 35.5462 7.89684 43.8574C-5.21653 70.7306 -1.79967 102.406 16.6699 126.093C20.0406 130.387 27.3822 137.59 31.6764 140.823C40.4956 147.425 52.3623 152.643 63.0746 154.721C68.754 155.783 77.6655 156.291 83.6681 155.829C101.353 154.536 116.913 147.656 129.703 135.605C137.876 127.848 138.569 117.043 131.366 109.655C124.948 103.052 114.051 102.96 106.986 109.424C106.155 110.209 103.938 113.118 102.091 115.935C95.858 125.4 88.2855 131.126 78.4966 133.758C73.2328 135.189 64.4136 135.235 58.6881 133.804C50.0997 131.68 40.7726 125.816 35.4626 119.213C20.3638 100.559 22.2107 74.4245 39.8491 57.5249C44.5589 52.9537 47.514 50.922 53.4704 48.0593C67.184 41.4564 83.2987 41.7796 97.6588 48.9827C104.862 52.5843 110.818 52.8152 117.329 49.7215C127.718 44.8271 131.735 32.0831 126.24 21.3246C123.193 15.3682 111.834 7.70331 100.291 3.73236C91.8409 0.869578 78.312 -0.654146 69.7698 0.26933Z" fill="#0B1020"/>
<path d="M92.2792 85.1137C92.2792 95.4417 83.9068 103.814 73.5788 103.814C63.2509 103.814 54.8784 95.4417 54.8784 85.1137C54.8784 74.7858 63.2509 66.4133 73.5788 66.4133C83.9068 66.4133 92.2792 74.7858 92.2792 85.1137Z" fill="#5A5CFF"/>
<path d="M202.528 117.28C195.957 117.28 190.112 115.957 184.992 113.312C179.957 110.581 175.989 106.741 173.088 101.792C170.272 96.8427 168.864 91.04 168.864 84.384C168.864 79.3493 169.675 74.8693 171.296 70.944C172.917 66.9333 175.221 63.5627 178.208 60.832C181.195 58.016 184.736 55.8827 188.832 54.432C193.013 52.896 197.579 52.128 202.528 52.128C205.344 52.128 208.416 52.5547 211.744 53.408C215.072 54.176 218.144 55.5413 220.96 57.504C222.411 58.528 223.392 59.7227 223.904 61.088C224.416 62.368 224.501 63.648 224.16 64.928C223.819 66.208 223.179 67.3173 222.24 68.256C221.301 69.1093 220.149 69.5787 218.784 69.664C217.419 69.7493 215.968 69.28 214.432 68.256C212.64 67.0613 210.891 66.2507 209.184 65.824C207.477 65.312 205.728 65.056 203.936 65.056C201.12 65.056 198.475 65.4827 196 66.336C193.611 67.104 191.477 68.3413 189.6 70.048C187.808 71.6693 186.4 73.6747 185.376 76.064C184.352 78.4533 183.84 81.2693 183.84 84.512C183.84 88.6933 184.736 92.2773 186.528 95.264C188.32 98.1653 190.752 100.384 193.824 101.92C196.896 103.456 200.267 104.224 203.936 104.224C205.728 104.224 207.435 104.011 209.056 103.584C210.763 103.157 212.683 102.219 214.816 100.768C216.011 99.9147 217.205 99.616 218.4 99.872C219.595 100.043 220.619 100.555 221.472 101.408C222.411 102.261 223.051 103.328 223.392 104.608C223.733 105.803 223.733 107.04 223.392 108.32C223.051 109.6 222.197 110.709 220.832 111.648C217.931 113.781 214.859 115.232 211.616 116C208.373 116.853 205.344 117.28 202.528 117.28ZM253.761 117.28C249.238 117.28 245.356 116.341 242.113 114.464C238.956 112.587 236.524 110.112 234.817 107.04C233.11 103.883 232.257 100.427 232.257 96.672C232.257 93.1733 233.324 90.016 235.457 87.2C237.59 84.2987 240.364 81.9947 243.777 80.288C247.276 78.5813 251.116 77.6853 255.297 77.6C259.478 77.4293 263.617 78.3253 267.713 80.288L273.601 83.104V91.68L267.329 88.992C263.916 87.5413 260.886 86.816 258.241 86.816C255.596 86.816 253.334 87.2853 251.457 88.224C249.665 89.1627 248.3 90.4 247.361 91.936C246.422 93.472 245.953 95.0507 245.953 96.672C245.953 99.488 246.934 101.792 248.897 103.584C250.86 105.376 253.59 106.272 257.089 106.272C259.137 106.272 261.057 105.931 262.849 105.248C264.641 104.48 266.177 103.456 267.457 102.176C268.822 100.811 269.846 99.232 270.529 97.44C271.297 95.5627 271.681 93.5147 271.681 91.296V75.936C271.681 71.6693 270.614 68.5547 268.481 66.592C266.433 64.544 263.404 63.52 259.393 63.52C258.54 63.52 257.473 63.6907 256.193 64.032C254.913 64.3733 253.42 64.928 251.713 65.696C250.092 66.464 248.342 67.5307 246.465 68.896C244.929 70.0053 243.478 70.5173 242.113 70.432C240.833 70.3467 239.724 69.92 238.785 69.152C237.846 68.2987 237.206 67.2747 236.865 66.08C236.524 64.8853 236.566 63.648 236.993 62.368C237.42 61.0027 238.316 59.808 239.681 58.784C241.985 56.992 244.374 55.584 246.849 54.56C249.324 53.536 251.713 52.8107 254.017 52.384C256.321 51.9573 258.284 51.744 259.905 51.744C266.049 51.744 271.084 52.7253 275.009 54.688C279.02 56.5653 282.006 59.4667 283.969 63.392C285.932 67.232 286.913 72.1387 286.913 78.112V109.728C286.913 111.947 286.273 113.739 284.993 115.104C283.713 116.384 281.878 117.024 279.489 117.024C277.868 117.024 276.502 116.725 275.393 116.128C274.284 115.616 273.43 114.805 272.833 113.696C272.236 112.587 271.937 111.307 271.937 109.856V105.248H272.961C272.364 108.235 271.212 110.624 269.505 112.416C267.798 114.123 265.622 115.36 262.977 116.128C260.417 116.896 257.345 117.28 253.761 117.28ZM326.259 117.28C320.798 117.28 316.019 115.957 311.923 113.312C307.827 110.667 304.627 106.912 302.323 102.048C300.019 97.0987 298.867 91.296 298.867 84.64C298.867 77.8987 299.976 72.1387 302.195 67.36C304.499 62.496 307.699 58.7413 311.795 56.096C315.976 53.4507 320.798 52.128 326.259 52.128C331.464 52.128 335.987 53.408 339.827 55.968C343.752 58.528 346.398 61.8987 347.763 66.08H346.355V37.28C346.355 34.6347 347.038 32.6293 348.403 31.264C349.768 29.8987 351.731 29.216 354.291 29.216C356.851 29.216 358.814 29.8987 360.179 31.264C361.63 32.6293 362.355 34.6347 362.355 37.28V108.832C362.355 111.477 361.672 113.525 360.307 114.976C358.942 116.341 356.979 117.024 354.419 117.024C351.859 117.024 349.896 116.341 348.531 114.976C347.166 113.525 346.483 111.477 346.483 108.832V98.848L347.891 102.688C346.611 107.125 344.008 110.667 340.083 113.312C336.158 115.957 331.55 117.28 326.259 117.28ZM330.739 105.12C333.896 105.12 336.67 104.352 339.059 102.816C341.448 101.28 343.283 99.0187 344.563 96.032C345.928 92.96 346.611 89.1627 346.611 84.64C346.611 77.8133 345.16 72.736 342.259 69.408C339.358 65.9947 335.518 64.288 330.739 64.288C327.582 64.288 324.808 65.056 322.419 66.592C320.03 68.0427 318.152 70.304 316.787 73.376C315.507 76.3627 314.867 80.1173 314.867 84.64C314.867 91.3813 316.318 96.5013 319.219 100C322.12 103.413 325.96 105.12 330.739 105.12ZM407.489 117.28C401.26 117.28 395.713 115.872 390.849 113.056C386.07 110.24 382.316 106.357 379.585 101.408C376.854 96.4587 375.489 90.8693 375.489 84.64C375.489 79.9467 376.257 75.6373 377.793 71.712C379.414 67.7867 381.633 64.3733 384.449 61.472C387.35 58.4853 390.721 56.1813 394.561 54.56C398.486 52.9387 402.796 52.128 407.489 52.128C413.718 52.128 419.222 53.536 424.001 56.352C428.865 59.168 432.662 63.0507 435.393 68C438.124 72.864 439.489 78.4107 439.489 84.64C439.489 89.3333 438.678 93.6853 437.057 97.696C435.521 101.621 433.302 105.077 430.401 108.064C427.585 110.965 424.214 113.227 420.289 114.848C416.449 116.469 412.182 117.28 407.489 117.28ZM407.489 105.12C410.476 105.12 413.206 104.267 415.681 102.56C418.156 100.853 420.161 98.464 421.697 95.392C423.233 92.32 424.001 88.736 424.001 84.64C424.001 80.544 423.233 77.0027 421.697 74.016C420.161 70.944 418.156 68.5547 415.681 66.848C413.206 65.1413 410.476 64.288 407.489 64.288C404.588 64.288 401.857 65.1413 399.297 66.848C396.737 68.5547 394.689 70.944 393.153 74.016C391.617 77.0027 390.849 80.544 390.849 84.64C390.849 88.736 391.617 92.32 393.153 95.392C394.689 98.464 396.737 100.853 399.297 102.56C401.857 104.267 404.588 105.12 407.489 105.12ZM476.789 117.024C474.656 117.024 472.778 116.469 471.157 115.36C469.621 114.251 468.341 112.544 467.317 110.24L446.965 63.008C446.197 61.1307 445.898 59.3813 446.069 57.76C446.325 56.1387 447.093 54.8587 448.373 53.92C449.738 52.896 451.573 52.384 453.877 52.384C455.84 52.384 457.418 52.8533 458.613 53.792C459.808 54.6453 460.874 56.3093 461.813 58.784L479.093 101.92H475.253L493.045 58.656C493.984 56.2667 495.05 54.6453 496.245 53.792C497.525 52.8533 499.232 52.384 501.365 52.384C503.242 52.384 504.736 52.896 505.845 53.92C506.954 54.8587 507.637 56.1387 507.893 57.76C508.149 59.296 507.85 61.0027 506.997 62.88L486.261 110.24C485.322 112.544 484.042 114.251 482.421 115.36C480.885 116.469 479.008 117.024 476.789 117.024ZM534.636 117.28C530.113 117.28 526.231 116.341 522.988 114.464C519.831 112.587 517.399 110.112 515.692 107.04C513.985 103.883 513.132 100.427 513.132 96.672C513.132 93.1733 514.199 90.016 516.332 87.2C518.465 84.2987 521.239 81.9947 524.652 80.288C528.151 78.5813 531.991 77.6853 536.172 77.6C540.353 77.4293 544.492 78.3253 548.588 80.288L554.476 83.104V91.68L548.204 88.992C544.791 87.5413 541.761 86.816 539.116 86.816C536.471 86.816 534.209 87.2853 532.332 88.224C530.54 89.1627 529.175 90.4 528.236 91.936C527.297 93.472 526.828 95.0507 526.828 96.672C526.828 99.488 527.809 101.792 529.772 103.584C531.735 105.376 534.465 106.272 537.964 106.272C540.012 106.272 541.932 105.931 543.724 105.248C545.516 104.48 547.052 103.456 548.332 102.176C549.697 100.811 550.721 99.232 551.404 97.44C552.172 95.5627 552.556 93.5147 552.556 91.296V75.936C552.556 71.6693 551.489 68.5547 549.356 66.592C547.308 64.544 544.279 63.52 540.268 63.52C539.415 63.52 538.348 63.6907 537.068 64.032C535.788 64.3733 534.295 64.928 532.588 65.696C530.967 66.464 529.217 67.5307 527.34 68.896C525.804 70.0053 524.353 70.5173 522.988 70.432C521.708 70.3467 520.599 69.92 519.66 69.152C518.721 68.2987 518.081 67.2747 517.74 66.08C517.399 64.8853 517.441 63.648 517.868 62.368C518.295 61.0027 519.191 59.808 520.556 58.784C522.86 56.992 525.249 55.584 527.724 54.56C530.199 53.536 532.588 52.8107 534.892 52.384C537.196 51.9573 539.159 51.744 540.78 51.744C546.924 51.744 551.959 52.7253 555.884 54.688C559.895 56.5653 562.881 59.4667 564.844 63.392C566.807 67.232 567.788 72.1387 567.788 78.112V109.728C567.788 111.947 567.148 113.739 565.868 115.104C564.588 116.384 562.753 117.024 560.364 117.024C558.743 117.024 557.377 116.725 556.268 116.128C555.159 115.616 554.305 114.805 553.708 113.696C553.111 112.587 552.812 111.307 552.812 109.856V105.248H553.836C553.239 108.235 552.087 110.624 550.38 112.416C548.673 114.123 546.497 115.36 543.852 116.128C541.292 116.896 538.22 117.28 534.636 117.28Z" fill="black"/>
</svg>
