<svg width="578" height="156" viewBox="0 0 578 156" fill="none" xmlns="http://www.w3.org/2000/svg">
<path d="M69.6579 0.26889C60.0231 1.37529 51.6329 3.81858 42.92 8.15196C35.3597 11.886 29.6894 16.035 22.8205 22.8578C16.2743 29.404 11.941 35.4892 7.88418 43.7871C-5.20817 70.6172 -1.79678 102.242 16.6431 125.891C20.0084 130.178 27.3383 137.37 31.6256 140.597C40.4306 147.189 52.2783 152.398 62.9735 154.473C68.6437 155.533 77.541 156.04 83.534 155.579C101.19 154.288 116.726 147.419 129.495 135.387C137.655 127.643 138.347 116.855 131.155 109.479C124.747 102.887 113.868 102.795 106.814 109.249C105.985 110.033 103.772 112.937 101.928 115.749C95.7043 125.199 88.144 130.916 78.3708 133.543C73.1154 134.973 64.3103 135.019 58.594 133.59C50.0194 131.469 40.7072 125.614 35.4058 119.022C20.3311 100.398 22.1751 74.3052 39.7852 57.4326C44.4874 52.8688 47.4378 50.8404 53.3847 47.9822C67.0763 41.3899 83.1652 41.7126 97.5022 48.9042C104.694 52.5 110.641 52.7305 117.141 49.6418C127.513 44.7552 131.524 32.0317 126.038 21.2904C122.995 15.3435 111.655 7.69095 100.13 3.72636C91.6936 0.868176 78.1864 -0.653106 69.6579 0.26889Z" fill="#F0F0F0"/>
<path d="M92.1316 84.9773C92.1316 95.2887 83.7726 103.648 73.4612 103.648C63.1498 103.648 54.7908 95.2887 54.7908 84.9773C54.7908 74.6659 63.1498 66.3069 73.4612 66.3069C83.7726 66.3069 92.1316 74.6659 92.1316 84.9773Z" fill="#5A5CFF"/>
<path d="M201.376 124.152C195.061 124.152 189.472 122.787 184.608 120.056C179.744 117.325 175.904 113.528 173.088 108.664C170.357 103.715 168.992 97.9546 168.992 91.384C168.992 86.52 169.76 82.1253 171.296 78.2C172.917 74.2746 175.136 70.9466 177.952 68.216C180.853 65.4 184.267 63.2666 188.192 61.816C192.203 60.28 196.597 59.512 201.376 59.512C204.363 59.512 207.52 59.9813 210.848 60.92C214.176 61.8586 217.248 63.4373 220.064 65.656C221.088 66.424 221.771 67.32 222.112 68.344C222.453 69.368 222.453 70.392 222.112 71.416C221.856 72.3546 221.344 73.1653 220.576 73.848C219.893 74.4453 218.997 74.7866 217.888 74.872C216.779 74.872 215.627 74.4453 214.432 73.592C212.384 71.9706 210.336 70.8613 208.288 70.264C206.325 69.6666 204.32 69.368 202.272 69.368C199.115 69.368 196.213 69.88 193.568 70.904C190.923 71.8426 188.619 73.2933 186.656 75.256C184.693 77.1333 183.157 79.4373 182.048 82.168C180.939 84.8986 180.384 88.0133 180.384 91.512C180.384 96.2053 181.323 100.259 183.2 103.672C185.163 107 187.765 109.603 191.008 111.48C194.336 113.272 198.091 114.168 202.272 114.168C204.32 114.168 206.325 113.869 208.288 113.272C210.336 112.675 212.469 111.523 214.688 109.816C215.712 109.048 216.693 108.749 217.632 108.92C218.571 109.005 219.381 109.389 220.064 110.072C220.832 110.669 221.344 111.437 221.6 112.376C221.941 113.315 221.984 114.296 221.728 115.32C221.557 116.259 220.96 117.112 219.936 117.88C217.12 120.184 214.048 121.805 210.72 122.744C207.477 123.683 204.363 124.152 201.376 124.152Z" fill="#E2E2E2"/>
<path d="M257.75 124.152C253.398 124.152 249.601 123.256 246.358 121.464C243.115 119.587 240.598 117.155 238.806 114.168C237.099 111.181 236.289 107.939 236.374 104.44C236.374 100.6 237.483 97.2293 239.702 94.328C242.006 91.3413 244.95 89.08 248.534 87.544C252.203 86.008 256.257 85.368 260.694 85.624C265.131 85.88 269.611 87.2453 274.134 89.72L278.358 91.896L277.974 98.296L273.366 96.248C269.697 94.5413 266.241 93.6026 262.998 93.432C259.841 93.176 257.067 93.5173 254.678 94.456C252.289 95.3093 250.411 96.5893 249.046 98.296C247.766 100.003 247.126 102.008 247.126 104.312C247.126 107.555 248.278 110.243 250.582 112.376C252.886 114.424 256.043 115.448 260.054 115.448C261.761 115.448 263.595 115.192 265.558 114.68C267.521 114.083 269.313 113.187 270.934 111.992C272.641 110.712 274.006 109.133 275.03 107.256C276.054 105.379 276.566 103.16 276.566 100.6V82.808C276.566 77.8586 275.371 74.232 272.982 71.928C270.678 69.624 267.435 68.472 263.254 68.472C262.059 68.472 260.651 68.6426 259.03 68.984C257.494 69.3253 255.787 69.9653 253.91 70.904C252.118 71.7573 250.283 72.9946 248.406 74.616C247.211 75.5546 246.059 76.024 244.95 76.024C243.926 76.024 243.03 75.7253 242.262 75.128C241.494 74.5306 240.939 73.7626 240.598 72.824C240.342 71.8853 240.342 70.904 240.598 69.88C240.939 68.7706 241.665 67.7893 242.774 66.936C244.907 64.9733 247.211 63.4373 249.686 62.328C252.246 61.1333 254.721 60.3226 257.11 59.896C259.585 59.384 261.718 59.1706 263.51 59.256C268.801 59.256 273.281 60.152 276.95 61.944C280.619 63.736 283.393 66.4666 285.27 70.136C287.147 73.8053 288.086 78.4986 288.086 84.216V118.264C288.086 119.971 287.617 121.336 286.678 122.36C285.739 123.384 284.374 123.896 282.582 123.896C281.302 123.896 280.235 123.683 279.382 123.256C278.529 122.829 277.889 122.189 277.462 121.336C277.035 120.483 276.822 119.501 276.822 118.392V111.608H277.974C277.291 114.765 275.969 117.283 274.006 119.16C272.043 120.952 269.697 122.232 266.966 123C264.235 123.768 261.163 124.152 257.75 124.152Z" fill="#E2E2E2"/>
<path d="M329.99 124.152C324.443 124.152 319.579 122.872 315.398 120.312C311.217 117.667 307.931 113.912 305.542 109.048C303.238 104.099 302.086 98.3387 302.086 91.768C302.086 85.112 303.238 79.3947 305.542 74.616C307.846 69.752 311.089 66.04 315.27 63.48C319.537 60.8347 324.443 59.512 329.99 59.512C335.451 59.512 340.187 60.8773 344.198 63.608C348.209 66.3387 350.897 70.008 352.262 74.616H350.854V42.36C350.854 40.3973 351.366 38.904 352.39 37.88C353.414 36.856 354.865 36.344 356.742 36.344C358.705 36.344 360.198 36.856 361.222 37.88C362.331 38.904 362.886 40.3973 362.886 42.36V117.752C362.886 119.715 362.331 121.251 361.222 122.36C360.198 123.384 358.747 123.896 356.87 123.896C354.907 123.896 353.414 123.384 352.39 122.36C351.366 121.251 350.854 119.715 350.854 117.752V106.232L352.262 108.664C350.982 113.357 348.337 117.112 344.326 119.928C340.315 122.744 335.537 124.152 329.99 124.152ZM332.806 114.68C336.475 114.68 339.675 113.827 342.406 112.12C345.137 110.328 347.227 107.725 348.678 104.312C350.214 100.899 350.982 96.7173 350.982 91.768C350.982 84.344 349.318 78.712 345.99 74.872C342.747 70.9467 338.353 68.984 332.806 68.984C329.137 68.984 325.894 69.8373 323.078 71.544C320.262 73.2507 318.043 75.8107 316.422 79.224C314.886 82.6373 314.118 86.8187 314.118 91.768C314.118 99.192 315.825 104.867 319.238 108.792C322.737 112.717 327.259 114.68 332.806 114.68Z" fill="#E2E2E2"/>
<path d="M407.35 124.152C401.377 124.152 396.086 122.787 391.478 120.056C386.955 117.24 383.371 113.4 380.726 108.536C378.166 103.587 376.886 97.9973 376.886 91.768C376.886 87.0746 377.611 82.7653 379.062 78.84C380.598 74.9146 382.731 71.5013 385.462 68.6C388.193 65.6986 391.393 63.48 395.062 61.944C398.731 60.3226 402.827 59.512 407.35 59.512C413.409 59.512 418.699 60.92 423.222 63.736C427.83 66.4666 431.414 70.264 433.974 75.128C436.534 79.992 437.814 85.5386 437.814 91.768C437.814 96.4613 437.046 100.813 435.51 104.824C434.059 108.749 431.969 112.163 429.238 115.064C426.593 117.965 423.393 120.227 419.638 121.848C415.969 123.384 411.873 124.152 407.35 124.152ZM407.35 114.68C410.934 114.68 414.091 113.741 416.822 111.864C419.638 109.987 421.857 107.341 423.478 103.928C425.185 100.429 426.038 96.376 426.038 91.768C426.038 87.16 425.185 83.1493 423.478 79.736C421.857 76.3226 419.638 73.6773 416.822 71.8C414.091 69.9226 410.934 68.984 407.35 68.984C403.851 68.984 400.651 69.9226 397.75 71.8C394.934 73.6773 392.715 76.3226 391.094 79.736C389.473 83.1493 388.662 87.16 388.662 91.768C388.662 96.376 389.473 100.429 391.094 103.928C392.715 107.341 394.934 109.987 397.75 111.864C400.651 113.741 403.851 114.68 407.35 114.68Z" fill="#E2E2E2"/>
<path d="M481.695 124.152C479.988 124.152 478.495 123.725 477.215 122.872C476.02 121.933 474.996 120.525 474.143 118.648L452.511 68.344C451.914 66.808 451.7 65.4427 451.871 64.248C452.042 62.968 452.596 61.944 453.535 61.176C454.559 60.408 455.967 60.024 457.759 60.024C459.295 60.024 460.49 60.3654 461.343 61.048C462.282 61.7307 463.092 62.968 463.775 64.76L483.743 113.656H480.159L500.383 64.76C501.151 62.968 501.962 61.7307 502.815 61.048C503.754 60.3654 505.076 60.024 506.783 60.024C508.234 60.024 509.386 60.408 510.239 61.176C511.092 61.944 511.604 62.968 511.775 64.248C511.946 65.4427 511.69 66.7654 511.007 68.216L489.247 118.648C488.479 120.525 487.455 121.933 486.175 122.872C484.895 123.725 483.402 124.152 481.695 124.152Z" fill="#E2E2E2"/>
<path d="M547.208 124.152C542.856 124.152 539.059 123.256 535.816 121.464C532.574 119.587 530.056 117.155 528.264 114.168C526.558 111.181 525.747 107.939 525.832 104.44C525.832 100.6 526.942 97.2293 529.16 94.328C531.464 91.3413 534.408 89.08 537.992 87.544C541.662 86.008 545.715 85.368 550.152 85.624C554.59 85.88 559.07 87.2453 563.592 89.72L567.816 91.896L567.432 98.296L562.824 96.248C559.155 94.5413 555.699 93.6026 552.456 93.432C549.299 93.176 546.526 93.5173 544.136 94.456C541.747 95.3093 539.87 96.5893 538.504 98.296C537.224 100.003 536.584 102.008 536.584 104.312C536.584 107.555 537.736 110.243 540.04 112.376C542.344 114.424 545.502 115.448 549.512 115.448C551.219 115.448 553.054 115.192 555.016 114.68C556.979 114.083 558.771 113.187 560.392 111.992C562.099 110.712 563.464 109.133 564.488 107.256C565.512 105.379 566.024 103.16 566.024 100.6V82.808C566.024 77.8586 564.83 74.232 562.44 71.928C560.136 69.624 556.894 68.472 552.712 68.472C551.518 68.472 550.11 68.6426 548.488 68.984C546.952 69.3253 545.246 69.9653 543.368 70.904C541.576 71.7573 539.742 72.9946 537.864 74.616C536.67 75.5546 535.518 76.024 534.408 76.024C533.384 76.024 532.488 75.7253 531.72 75.128C530.952 74.5306 530.398 73.7626 530.056 72.824C529.8 71.8853 529.8 70.904 530.056 69.88C530.398 68.7706 531.123 67.7893 532.232 66.936C534.366 64.9733 536.67 63.4373 539.144 62.328C541.704 61.1333 544.179 60.3226 546.568 59.896C549.043 59.384 551.176 59.1706 552.968 59.256C558.259 59.256 562.739 60.152 566.408 61.944C570.078 63.736 572.851 66.4666 574.728 70.136C576.606 73.8053 577.544 78.4986 577.544 84.216V118.264C577.544 119.971 577.075 121.336 576.136 122.36C575.198 123.384 573.832 123.896 572.04 123.896C570.76 123.896 569.694 123.683 568.84 123.256C567.987 122.829 567.347 122.189 566.92 121.336C566.494 120.483 566.28 119.501 566.28 118.392V111.608H567.432C566.75 114.765 565.427 117.283 563.464 119.16C561.502 120.952 559.155 122.232 556.424 123C553.694 123.768 550.622 124.152 547.208 124.152Z" fill="#E2E2E2"/>
</svg>
