<svg width="713" height="241" viewBox="0 0 713 241" fill="none" xmlns="http://www.w3.org/2000/svg">
<rect width="713" height="241" rx="65" fill="#0B1020"/>
<path d="M119.658 39.2689C110.023 40.3753 101.633 42.8186 92.92 47.152C85.3597 50.886 79.6894 55.035 72.8205 61.8578C66.2743 68.404 61.941 74.4892 57.8842 82.7871C44.7918 109.617 48.2032 141.242 66.6431 164.891C70.0084 169.178 77.3383 176.37 81.6256 179.597C90.4306 186.189 102.278 191.398 112.973 193.473C118.644 194.533 127.541 195.04 133.534 194.579C151.19 193.288 166.726 186.419 179.495 174.387C187.655 166.643 188.347 155.855 181.155 148.479C174.747 141.887 163.868 141.795 156.814 148.249C155.985 149.033 153.772 151.937 151.928 154.749C145.704 164.199 138.144 169.916 128.371 172.543C123.115 173.973 114.31 174.019 108.594 172.59C100.019 170.469 90.7072 164.614 85.4058 158.022C70.3311 139.398 72.1751 113.305 89.7852 96.4326C94.4874 91.8688 97.4378 89.8404 103.385 86.9822C117.076 80.3899 133.165 80.7126 147.502 87.9042C154.694 91.5 160.641 91.7305 167.141 88.6418C177.513 83.7552 181.524 71.0317 176.038 60.2904C172.995 54.3435 161.655 46.6909 150.13 42.7264C141.694 39.8682 128.186 38.3469 119.658 39.2689Z" fill="#F0F0F0"/>
<path d="M142.132 123.977C142.132 134.289 133.773 142.648 123.461 142.648C113.15 142.648 104.791 134.289 104.791 123.977C104.791 113.666 113.15 105.307 123.461 105.307C133.773 105.307 142.132 113.666 142.132 123.977Z" fill="#5A5CFF"/>
<path d="M251.376 163.152C245.061 163.152 239.472 161.787 234.608 159.056C229.744 156.325 225.904 152.528 223.088 147.664C220.357 142.715 218.992 136.955 218.992 130.384C218.992 125.52 219.76 121.125 221.296 117.2C222.917 113.275 225.136 109.947 227.952 107.216C230.853 104.4 234.267 102.267 238.192 100.816C242.203 99.28 246.597 98.512 251.376 98.512C254.363 98.512 257.52 98.9813 260.848 99.92C264.176 100.859 267.248 102.437 270.064 104.656C271.088 105.424 271.771 106.32 272.112 107.344C272.453 108.368 272.453 109.392 272.112 110.416C271.856 111.355 271.344 112.165 270.576 112.848C269.893 113.445 268.997 113.787 267.888 113.872C266.779 113.872 265.627 113.445 264.432 112.592C262.384 110.971 260.336 109.861 258.288 109.264C256.325 108.667 254.32 108.368 252.272 108.368C249.115 108.368 246.213 108.88 243.568 109.904C240.923 110.843 238.619 112.293 236.656 114.256C234.693 116.133 233.157 118.437 232.048 121.168C230.939 123.899 230.384 127.013 230.384 130.512C230.384 135.205 231.323 139.259 233.2 142.672C235.163 146 237.765 148.603 241.008 150.48C244.336 152.272 248.091 153.168 252.272 153.168C254.32 153.168 256.325 152.869 258.288 152.272C260.336 151.675 262.469 150.523 264.688 148.816C265.712 148.048 266.693 147.749 267.632 147.92C268.571 148.005 269.381 148.389 270.064 149.072C270.832 149.669 271.344 150.437 271.6 151.376C271.941 152.315 271.984 153.296 271.728 154.32C271.557 155.259 270.96 156.112 269.936 156.88C267.12 159.184 264.048 160.805 260.72 161.744C257.477 162.683 254.363 163.152 251.376 163.152Z" fill="#E2E2E2"/>
<path d="M307.75 163.152C303.398 163.152 299.601 162.256 296.358 160.464C293.115 158.587 290.598 156.155 288.806 153.168C287.099 150.181 286.289 146.939 286.374 143.44C286.374 139.6 287.483 136.229 289.702 133.328C292.006 130.341 294.95 128.08 298.534 126.544C302.203 125.008 306.257 124.368 310.694 124.624C315.131 124.88 319.611 126.245 324.134 128.72L328.358 130.896L327.974 137.296L323.366 135.248C319.697 133.541 316.241 132.603 312.998 132.432C309.841 132.176 307.067 132.517 304.678 133.456C302.289 134.309 300.411 135.589 299.046 137.296C297.766 139.003 297.126 141.008 297.126 143.312C297.126 146.555 298.278 149.243 300.582 151.376C302.886 153.424 306.043 154.448 310.054 154.448C311.761 154.448 313.595 154.192 315.558 153.68C317.521 153.083 319.313 152.187 320.934 150.992C322.641 149.712 324.006 148.133 325.03 146.256C326.054 144.379 326.566 142.16 326.566 139.6V121.808C326.566 116.859 325.371 113.232 322.982 110.928C320.678 108.624 317.435 107.472 313.254 107.472C312.059 107.472 310.651 107.643 309.03 107.984C307.494 108.325 305.787 108.965 303.91 109.904C302.118 110.757 300.283 111.995 298.406 113.616C297.211 114.555 296.059 115.024 294.95 115.024C293.926 115.024 293.03 114.725 292.262 114.128C291.494 113.531 290.939 112.763 290.598 111.824C290.342 110.885 290.342 109.904 290.598 108.88C290.939 107.771 291.665 106.789 292.774 105.936C294.907 103.973 297.211 102.437 299.686 101.328C302.246 100.133 304.721 99.3226 307.11 98.896C309.585 98.384 311.718 98.1706 313.51 98.256C318.801 98.256 323.281 99.152 326.95 100.944C330.619 102.736 333.393 105.467 335.27 109.136C337.147 112.805 338.086 117.499 338.086 123.216V157.264C338.086 158.971 337.617 160.336 336.678 161.36C335.739 162.384 334.374 162.896 332.582 162.896C331.302 162.896 330.235 162.683 329.382 162.256C328.529 161.829 327.889 161.189 327.462 160.336C327.035 159.483 326.822 158.501 326.822 157.392V150.608H327.974C327.291 153.765 325.969 156.283 324.006 158.16C322.043 159.952 319.697 161.232 316.966 162C314.235 162.768 311.163 163.152 307.75 163.152Z" fill="#E2E2E2"/>
<path d="M379.99 163.152C374.443 163.152 369.579 161.872 365.398 159.312C361.217 156.667 357.931 152.912 355.542 148.048C353.238 143.099 352.086 137.339 352.086 130.768C352.086 124.112 353.238 118.395 355.542 113.616C357.846 108.752 361.089 105.04 365.27 102.48C369.537 99.8347 374.443 98.512 379.99 98.512C385.451 98.512 390.187 99.8773 394.198 102.608C398.209 105.339 400.897 109.008 402.262 113.616H400.854V81.36C400.854 79.3973 401.366 77.904 402.39 76.88C403.414 75.856 404.865 75.344 406.742 75.344C408.705 75.344 410.198 75.856 411.222 76.88C412.331 77.904 412.886 79.3973 412.886 81.36V156.752C412.886 158.715 412.331 160.251 411.222 161.36C410.198 162.384 408.747 162.896 406.87 162.896C404.907 162.896 403.414 162.384 402.39 161.36C401.366 160.251 400.854 158.715 400.854 156.752V145.232L402.262 147.664C400.982 152.357 398.337 156.112 394.326 158.928C390.315 161.744 385.537 163.152 379.99 163.152ZM382.806 153.68C386.475 153.68 389.675 152.827 392.406 151.12C395.137 149.328 397.227 146.725 398.678 143.312C400.214 139.899 400.982 135.717 400.982 130.768C400.982 123.344 399.318 117.712 395.99 113.872C392.747 109.947 388.353 107.984 382.806 107.984C379.137 107.984 375.894 108.837 373.078 110.544C370.262 112.251 368.043 114.811 366.422 118.224C364.886 121.637 364.118 125.819 364.118 130.768C364.118 138.192 365.825 143.867 369.238 147.792C372.737 151.717 377.259 153.68 382.806 153.68Z" fill="#E2E2E2"/>
<path d="M457.35 163.152C451.377 163.152 446.086 161.787 441.478 159.056C436.955 156.24 433.371 152.4 430.726 147.536C428.166 142.587 426.886 136.997 426.886 130.768C426.886 126.075 427.611 121.765 429.062 117.84C430.598 113.915 432.731 110.501 435.462 107.6C438.193 104.699 441.393 102.48 445.062 100.944C448.731 99.3226 452.827 98.512 457.35 98.512C463.409 98.512 468.699 99.92 473.222 102.736C477.83 105.467 481.414 109.264 483.974 114.128C486.534 118.992 487.814 124.539 487.814 130.768C487.814 135.461 487.046 139.813 485.51 143.824C484.059 147.749 481.969 151.163 479.238 154.064C476.593 156.965 473.393 159.227 469.638 160.848C465.969 162.384 461.873 163.152 457.35 163.152ZM457.35 153.68C460.934 153.68 464.091 152.741 466.822 150.864C469.638 148.987 471.857 146.341 473.478 142.928C475.185 139.429 476.038 135.376 476.038 130.768C476.038 126.16 475.185 122.149 473.478 118.736C471.857 115.323 469.638 112.677 466.822 110.8C464.091 108.923 460.934 107.984 457.35 107.984C453.851 107.984 450.651 108.923 447.75 110.8C444.934 112.677 442.715 115.323 441.094 118.736C439.473 122.149 438.662 126.16 438.662 130.768C438.662 135.376 439.473 139.429 441.094 142.928C442.715 146.341 444.934 148.987 447.75 150.864C450.651 152.741 453.851 153.68 457.35 153.68Z" fill="#E2E2E2"/>
<path d="M531.695 163.152C529.988 163.152 528.495 162.725 527.215 161.872C526.02 160.933 524.996 159.525 524.143 157.648L502.511 107.344C501.914 105.808 501.7 104.443 501.871 103.248C502.042 101.968 502.596 100.944 503.535 100.176C504.559 99.408 505.967 99.024 507.759 99.024C509.295 99.024 510.49 99.3654 511.343 100.048C512.282 100.731 513.092 101.968 513.775 103.76L533.743 152.656H530.159L550.383 103.76C551.151 101.968 551.962 100.731 552.815 100.048C553.754 99.3654 555.076 99.024 556.783 99.024C558.234 99.024 559.386 99.408 560.239 100.176C561.092 100.944 561.604 101.968 561.775 103.248C561.946 104.443 561.69 105.765 561.007 107.216L539.247 157.648C538.479 159.525 537.455 160.933 536.175 161.872C534.895 162.725 533.402 163.152 531.695 163.152Z" fill="#E2E2E2"/>
<path d="M597.208 163.152C592.856 163.152 589.059 162.256 585.816 160.464C582.574 158.587 580.056 156.155 578.264 153.168C576.558 150.181 575.747 146.939 575.832 143.44C575.832 139.6 576.942 136.229 579.16 133.328C581.464 130.341 584.408 128.08 587.992 126.544C591.662 125.008 595.715 124.368 600.152 124.624C604.59 124.88 609.07 126.245 613.592 128.72L617.816 130.896L617.432 137.296L612.824 135.248C609.155 133.541 605.699 132.603 602.456 132.432C599.299 132.176 596.526 132.517 594.136 133.456C591.747 134.309 589.87 135.589 588.504 137.296C587.224 139.003 586.584 141.008 586.584 143.312C586.584 146.555 587.736 149.243 590.04 151.376C592.344 153.424 595.502 154.448 599.512 154.448C601.219 154.448 603.054 154.192 605.016 153.68C606.979 153.083 608.771 152.187 610.392 150.992C612.099 149.712 613.464 148.133 614.488 146.256C615.512 144.379 616.024 142.16 616.024 139.6V121.808C616.024 116.859 614.83 113.232 612.44 110.928C610.136 108.624 606.894 107.472 602.712 107.472C601.518 107.472 600.11 107.643 598.488 107.984C596.952 108.325 595.246 108.965 593.368 109.904C591.576 110.757 589.742 111.995 587.864 113.616C586.67 114.555 585.518 115.024 584.408 115.024C583.384 115.024 582.488 114.725 581.72 114.128C580.952 113.531 580.398 112.763 580.056 111.824C579.8 110.885 579.8 109.904 580.056 108.88C580.398 107.771 581.123 106.789 582.232 105.936C584.366 103.973 586.67 102.437 589.144 101.328C591.704 100.133 594.179 99.3226 596.568 98.896C599.043 98.384 601.176 98.1706 602.968 98.256C608.259 98.256 612.739 99.152 616.408 100.944C620.078 102.736 622.851 105.467 624.728 109.136C626.606 112.805 627.544 117.499 627.544 123.216V157.264C627.544 158.971 627.075 160.336 626.136 161.36C625.198 162.384 623.832 162.896 622.04 162.896C620.76 162.896 619.694 162.683 618.84 162.256C617.987 161.829 617.347 161.189 616.92 160.336C616.494 159.483 616.28 158.501 616.28 157.392V150.608H617.432C616.75 153.765 615.427 156.283 613.464 158.16C611.502 159.952 609.155 161.232 606.424 162C603.694 162.768 600.622 163.152 597.208 163.152Z" fill="#E2E2E2"/>
</svg>
