<svg width="963" height="261" viewBox="0 0 963 261" fill="none" xmlns="http://www.w3.org/2000/svg">
<path d="M116.376 0.449233C100.279 2.29767 86.2622 6.37965 71.7057 13.6194C59.0748 19.8579 49.6015 26.7895 38.1258 38.1882C27.1893 49.1248 19.9496 59.2912 13.172 73.1545C-8.7012 117.979 -3.00185 170.814 27.8054 210.324C33.4277 217.487 45.6736 229.502 52.8363 234.893C67.5468 245.907 87.3404 254.61 105.209 258.075C114.682 259.847 129.546 260.694 139.559 259.924C169.057 257.767 195.012 246.292 216.346 226.19C229.978 213.251 231.133 195.229 219.118 182.906C208.413 171.892 190.237 171.738 178.453 182.521C177.067 183.83 173.37 188.682 170.289 193.38C159.892 209.169 147.261 218.719 130.933 223.109C122.153 225.497 107.442 225.574 97.8919 223.186C83.5665 219.643 68.0089 209.862 59.1518 198.848C33.9669 167.733 37.0476 124.141 66.4685 95.9519C74.3243 88.3271 79.2535 84.9383 89.1888 80.1632C112.063 69.1496 138.943 69.6887 162.895 81.7035C174.91 87.711 184.845 88.0961 195.705 82.9358C213.034 74.7719 219.735 53.5148 210.569 35.5696C205.486 25.6342 186.54 12.8492 167.285 6.22559C153.191 1.45045 130.625 -1.09113 116.376 0.449233Z" fill="#0B1020"/>
<path d="M153.922 141.97C153.922 159.197 139.957 173.163 122.73 173.163C105.503 173.163 91.5377 159.197 91.5377 141.97C91.5377 124.743 105.503 110.778 122.73 110.778C139.957 110.778 153.922 124.743 153.922 141.97Z" fill="#5A5CFF"/>
<path d="M336.103 207C325.554 207 316.216 204.719 308.089 200.157C299.963 195.595 293.548 189.251 288.843 181.124C284.281 172.856 282 163.232 282 152.255C282 144.129 283.283 136.787 285.849 130.229C288.558 123.671 292.265 118.111 296.969 113.548C301.817 108.844 307.519 105.28 314.077 102.856C320.778 100.29 328.12 99.0068 336.103 99.0068C341.093 99.0068 346.368 99.7909 351.928 101.359C357.488 102.927 362.62 105.565 367.325 109.272C369.036 110.555 370.176 112.052 370.747 113.762C371.317 115.473 371.317 117.184 370.747 118.895C370.319 120.463 369.464 121.817 368.18 122.958C367.04 123.956 365.543 124.526 363.69 124.669C361.836 124.669 359.912 123.956 357.916 122.53C354.494 119.821 351.073 117.968 347.651 116.97C344.372 115.972 341.022 115.473 337.6 115.473C332.325 115.473 327.478 116.329 323.059 118.039C318.639 119.608 314.79 122.031 311.511 125.31C308.232 128.447 305.666 132.296 303.812 136.858C301.959 141.42 301.032 146.624 301.032 152.469C301.032 160.31 302.601 167.082 305.737 172.784C309.016 178.344 313.364 182.693 318.782 185.829C324.342 188.823 330.615 190.32 337.6 190.32C341.022 190.32 344.372 189.821 347.651 188.823C351.073 187.825 354.637 185.9 358.343 183.049C360.054 181.766 361.694 181.267 363.262 181.552C364.83 181.695 366.185 182.336 367.325 183.477C368.608 184.475 369.464 185.758 369.891 187.326C370.462 188.894 370.533 190.534 370.105 192.244C369.82 193.813 368.822 195.238 367.111 196.521C362.407 200.371 357.274 203.079 351.714 204.648C346.297 206.216 341.093 207 336.103 207Z" fill="black"/>
<path d="M429.897 207C422.626 207 416.282 205.503 410.865 202.509C405.447 199.373 401.241 195.31 398.248 190.32C395.396 185.33 394.042 179.913 394.184 174.067C394.184 167.652 396.038 162.021 399.745 157.173C403.594 152.184 408.512 148.406 414.5 145.839C420.63 143.273 427.402 142.204 434.816 142.632C442.229 143.059 449.714 145.341 457.269 149.475L464.326 153.11L463.685 163.803L455.986 160.381C449.856 157.53 444.082 155.962 438.665 155.676C433.39 155.249 428.756 155.819 424.765 157.387C420.773 158.813 417.636 160.951 415.355 163.803C413.217 166.654 412.148 170.004 412.148 173.854C412.148 179.271 414.072 183.762 417.922 187.326C421.771 190.748 427.046 192.458 433.746 192.458C436.598 192.458 439.663 192.031 442.942 191.175C446.221 190.177 449.215 188.68 451.923 186.684C454.775 184.546 457.056 181.908 458.766 178.772C460.477 175.636 461.333 171.929 461.333 167.652V137.927C461.333 129.658 459.337 123.599 455.345 119.75C451.496 115.901 446.078 113.976 439.092 113.976C437.097 113.976 434.744 114.261 432.035 114.832C429.469 115.402 426.618 116.471 423.482 118.039C420.488 119.465 417.423 121.532 414.286 124.241C412.29 125.809 410.366 126.593 408.512 126.593C406.801 126.593 405.305 126.094 404.021 125.096C402.738 124.098 401.812 122.815 401.241 121.247C400.814 119.679 400.814 118.039 401.241 116.328C401.812 114.475 403.024 112.836 404.877 111.41C408.441 108.131 412.29 105.565 416.425 103.711C420.702 101.716 424.836 100.361 428.828 99.6484C432.962 98.793 436.526 98.4366 439.52 98.5791C448.359 98.5791 455.844 100.076 461.974 103.07C468.104 106.064 472.738 110.626 475.874 116.756C479.011 122.887 480.579 130.728 480.579 140.279V197.163C480.579 200.014 479.795 202.295 478.227 204.006C476.658 205.717 474.377 206.572 471.383 206.572C469.245 206.572 467.463 206.216 466.037 205.503C464.612 204.79 463.542 203.721 462.83 202.295C462.117 200.87 461.76 199.23 461.76 197.377V186.043H463.685C462.544 191.318 460.335 195.523 457.056 198.66C453.777 201.654 449.856 203.792 445.294 205.075C440.732 206.358 435.6 207 429.897 207Z" fill="black"/>
<path d="M550.198 207C540.931 207 532.805 204.862 525.819 200.585C518.833 196.165 513.345 189.892 509.353 181.766C505.503 173.497 503.579 163.874 503.579 152.897C503.579 141.776 505.503 132.225 509.353 124.241C513.202 116.115 518.619 109.913 525.605 105.636C532.733 101.217 540.931 99.0069 550.198 99.0069C559.322 99.0069 567.234 101.288 573.935 105.85C580.635 110.412 585.126 116.542 587.407 124.241H585.055V70.3513C585.055 67.0723 585.91 64.5774 587.621 62.8666C589.332 61.1558 591.755 60.3004 594.892 60.3004C598.171 60.3004 600.666 61.1558 602.376 62.8666C604.23 64.5774 605.156 67.0723 605.156 70.3513V196.308C605.156 199.587 604.23 202.153 602.376 204.006C600.666 205.717 598.242 206.572 595.106 206.572C591.827 206.572 589.332 205.717 587.621 204.006C585.91 202.153 585.055 199.587 585.055 196.308V177.061L587.407 181.124C585.269 188.966 580.849 195.238 574.148 199.943C567.448 204.648 559.464 207 550.198 207ZM554.902 191.175C561.033 191.175 566.379 189.75 570.941 186.898C575.503 183.904 578.996 179.556 581.419 173.854C583.985 168.151 585.269 161.165 585.269 152.897C585.269 140.493 582.489 131.084 576.928 124.669C571.511 118.111 564.169 114.832 554.902 114.832C548.772 114.832 543.354 116.257 538.65 119.109C533.945 121.96 530.238 126.237 527.53 131.939C524.964 137.642 523.681 144.628 523.681 152.897C523.681 165.3 526.532 174.78 532.234 181.338C538.08 187.896 545.635 191.175 554.902 191.175Z" fill="black"/>
<path d="M679.052 207C669.072 207 660.233 204.719 652.535 200.157C644.979 195.452 638.991 189.037 634.572 180.911C630.295 172.642 628.156 163.304 628.156 152.896C628.156 145.055 629.368 137.856 631.792 131.298C634.358 124.74 637.922 119.037 642.484 114.19C647.046 109.343 652.392 105.636 658.523 103.07C664.653 100.361 671.496 99.0068 679.052 99.0068C689.174 99.0068 698.013 101.359 705.569 106.064C713.268 110.626 719.255 116.97 723.532 125.096C727.809 133.222 729.948 142.489 729.948 152.896C729.948 160.738 728.665 168.008 726.098 174.709C723.675 181.267 720.182 186.97 715.62 191.817C711.2 196.664 705.854 200.442 699.581 203.151C693.451 205.717 686.608 207 679.052 207ZM679.052 191.175C685.04 191.175 690.315 189.607 694.877 186.471C699.581 183.334 703.288 178.915 705.997 173.212C708.848 167.367 710.274 160.595 710.274 152.896C710.274 145.198 708.848 138.497 705.997 132.795C703.288 127.092 699.581 122.673 694.877 119.536C690.315 116.4 685.04 114.832 679.052 114.832C673.207 114.832 667.861 116.4 663.013 119.536C658.309 122.673 654.602 127.092 651.893 132.795C649.185 138.497 647.83 145.198 647.83 152.896C647.83 160.595 649.185 167.367 651.893 173.212C654.602 178.915 658.309 183.334 663.013 186.471C667.861 189.607 673.207 191.175 679.052 191.175Z" fill="black"/>
<path d="M802.869 207C800.018 207 797.523 206.287 795.385 204.862C793.389 203.293 791.678 200.941 790.252 197.805L754.112 113.762C753.114 111.196 752.758 108.915 753.043 106.919C753.328 104.781 754.255 103.07 755.823 101.787C757.534 100.504 759.886 99.8623 762.88 99.8623C765.446 99.8623 767.442 100.433 768.867 101.573C770.436 102.714 771.79 104.781 772.931 107.775L806.291 189.465H800.303L834.091 107.775C835.374 104.781 836.728 102.714 838.154 101.573C839.722 100.433 841.932 99.8623 844.783 99.8623C847.207 99.8623 849.131 100.504 850.557 101.787C851.983 103.07 852.838 104.781 853.123 106.919C853.408 108.915 852.981 111.125 851.84 113.549L815.486 197.805C814.203 200.941 812.492 203.293 810.354 204.862C808.215 206.287 805.72 207 802.869 207Z" fill="black"/>
<path d="M911.931 207C904.661 207 898.317 205.503 892.899 202.509C887.482 199.373 883.276 195.31 880.282 190.32C877.431 185.33 876.076 179.913 876.219 174.067C876.219 167.652 878.072 162.021 881.779 157.173C885.628 152.184 890.547 148.406 896.534 145.839C902.665 143.273 909.437 142.204 916.85 142.632C924.263 143.059 931.748 145.341 939.304 149.475L946.361 153.11L945.719 163.803L938.021 160.381C931.891 157.53 926.117 155.962 920.699 155.676C915.424 155.249 910.791 155.819 906.799 157.387C902.807 158.813 899.671 160.951 897.39 163.803C895.251 166.654 894.182 170.004 894.182 173.854C894.182 179.271 896.107 183.762 899.956 187.326C903.805 190.748 909.08 192.458 915.781 192.458C918.632 192.458 921.697 192.031 924.976 191.175C928.255 190.177 931.249 188.68 933.958 186.684C936.809 184.546 939.09 181.908 940.801 178.772C942.512 175.636 943.367 171.929 943.367 167.652V137.927C943.367 129.658 941.371 123.599 937.379 119.75C933.53 115.901 928.113 113.976 921.127 113.976C919.131 113.976 916.779 114.261 914.07 114.832C911.504 115.402 908.652 116.471 905.516 118.039C902.522 119.465 899.457 121.532 896.321 124.241C894.325 125.809 892.4 126.593 890.547 126.593C888.836 126.593 887.339 126.094 886.056 125.096C884.773 124.098 883.846 122.815 883.276 121.247C882.848 119.679 882.848 118.039 883.276 116.328C883.846 114.475 885.058 112.836 886.911 111.41C890.475 108.131 894.325 105.565 898.459 103.711C902.736 101.716 906.87 100.361 910.862 99.6484C914.997 98.793 918.561 98.4366 921.555 98.5791C930.394 98.5791 937.878 100.076 944.009 103.07C950.139 106.064 954.772 110.626 957.909 116.756C961.045 122.887 962.613 130.728 962.613 140.279V197.163C962.613 200.014 961.829 202.295 960.261 204.006C958.693 205.717 956.412 206.572 953.418 206.572C951.279 206.572 949.497 206.216 948.072 205.503C946.646 204.79 945.577 203.721 944.864 202.295C944.151 200.87 943.795 199.23 943.795 197.377V186.043H945.719C944.579 191.318 942.369 195.523 939.09 198.66C935.811 201.654 931.891 203.792 927.328 205.075C922.766 206.358 917.634 207 911.931 207Z" fill="black"/>
</svg>
